G04 #@! TF.GenerationSoftware,KiCad,Pcbnew,7.0.9*
G04 #@! TF.CreationDate,2024-12-26T17:05:42+08:00*
G04 #@! TF.ProjectId,Debug Adapter board,44656275-6720-4416-9461-707465722062,rev?*
G04 #@! TF.SameCoordinates,Original*
G04 #@! TF.FileFunction,Copper,L2,Bot*
G04 #@! TF.FilePolarity,Positive*
%FSLAX46Y46*%
G04 Gerber Fmt 4.6, Leading zero omitted, Abs format (unit mm)*
G04 Created by KiCad (PCBNEW 7.0.9) date 2024-12-26 17:05:42*
%MOMM*%
%LPD*%
G01*
G04 APERTURE LIST*
G04 Aperture macros list*
%AMRoundRect*
0 Rectangle with rounded corners*
0 $1 Rounding radius*
0 $2 $3 $4 $5 $6 $7 $8 $9 X,Y pos of 4 corners*
0 Add a 4 corners polygon primitive as box body*
4,1,4,$2,$3,$4,$5,$6,$7,$8,$9,$2,$3,0*
0 Add four circle primitives for the rounded corners*
1,1,$1+$1,$2,$3*
1,1,$1+$1,$4,$5*
1,1,$1+$1,$6,$7*
1,1,$1+$1,$8,$9*
0 Add four rect primitives between the rounded corners*
20,1,$1+$1,$2,$3,$4,$5,0*
20,1,$1+$1,$4,$5,$6,$7,0*
20,1,$1+$1,$6,$7,$8,$9,0*
20,1,$1+$1,$8,$9,$2,$3,0*%
G04 Aperture macros list end*
G04 #@! TA.AperFunction,ComponentPad*
%ADD10RoundRect,0.250000X-0.600000X-0.600000X0.600000X-0.600000X0.600000X0.600000X-0.600000X0.600000X0*%
G04 #@! TD*
G04 #@! TA.AperFunction,ComponentPad*
%ADD11C,1.700000*%
G04 #@! TD*
G04 #@! TA.AperFunction,ComponentPad*
%ADD12R,1.700000X1.700000*%
G04 #@! TD*
G04 #@! TA.AperFunction,ComponentPad*
%ADD13O,1.700000X1.700000*%
G04 #@! TD*
G04 #@! TA.AperFunction,ComponentPad*
%ADD14C,5.000000*%
G04 #@! TD*
G04 #@! TA.AperFunction,ViaPad*
%ADD15C,0.508000*%
G04 #@! TD*
G04 #@! TA.AperFunction,Conductor*
%ADD16C,0.250000*%
G04 #@! TD*
G04 #@! TA.AperFunction,Conductor*
%ADD17C,0.508000*%
G04 #@! TD*
G04 #@! TA.AperFunction,Conductor*
%ADD18C,0.228600*%
G04 #@! TD*
G04 APERTURE END LIST*
D10*
X71430000Y-81570000D03*
D11*
X73970000Y-81570000D03*
X71430000Y-84110000D03*
X73970000Y-84110000D03*
X71430000Y-86650000D03*
X73970000Y-86650000D03*
X71430000Y-89190000D03*
X73970000Y-89190000D03*
X71430000Y-91730000D03*
X73970000Y-91730000D03*
X71430000Y-94270000D03*
X73970000Y-94270000D03*
X71430000Y-96810000D03*
X73970000Y-96810000D03*
X71430000Y-99350000D03*
X73970000Y-99350000D03*
X71430000Y-101890000D03*
X73970000Y-101890000D03*
X71430000Y-104430000D03*
X73970000Y-104430000D03*
D12*
X86790000Y-97370000D03*
D13*
X86790000Y-99910000D03*
X86790000Y-102450000D03*
X86790000Y-104990000D03*
D14*
X85430000Y-79210000D03*
D15*
X84230000Y-91570000D03*
X78320000Y-89670000D03*
X77880000Y-87560000D03*
X79890000Y-98390000D03*
X80990000Y-81510000D03*
X69000000Y-83500000D03*
X86000000Y-90500000D03*
X77000000Y-107500000D03*
X79000000Y-94000000D03*
X67500000Y-103000000D03*
X76550000Y-96800000D03*
X76550000Y-84130000D03*
X77500000Y-77500000D03*
X67500000Y-107500000D03*
X82460000Y-89990000D03*
X64500000Y-89000000D03*
X83480000Y-89940000D03*
X64500000Y-95500000D03*
X71000000Y-77500000D03*
X87850000Y-91780000D03*
X83250000Y-99050000D03*
X67500000Y-101000000D03*
X80500000Y-103000000D03*
X76300000Y-98000000D03*
X67500000Y-99500000D03*
X69000000Y-89500000D03*
X64500000Y-99500000D03*
X67500000Y-106000000D03*
X64500000Y-83500000D03*
X87500000Y-94500000D03*
X64500000Y-107500000D03*
X78960000Y-90770000D03*
X76550000Y-82250000D03*
X64500000Y-106000000D03*
X86000000Y-84000000D03*
X67500000Y-77500000D03*
X83000000Y-84500000D03*
X87600000Y-88870000D03*
X76630000Y-101240000D03*
X82000000Y-93000000D03*
X86000000Y-94500000D03*
X82000000Y-95500000D03*
X82000000Y-107500000D03*
X69000000Y-88000000D03*
X64500000Y-94000000D03*
X75000000Y-79000000D03*
X75500000Y-107500000D03*
X76560000Y-93980000D03*
X80500000Y-107500000D03*
X67500000Y-79000000D03*
X77500000Y-79000000D03*
X64500000Y-101000000D03*
X64500000Y-103000000D03*
X73000000Y-77500000D03*
X65250000Y-79000000D03*
X71000000Y-107500000D03*
X64500000Y-85000000D03*
X65250000Y-77500000D03*
X80500000Y-77500000D03*
X72500000Y-107500000D03*
X79000000Y-92500000D03*
X73000000Y-79000000D03*
X87000000Y-107500000D03*
X76580000Y-92460000D03*
X80500000Y-87500000D03*
X69000000Y-93000000D03*
X87750000Y-82500000D03*
X64500000Y-104500000D03*
X87810000Y-85320000D03*
X71000000Y-79000000D03*
X80500000Y-105000000D03*
X80500000Y-79000000D03*
X85500000Y-107500000D03*
X82000000Y-103000000D03*
X82000000Y-105000000D03*
X75000000Y-77500000D03*
X69000000Y-85000000D03*
X78280000Y-84140000D03*
X69000000Y-94500000D03*
X64500000Y-90500000D03*
X79582200Y-91300000D03*
X82880000Y-87840000D03*
X78900000Y-101200000D03*
X83420000Y-87210000D03*
X80150000Y-90470000D03*
X80750000Y-98850000D03*
D16*
X83278511Y-98271489D02*
X83900000Y-97650000D01*
X83900000Y-97650000D02*
X86510000Y-97650000D01*
X78320000Y-88000000D02*
X77880000Y-87560000D01*
D17*
X84430000Y-91570000D02*
X84230000Y-91570000D01*
X80990000Y-81510000D02*
X81540000Y-81510000D01*
D16*
X79890000Y-98390000D02*
X80008511Y-98271489D01*
D17*
X81540000Y-81510000D02*
X84970000Y-84940000D01*
D16*
X78320000Y-89670000D02*
X78320000Y-88000000D01*
D17*
X84970000Y-84940000D02*
X84970000Y-91030000D01*
X84970000Y-91030000D02*
X84430000Y-91570000D01*
D16*
X80008511Y-98271489D02*
X83278511Y-98271489D01*
D18*
X80200000Y-91300000D02*
X79582200Y-91300000D01*
X80720000Y-90430000D02*
X80720000Y-90780000D01*
X85540000Y-101200000D02*
X86790000Y-102450000D01*
X80720000Y-90000000D02*
X82880000Y-87840000D01*
X78900000Y-101200000D02*
X85540000Y-101200000D01*
X80720000Y-90780000D02*
X80250000Y-91250000D01*
X80250000Y-91250000D02*
X80200000Y-91300000D01*
X80720000Y-90430000D02*
X80720000Y-90000000D01*
D16*
X81810000Y-99910000D02*
X80750000Y-98850000D01*
D18*
X82290000Y-87210000D02*
X83420000Y-87210000D01*
X80150000Y-90470000D02*
X80150000Y-89350000D01*
D16*
X86790000Y-99910000D02*
X81810000Y-99910000D01*
D18*
X80150000Y-89350000D02*
X82290000Y-87210000D01*
G04 #@! TA.AperFunction,Conductor*
G36*
X87570513Y-76184502D02*
G01*
X87591487Y-76201405D01*
X88488595Y-77098513D01*
X88522621Y-77160825D01*
X88525500Y-77187608D01*
X88525500Y-108252392D01*
X88505498Y-108320513D01*
X88488595Y-108341487D01*
X87221487Y-109608595D01*
X87159175Y-109642621D01*
X87132392Y-109645500D01*
X65027607Y-109645500D01*
X64959486Y-109625498D01*
X64938512Y-109608595D01*
X63711405Y-108381487D01*
X63677379Y-108319175D01*
X63674500Y-108292392D01*
X63674500Y-104430004D01*
X70320768Y-104430004D01*
X70339654Y-104633819D01*
X70395619Y-104830514D01*
X70395672Y-104830701D01*
X70486912Y-105013935D01*
X70486913Y-105013936D01*
X70610266Y-105177284D01*
X70761536Y-105315185D01*
X70935566Y-105422940D01*
X70935568Y-105422940D01*
X70935573Y-105422944D01*
X71126444Y-105496888D01*
X71327653Y-105534500D01*
X71327655Y-105534500D01*
X71532345Y-105534500D01*
X71532347Y-105534500D01*
X71733556Y-105496888D01*
X71924427Y-105422944D01*
X72098462Y-105315186D01*
X72249732Y-105177285D01*
X72373088Y-105013935D01*
X72464328Y-104830701D01*
X72520345Y-104633821D01*
X72526718Y-104565048D01*
X72539232Y-104430004D01*
X72539232Y-104430000D01*
X72861270Y-104430000D01*
X72880148Y-104633730D01*
X72936138Y-104830514D01*
X72936140Y-104830519D01*
X73027340Y-105013672D01*
X73060100Y-105057054D01*
X73060101Y-105057054D01*
X73502972Y-104614183D01*
X73510507Y-104639844D01*
X73588239Y-104760798D01*
X73696900Y-104854952D01*
X73786823Y-104896018D01*
X73342736Y-105340105D01*
X73475793Y-105422491D01*
X73475802Y-105422496D01*
X73666577Y-105496403D01*
X73666576Y-105496403D01*
X73867701Y-105534000D01*
X74072299Y-105534000D01*
X74273423Y-105496403D01*
X74464197Y-105422496D01*
X74464206Y-105422491D01*
X74597263Y-105340105D01*
X74447158Y-105190000D01*
X85699802Y-105190000D01*
X85700148Y-105193729D01*
X85756137Y-105390511D01*
X85756140Y-105390519D01*
X85847340Y-105573672D01*
X85970637Y-105736946D01*
X86121838Y-105874784D01*
X86295796Y-105982493D01*
X86295803Y-105982496D01*
X86486577Y-106056403D01*
X86486575Y-106056403D01*
X86590000Y-106075736D01*
X86590000Y-105448335D01*
X86647685Y-105474680D01*
X86754237Y-105490000D01*
X86825763Y-105490000D01*
X86932315Y-105474680D01*
X86990000Y-105448335D01*
X86990000Y-106075736D01*
X87093423Y-106056403D01*
X87284196Y-105982496D01*
X87284203Y-105982493D01*
X87458161Y-105874784D01*
X87609362Y-105736946D01*
X87732659Y-105573672D01*
X87823859Y-105390519D01*
X87823862Y-105390511D01*
X87879851Y-105193729D01*
X87880198Y-105190000D01*
X87252383Y-105190000D01*
X87290000Y-105061889D01*
X87290000Y-104918111D01*
X87252383Y-104790000D01*
X87880198Y-104790000D01*
X87879851Y-104786270D01*
X87823862Y-104589488D01*
X87823859Y-104589480D01*
X87732659Y-104406327D01*
X87609362Y-104243053D01*
X87458161Y-104105215D01*
X87284203Y-103997506D01*
X87284196Y-103997503D01*
X87093422Y-103923596D01*
X87093416Y-103923594D01*
X86990000Y-103904261D01*
X86990000Y-104531664D01*
X86932315Y-104505320D01*
X86825763Y-104490000D01*
X86754237Y-104490000D01*
X86647685Y-104505320D01*
X86590000Y-104531664D01*
X86590000Y-103904261D01*
X86589999Y-103904261D01*
X86486583Y-103923594D01*
X86486577Y-103923596D01*
X86295803Y-103997503D01*
X86295796Y-103997506D01*
X86121838Y-104105215D01*
X85970637Y-104243053D01*
X85847340Y-104406327D01*
X85756140Y-104589480D01*
X85756137Y-104589488D01*
X85700148Y-104786270D01*
X85699802Y-104790000D01*
X86327617Y-104790000D01*
X86290000Y-104918111D01*
X86290000Y-105061889D01*
X86327617Y-105190000D01*
X85699802Y-105190000D01*
X74447158Y-105190000D01*
X74153176Y-104896018D01*
X74243100Y-104854952D01*
X74351761Y-104760798D01*
X74429493Y-104639844D01*
X74437027Y-104614185D01*
X74879897Y-105057055D01*
X74879898Y-105057054D01*
X74912660Y-105013672D01*
X75003859Y-104830519D01*
X75003861Y-104830514D01*
X75059851Y-104633730D01*
X75078729Y-104430000D01*
X75059851Y-104226269D01*
X75003861Y-104029485D01*
X75003859Y-104029480D01*
X74912661Y-103846330D01*
X74879897Y-103802944D01*
X74437027Y-104245814D01*
X74429493Y-104220156D01*
X74351761Y-104099202D01*
X74243100Y-104005048D01*
X74153175Y-103963980D01*
X74597263Y-103519893D01*
X74464203Y-103437506D01*
X74464197Y-103437503D01*
X74273422Y-103363596D01*
X74273423Y-103363596D01*
X74072299Y-103326000D01*
X73867701Y-103326000D01*
X73666576Y-103363596D01*
X73475803Y-103437503D01*
X73475796Y-103437506D01*
X73342735Y-103519893D01*
X73786823Y-103963981D01*
X73696900Y-104005048D01*
X73588239Y-104099202D01*
X73510507Y-104220156D01*
X73502972Y-104245814D01*
X73060102Y-103802944D01*
X73060101Y-103802944D01*
X73027337Y-103846332D01*
X73027335Y-103846334D01*
X72936143Y-104029471D01*
X72936138Y-104029485D01*
X72880148Y-104226269D01*
X72861270Y-104430000D01*
X72539232Y-104430000D01*
X72539232Y-104429995D01*
X72520345Y-104226180D01*
X72497861Y-104147157D01*
X72464328Y-104029299D01*
X72373088Y-103846065D01*
X72332538Y-103792368D01*
X72249733Y-103682715D01*
X72098463Y-103544814D01*
X71924433Y-103437059D01*
X71924428Y-103437057D01*
X71924427Y-103437056D01*
X71924422Y-103437054D01*
X71733559Y-103363113D01*
X71733560Y-103363113D01*
X71733557Y-103363112D01*
X71733556Y-103363112D01*
X71532347Y-103325500D01*
X71327653Y-103325500D01*
X71126444Y-103363112D01*
X71126439Y-103363113D01*
X70935577Y-103437054D01*
X70935566Y-103437059D01*
X70761536Y-103544814D01*
X70610266Y-103682715D01*
X70486913Y-103846063D01*
X70395671Y-104029301D01*
X70339654Y-104226180D01*
X70320768Y-104429995D01*
X70320768Y-104430004D01*
X63674500Y-104430004D01*
X63674500Y-101890004D01*
X70320768Y-101890004D01*
X70339654Y-102093819D01*
X70375783Y-102220798D01*
X70395672Y-102290701D01*
X70486912Y-102473935D01*
X70486913Y-102473936D01*
X70610266Y-102637284D01*
X70761536Y-102775185D01*
X70935566Y-102882940D01*
X70935568Y-102882940D01*
X70935573Y-102882944D01*
X71126444Y-102956888D01*
X71327653Y-102994500D01*
X71327655Y-102994500D01*
X71532345Y-102994500D01*
X71532347Y-102994500D01*
X71733556Y-102956888D01*
X71924427Y-102882944D01*
X72098462Y-102775186D01*
X72249732Y-102637285D01*
X72373088Y-102473935D01*
X72464328Y-102290701D01*
X72520345Y-102093821D01*
X72531561Y-101972783D01*
X72539232Y-101890004D01*
X72539232Y-101890000D01*
X72861270Y-101890000D01*
X72880148Y-102093730D01*
X72936138Y-102290514D01*
X72936140Y-102290519D01*
X73027340Y-102473672D01*
X73060100Y-102517054D01*
X73060101Y-102517054D01*
X73502972Y-102074183D01*
X73510507Y-102099844D01*
X73588239Y-102220798D01*
X73696900Y-102314952D01*
X73786823Y-102356018D01*
X73342736Y-102800105D01*
X73475793Y-102882491D01*
X73475802Y-102882496D01*
X73666577Y-102956403D01*
X73666576Y-102956403D01*
X73867701Y-102994000D01*
X74072299Y-102994000D01*
X74273423Y-102956403D01*
X74464197Y-102882496D01*
X74464206Y-102882491D01*
X74597263Y-102800105D01*
X74153176Y-102356018D01*
X74243100Y-102314952D01*
X74351761Y-102220798D01*
X74429493Y-102099844D01*
X74437027Y-102074185D01*
X74879897Y-102517055D01*
X74879898Y-102517054D01*
X74912660Y-102473672D01*
X75003859Y-102290519D01*
X75003861Y-102290514D01*
X75059851Y-102093730D01*
X75078729Y-101890000D01*
X75059851Y-101686269D01*
X75003861Y-101489485D01*
X75003859Y-101489480D01*
X74912661Y-101306330D01*
X74879897Y-101262944D01*
X74437027Y-101705814D01*
X74429493Y-101680156D01*
X74351761Y-101559202D01*
X74243100Y-101465048D01*
X74153175Y-101423980D01*
X74377153Y-101200003D01*
X78386271Y-101200003D01*
X78407079Y-101344727D01*
X78407081Y-101344734D01*
X78467824Y-101477743D01*
X78563579Y-101588250D01*
X78686589Y-101667304D01*
X78806039Y-101702378D01*
X78826885Y-101708499D01*
X78826886Y-101708499D01*
X78826889Y-101708500D01*
X78826892Y-101708500D01*
X78973108Y-101708500D01*
X78973111Y-101708500D01*
X79113411Y-101667304D01*
X79235562Y-101588801D01*
X79303683Y-101568800D01*
X85335048Y-101568800D01*
X85403169Y-101588802D01*
X85424143Y-101605705D01*
X85728909Y-101910471D01*
X85762935Y-101972783D01*
X85757870Y-102043598D01*
X85757306Y-102045082D01*
X85755670Y-102049304D01*
X85699654Y-102246180D01*
X85680768Y-102449995D01*
X85680768Y-102450004D01*
X85699654Y-102653819D01*
X85699655Y-102653821D01*
X85755672Y-102850701D01*
X85846912Y-103033935D01*
X85846913Y-103033936D01*
X85970266Y-103197284D01*
X86121536Y-103335185D01*
X86295566Y-103442940D01*
X86295568Y-103442940D01*
X86295573Y-103442944D01*
X86486444Y-103516888D01*
X86687653Y-103554500D01*
X86687655Y-103554500D01*
X86892345Y-103554500D01*
X86892347Y-103554500D01*
X87093556Y-103516888D01*
X87284427Y-103442944D01*
X87458462Y-103335186D01*
X87609732Y-103197285D01*
X87733088Y-103033935D01*
X87824328Y-102850701D01*
X87880345Y-102653821D01*
X87886640Y-102585880D01*
X87899232Y-102450004D01*
X87899232Y-102449995D01*
X87880345Y-102246180D01*
X87880345Y-102246179D01*
X87824328Y-102049299D01*
X87733088Y-101866065D01*
X87692538Y-101812368D01*
X87609733Y-101702715D01*
X87458463Y-101564814D01*
X87284433Y-101457059D01*
X87284428Y-101457057D01*
X87284427Y-101457056D01*
X87284422Y-101457054D01*
X87093559Y-101383113D01*
X87093560Y-101383113D01*
X87093557Y-101383112D01*
X87093556Y-101383112D01*
X86892347Y-101345500D01*
X86687653Y-101345500D01*
X86587048Y-101364306D01*
X86486442Y-101383112D01*
X86388739Y-101420963D01*
X86317993Y-101426919D01*
X86255257Y-101393682D01*
X86254128Y-101392566D01*
X85837071Y-100975509D01*
X85820684Y-100955331D01*
X85815087Y-100946764D01*
X85787666Y-100925421D01*
X85781821Y-100920259D01*
X85779170Y-100917608D01*
X85779166Y-100917605D01*
X85779164Y-100917603D01*
X85779163Y-100917602D01*
X85760507Y-100904283D01*
X85717961Y-100871167D01*
X85711249Y-100867534D01*
X85711176Y-100867499D01*
X85711103Y-100867459D01*
X85704217Y-100864093D01*
X85704216Y-100864092D01*
X85704213Y-100864091D01*
X85704211Y-100864090D01*
X85652530Y-100848704D01*
X85601542Y-100831199D01*
X85593906Y-100829925D01*
X85586247Y-100828970D01*
X85534335Y-100831117D01*
X85532352Y-100831200D01*
X79303683Y-100831200D01*
X79235562Y-100811198D01*
X79195575Y-100785500D01*
X79113411Y-100732696D01*
X79078336Y-100722397D01*
X78973114Y-100691500D01*
X78973111Y-100691500D01*
X78826889Y-100691500D01*
X78826885Y-100691500D01*
X78686589Y-100732696D01*
X78686587Y-100732697D01*
X78563579Y-100811749D01*
X78467824Y-100922256D01*
X78407081Y-101055265D01*
X78407079Y-101055272D01*
X78386271Y-101199996D01*
X78386271Y-101200003D01*
X74377153Y-101200003D01*
X74597263Y-100979893D01*
X74464203Y-100897506D01*
X74464197Y-100897503D01*
X74273422Y-100823596D01*
X74273423Y-100823596D01*
X74072299Y-100786000D01*
X73867701Y-100786000D01*
X73666576Y-100823596D01*
X73475803Y-100897503D01*
X73475796Y-100897506D01*
X73342735Y-100979893D01*
X73786823Y-101423981D01*
X73696900Y-101465048D01*
X73588239Y-101559202D01*
X73510507Y-101680156D01*
X73502972Y-101705814D01*
X73060102Y-101262944D01*
X73060101Y-101262944D01*
X73027337Y-101306332D01*
X73027335Y-101306334D01*
X72936143Y-101489471D01*
X72936138Y-101489485D01*
X72880148Y-101686269D01*
X72861270Y-101890000D01*
X72539232Y-101890000D01*
X72539232Y-101889995D01*
X72520345Y-101686180D01*
X72518631Y-101680156D01*
X72464328Y-101489299D01*
X72373088Y-101306065D01*
X72292989Y-101199996D01*
X72249733Y-101142715D01*
X72098463Y-101004814D01*
X71924433Y-100897059D01*
X71924428Y-100897057D01*
X71924427Y-100897056D01*
X71848029Y-100867459D01*
X71733559Y-100823113D01*
X71733560Y-100823113D01*
X71733557Y-100823112D01*
X71733556Y-100823112D01*
X71532347Y-100785500D01*
X71327653Y-100785500D01*
X71126444Y-100823112D01*
X71126439Y-100823113D01*
X70935577Y-100897054D01*
X70935566Y-100897059D01*
X70761536Y-101004814D01*
X70610266Y-101142715D01*
X70486913Y-101306063D01*
X70395671Y-101489301D01*
X70339654Y-101686180D01*
X70320768Y-101889995D01*
X70320768Y-101890004D01*
X63674500Y-101890004D01*
X63674500Y-99350004D01*
X70320768Y-99350004D01*
X70339654Y-99553819D01*
X70375783Y-99680798D01*
X70395672Y-99750701D01*
X70486912Y-99933935D01*
X70486913Y-99933936D01*
X70610266Y-100097284D01*
X70761536Y-100235185D01*
X70935566Y-100342940D01*
X70935568Y-100342940D01*
X70935573Y-100342944D01*
X71126444Y-100416888D01*
X71327653Y-100454500D01*
X71327655Y-100454500D01*
X71532345Y-100454500D01*
X71532347Y-100454500D01*
X71733556Y-100416888D01*
X71924427Y-100342944D01*
X72098462Y-100235186D01*
X72249732Y-100097285D01*
X72373088Y-99933935D01*
X72464328Y-99750701D01*
X72520345Y-99553821D01*
X72526640Y-99485880D01*
X72539232Y-99350004D01*
X72539232Y-99350000D01*
X72861270Y-99350000D01*
X72880148Y-99553730D01*
X72936138Y-99750514D01*
X72936140Y-99750519D01*
X73027340Y-99933672D01*
X73060100Y-99977054D01*
X73060101Y-99977054D01*
X73502972Y-99534183D01*
X73510507Y-99559844D01*
X73588239Y-99680798D01*
X73696900Y-99774952D01*
X73786823Y-99816018D01*
X73342736Y-100260105D01*
X73475793Y-100342491D01*
X73475802Y-100342496D01*
X73666577Y-100416403D01*
X73666576Y-100416403D01*
X73867701Y-100454000D01*
X74072299Y-100454000D01*
X74273423Y-100416403D01*
X74464197Y-100342496D01*
X74464206Y-100342491D01*
X74597263Y-100260105D01*
X74153176Y-99816018D01*
X74243100Y-99774952D01*
X74351761Y-99680798D01*
X74429493Y-99559844D01*
X74437027Y-99534185D01*
X74879897Y-99977055D01*
X74879898Y-99977054D01*
X74912660Y-99933672D01*
X75003859Y-99750519D01*
X75003861Y-99750514D01*
X75059851Y-99553730D01*
X75078729Y-99350000D01*
X75059851Y-99146269D01*
X75003861Y-98949485D01*
X75003859Y-98949480D01*
X74912661Y-98766330D01*
X74879897Y-98722944D01*
X74437027Y-99165814D01*
X74429493Y-99140156D01*
X74351761Y-99019202D01*
X74243100Y-98925048D01*
X74153175Y-98883980D01*
X74597263Y-98439893D01*
X74516688Y-98390003D01*
X79376271Y-98390003D01*
X79397079Y-98534727D01*
X79397081Y-98534734D01*
X79457824Y-98667743D01*
X79553579Y-98778250D01*
X79676589Y-98857304D01*
X79796039Y-98892378D01*
X79816885Y-98898499D01*
X79816886Y-98898499D01*
X79816889Y-98898500D01*
X79816892Y-98898500D01*
X79963108Y-98898500D01*
X79963111Y-98898500D01*
X80092377Y-98860544D01*
X80163371Y-98860544D01*
X80223097Y-98898927D01*
X80252590Y-98963506D01*
X80257079Y-98994728D01*
X80257081Y-98994734D01*
X80317824Y-99127743D01*
X80413579Y-99238250D01*
X80536589Y-99317304D01*
X80656039Y-99352378D01*
X80676885Y-99358499D01*
X80676886Y-99358499D01*
X80676889Y-99358500D01*
X80676892Y-99358500D01*
X80685809Y-99359782D01*
X80685329Y-99363113D01*
X80737737Y-99378502D01*
X80758711Y-99395405D01*
X81504580Y-100141274D01*
X81520968Y-100161454D01*
X81526930Y-100170579D01*
X81526932Y-100170582D01*
X81555221Y-100192600D01*
X81561078Y-100197773D01*
X81563879Y-100200574D01*
X81563883Y-100200577D01*
X81563886Y-100200580D01*
X81583093Y-100214293D01*
X81626881Y-100248375D01*
X81633860Y-100252152D01*
X81641017Y-100255651D01*
X81641020Y-100255653D01*
X81694179Y-100271478D01*
X81746673Y-100289500D01*
X81746680Y-100289500D01*
X81754485Y-100290803D01*
X81762407Y-100291790D01*
X81762409Y-100291791D01*
X81762410Y-100291790D01*
X81762411Y-100291791D01*
X81817811Y-100289500D01*
X85667100Y-100289500D01*
X85735221Y-100309502D01*
X85779888Y-100359334D01*
X85827027Y-100454000D01*
X85846913Y-100493937D01*
X85970266Y-100657284D01*
X86121536Y-100795185D01*
X86295566Y-100902940D01*
X86295568Y-100902940D01*
X86295573Y-100902944D01*
X86486444Y-100976888D01*
X86687653Y-101014500D01*
X86687655Y-101014500D01*
X86892345Y-101014500D01*
X86892347Y-101014500D01*
X87093556Y-100976888D01*
X87284427Y-100902944D01*
X87458462Y-100795186D01*
X87609732Y-100657285D01*
X87733088Y-100493935D01*
X87824328Y-100310701D01*
X87880345Y-100113821D01*
X87886640Y-100045880D01*
X87899232Y-99910004D01*
X87899232Y-99909995D01*
X87880345Y-99706180D01*
X87880345Y-99706179D01*
X87824328Y-99509299D01*
X87733088Y-99326065D01*
X87692538Y-99272368D01*
X87609733Y-99162715D01*
X87458463Y-99024814D01*
X87284433Y-98917059D01*
X87284428Y-98917057D01*
X87284427Y-98917056D01*
X87236526Y-98898499D01*
X87093559Y-98843113D01*
X87093560Y-98843113D01*
X87093557Y-98843112D01*
X87093556Y-98843112D01*
X86892347Y-98805500D01*
X86687653Y-98805500D01*
X86486444Y-98843112D01*
X86486439Y-98843113D01*
X86295577Y-98917054D01*
X86295566Y-98917059D01*
X86121536Y-99024814D01*
X85970266Y-99162715D01*
X85846913Y-99326062D01*
X85846912Y-99326065D01*
X85779888Y-99460665D01*
X85731622Y-99512726D01*
X85667100Y-99530500D01*
X82019384Y-99530500D01*
X81951263Y-99510498D01*
X81930289Y-99493595D01*
X81302778Y-98866084D01*
X81268752Y-98803772D01*
X81273817Y-98732957D01*
X81316364Y-98676121D01*
X81382884Y-98651310D01*
X81391873Y-98650989D01*
X83226084Y-98650989D01*
X83251942Y-98653670D01*
X83262611Y-98655908D01*
X83298194Y-98651472D01*
X83305985Y-98650989D01*
X83309947Y-98650989D01*
X83309954Y-98650989D01*
X83333226Y-98647105D01*
X83388294Y-98640241D01*
X83388295Y-98640240D01*
X83388299Y-98640240D01*
X83395897Y-98637977D01*
X83403435Y-98635390D01*
X83403436Y-98635389D01*
X83403438Y-98635389D01*
X83452216Y-98608991D01*
X83502079Y-98584615D01*
X83502082Y-98584612D01*
X83508529Y-98580009D01*
X83514823Y-98575111D01*
X83514824Y-98575109D01*
X83514827Y-98575108D01*
X83552391Y-98534302D01*
X84020290Y-98066404D01*
X84082602Y-98032379D01*
X84109385Y-98029500D01*
X85559501Y-98029500D01*
X85627622Y-98049502D01*
X85674115Y-98103158D01*
X85685501Y-98155500D01*
X85685501Y-98245072D01*
X85700265Y-98319300D01*
X85756516Y-98403484D01*
X85840697Y-98459733D01*
X85840699Y-98459734D01*
X85914933Y-98474500D01*
X87665066Y-98474499D01*
X87665069Y-98474498D01*
X87665073Y-98474498D01*
X87714326Y-98464701D01*
X87739301Y-98459734D01*
X87823484Y-98403484D01*
X87879734Y-98319301D01*
X87894500Y-98245067D01*
X87894499Y-96494934D01*
X87894498Y-96494930D01*
X87894498Y-96494926D01*
X87879734Y-96420699D01*
X87823483Y-96336515D01*
X87739302Y-96280266D01*
X87665067Y-96265500D01*
X85914936Y-96265500D01*
X85914926Y-96265501D01*
X85840699Y-96280265D01*
X85756515Y-96336516D01*
X85700266Y-96420697D01*
X85685500Y-96494930D01*
X85685500Y-97144500D01*
X85665498Y-97212621D01*
X85611842Y-97259114D01*
X85559500Y-97270500D01*
X83952422Y-97270500D01*
X83926564Y-97267818D01*
X83923806Y-97267239D01*
X83915898Y-97265581D01*
X83893756Y-97268342D01*
X83880321Y-97270016D01*
X83872533Y-97270500D01*
X83868557Y-97270500D01*
X83845274Y-97274385D01*
X83790215Y-97281248D01*
X83782622Y-97283508D01*
X83775072Y-97286100D01*
X83726294Y-97312497D01*
X83676432Y-97336873D01*
X83669978Y-97341481D01*
X83663685Y-97346379D01*
X83646522Y-97365022D01*
X83626119Y-97387186D01*
X83383294Y-97630011D01*
X83158221Y-97855084D01*
X83095909Y-97889110D01*
X83069126Y-97891989D01*
X80060938Y-97891989D01*
X80035079Y-97889307D01*
X80024411Y-97887070D01*
X80024410Y-97887070D01*
X80020664Y-97887537D01*
X79969583Y-97883400D01*
X79963116Y-97881501D01*
X79963113Y-97881500D01*
X79963111Y-97881500D01*
X79816889Y-97881500D01*
X79816885Y-97881500D01*
X79676589Y-97922696D01*
X79676587Y-97922697D01*
X79553579Y-98001749D01*
X79457824Y-98112256D01*
X79397081Y-98245265D01*
X79397079Y-98245272D01*
X79376271Y-98389996D01*
X79376271Y-98390003D01*
X74516688Y-98390003D01*
X74464203Y-98357506D01*
X74464197Y-98357503D01*
X74273422Y-98283596D01*
X74273423Y-98283596D01*
X74072299Y-98246000D01*
X73867701Y-98246000D01*
X73666576Y-98283596D01*
X73475803Y-98357503D01*
X73475796Y-98357506D01*
X73342735Y-98439893D01*
X73786823Y-98883981D01*
X73696900Y-98925048D01*
X73588239Y-99019202D01*
X73510507Y-99140156D01*
X73502972Y-99165814D01*
X73060102Y-98722944D01*
X73060101Y-98722944D01*
X73027337Y-98766332D01*
X73027335Y-98766334D01*
X72936143Y-98949471D01*
X72936138Y-98949485D01*
X72880148Y-99146269D01*
X72861270Y-99350000D01*
X72539232Y-99350000D01*
X72539232Y-99349995D01*
X72520345Y-99146180D01*
X72518631Y-99140156D01*
X72464328Y-98949299D01*
X72373088Y-98766065D01*
X72298839Y-98667743D01*
X72249733Y-98602715D01*
X72098463Y-98464814D01*
X71924433Y-98357059D01*
X71924428Y-98357057D01*
X71924427Y-98357056D01*
X71826973Y-98319302D01*
X71733559Y-98283113D01*
X71733560Y-98283113D01*
X71733557Y-98283112D01*
X71733556Y-98283112D01*
X71532347Y-98245500D01*
X71327653Y-98245500D01*
X71126444Y-98283112D01*
X71126439Y-98283113D01*
X70935577Y-98357054D01*
X70935566Y-98357059D01*
X70761536Y-98464814D01*
X70610266Y-98602715D01*
X70486913Y-98766063D01*
X70395671Y-98949301D01*
X70339654Y-99146180D01*
X70320768Y-99349995D01*
X70320768Y-99350004D01*
X63674500Y-99350004D01*
X63674500Y-96810004D01*
X70320768Y-96810004D01*
X70339654Y-97013819D01*
X70375783Y-97140798D01*
X70395672Y-97210701D01*
X70486912Y-97393935D01*
X70486913Y-97393936D01*
X70610266Y-97557284D01*
X70761536Y-97695185D01*
X70935566Y-97802940D01*
X70935568Y-97802940D01*
X70935573Y-97802944D01*
X71126444Y-97876888D01*
X71327653Y-97914500D01*
X71327655Y-97914500D01*
X71532345Y-97914500D01*
X71532347Y-97914500D01*
X71733556Y-97876888D01*
X71924427Y-97802944D01*
X72098462Y-97695186D01*
X72249732Y-97557285D01*
X72373088Y-97393935D01*
X72464328Y-97210701D01*
X72520345Y-97013821D01*
X72526640Y-96945880D01*
X72539232Y-96810004D01*
X72539232Y-96810000D01*
X72861270Y-96810000D01*
X72880148Y-97013730D01*
X72936138Y-97210514D01*
X72936140Y-97210519D01*
X73027340Y-97393672D01*
X73060100Y-97437054D01*
X73060101Y-97437054D01*
X73502972Y-96994183D01*
X73510507Y-97019844D01*
X73588239Y-97140798D01*
X73696900Y-97234952D01*
X73786823Y-97276018D01*
X73342736Y-97720105D01*
X73475793Y-97802491D01*
X73475802Y-97802496D01*
X73666577Y-97876403D01*
X73666576Y-97876403D01*
X73867701Y-97914000D01*
X74072299Y-97914000D01*
X74273423Y-97876403D01*
X74464197Y-97802496D01*
X74464206Y-97802491D01*
X74597263Y-97720105D01*
X74153176Y-97276018D01*
X74243100Y-97234952D01*
X74351761Y-97140798D01*
X74429493Y-97019844D01*
X74437027Y-96994185D01*
X74879897Y-97437055D01*
X74879898Y-97437054D01*
X74912660Y-97393672D01*
X75003859Y-97210519D01*
X75003861Y-97210514D01*
X75059851Y-97013730D01*
X75078729Y-96810000D01*
X75059851Y-96606269D01*
X75003861Y-96409485D01*
X75003859Y-96409480D01*
X74912661Y-96226330D01*
X74879897Y-96182944D01*
X74437027Y-96625814D01*
X74429493Y-96600156D01*
X74351761Y-96479202D01*
X74243100Y-96385048D01*
X74153175Y-96343980D01*
X74597263Y-95899893D01*
X74464203Y-95817506D01*
X74464197Y-95817503D01*
X74273422Y-95743596D01*
X74273423Y-95743596D01*
X74072299Y-95706000D01*
X73867701Y-95706000D01*
X73666576Y-95743596D01*
X73475803Y-95817503D01*
X73475796Y-95817506D01*
X73342735Y-95899893D01*
X73786823Y-96343981D01*
X73696900Y-96385048D01*
X73588239Y-96479202D01*
X73510507Y-96600156D01*
X73502972Y-96625814D01*
X73060102Y-96182944D01*
X73060101Y-96182944D01*
X73027337Y-96226332D01*
X73027335Y-96226334D01*
X72936143Y-96409471D01*
X72936138Y-96409485D01*
X72880148Y-96606269D01*
X72861270Y-96810000D01*
X72539232Y-96810000D01*
X72539232Y-96809995D01*
X72520345Y-96606180D01*
X72497861Y-96527157D01*
X72464328Y-96409299D01*
X72373088Y-96226065D01*
X72332538Y-96172368D01*
X72249733Y-96062715D01*
X72098463Y-95924814D01*
X71924433Y-95817059D01*
X71924428Y-95817057D01*
X71924427Y-95817056D01*
X71924422Y-95817054D01*
X71733559Y-95743113D01*
X71733560Y-95743113D01*
X71733557Y-95743112D01*
X71733556Y-95743112D01*
X71532347Y-95705500D01*
X71327653Y-95705500D01*
X71126444Y-95743112D01*
X71126439Y-95743113D01*
X70935577Y-95817054D01*
X70935566Y-95817059D01*
X70761536Y-95924814D01*
X70610266Y-96062715D01*
X70486913Y-96226063D01*
X70395671Y-96409301D01*
X70339654Y-96606180D01*
X70320768Y-96809995D01*
X70320768Y-96810004D01*
X63674500Y-96810004D01*
X63674500Y-94270004D01*
X70320768Y-94270004D01*
X70339654Y-94473819D01*
X70375783Y-94600798D01*
X70395672Y-94670701D01*
X70486912Y-94853935D01*
X70486913Y-94853936D01*
X70610266Y-95017284D01*
X70761536Y-95155185D01*
X70935566Y-95262940D01*
X70935568Y-95262940D01*
X70935573Y-95262944D01*
X71126444Y-95336888D01*
X71327653Y-95374500D01*
X71327655Y-95374500D01*
X71532345Y-95374500D01*
X71532347Y-95374500D01*
X71733556Y-95336888D01*
X71924427Y-95262944D01*
X72098462Y-95155186D01*
X72249732Y-95017285D01*
X72373088Y-94853935D01*
X72464328Y-94670701D01*
X72520345Y-94473821D01*
X72526640Y-94405880D01*
X72539232Y-94270004D01*
X72539232Y-94270000D01*
X72861270Y-94270000D01*
X72880148Y-94473730D01*
X72936138Y-94670514D01*
X72936140Y-94670519D01*
X73027340Y-94853672D01*
X73060100Y-94897054D01*
X73060101Y-94897054D01*
X73502972Y-94454183D01*
X73510507Y-94479844D01*
X73588239Y-94600798D01*
X73696900Y-94694952D01*
X73786823Y-94736018D01*
X73342736Y-95180105D01*
X73475793Y-95262491D01*
X73475802Y-95262496D01*
X73666577Y-95336403D01*
X73666576Y-95336403D01*
X73867701Y-95374000D01*
X74072299Y-95374000D01*
X74273423Y-95336403D01*
X74464197Y-95262496D01*
X74464206Y-95262491D01*
X74597263Y-95180105D01*
X74153176Y-94736018D01*
X74243100Y-94694952D01*
X74351761Y-94600798D01*
X74429493Y-94479844D01*
X74437027Y-94454185D01*
X74879897Y-94897055D01*
X74879898Y-94897054D01*
X74912660Y-94853672D01*
X75003859Y-94670519D01*
X75003861Y-94670514D01*
X75059851Y-94473730D01*
X75078729Y-94270000D01*
X75059851Y-94066269D01*
X75003861Y-93869485D01*
X75003859Y-93869480D01*
X74912661Y-93686330D01*
X74879897Y-93642944D01*
X74437027Y-94085814D01*
X74429493Y-94060156D01*
X74351761Y-93939202D01*
X74243100Y-93845048D01*
X74153175Y-93803980D01*
X74597263Y-93359893D01*
X74464203Y-93277506D01*
X74464197Y-93277503D01*
X74273422Y-93203596D01*
X74273423Y-93203596D01*
X74072299Y-93166000D01*
X73867701Y-93166000D01*
X73666576Y-93203596D01*
X73475803Y-93277503D01*
X73475796Y-93277506D01*
X73342735Y-93359893D01*
X73786823Y-93803981D01*
X73696900Y-93845048D01*
X73588239Y-93939202D01*
X73510507Y-94060156D01*
X73502972Y-94085814D01*
X73060102Y-93642944D01*
X73060101Y-93642944D01*
X73027337Y-93686332D01*
X73027335Y-93686334D01*
X72936143Y-93869471D01*
X72936138Y-93869485D01*
X72880148Y-94066269D01*
X72861270Y-94270000D01*
X72539232Y-94270000D01*
X72539232Y-94269995D01*
X72520345Y-94066180D01*
X72484217Y-93939202D01*
X72464328Y-93869299D01*
X72373088Y-93686065D01*
X72332538Y-93632368D01*
X72249733Y-93522715D01*
X72098463Y-93384814D01*
X71924433Y-93277059D01*
X71924428Y-93277057D01*
X71924427Y-93277056D01*
X71924422Y-93277054D01*
X71733559Y-93203113D01*
X71733560Y-93203113D01*
X71733557Y-93203112D01*
X71733556Y-93203112D01*
X71532347Y-93165500D01*
X71327653Y-93165500D01*
X71126444Y-93203112D01*
X71126439Y-93203113D01*
X70935577Y-93277054D01*
X70935566Y-93277059D01*
X70761536Y-93384814D01*
X70610266Y-93522715D01*
X70486913Y-93686063D01*
X70395671Y-93869301D01*
X70339654Y-94066180D01*
X70320768Y-94269995D01*
X70320768Y-94270004D01*
X63674500Y-94270004D01*
X63674500Y-91730004D01*
X70320768Y-91730004D01*
X70339654Y-91933819D01*
X70381935Y-92082420D01*
X70395672Y-92130701D01*
X70486912Y-92313935D01*
X70486913Y-92313936D01*
X70610266Y-92477284D01*
X70761536Y-92615185D01*
X70935566Y-92722940D01*
X70935568Y-92722940D01*
X70935573Y-92722944D01*
X71126444Y-92796888D01*
X71327653Y-92834500D01*
X71327655Y-92834500D01*
X71532345Y-92834500D01*
X71532347Y-92834500D01*
X71733556Y-92796888D01*
X71924427Y-92722944D01*
X72098462Y-92615186D01*
X72249732Y-92477285D01*
X72373088Y-92313935D01*
X72464328Y-92130701D01*
X72520345Y-91933821D01*
X72530659Y-91822513D01*
X72539232Y-91730004D01*
X72539232Y-91730000D01*
X72861270Y-91730000D01*
X72880148Y-91933730D01*
X72936138Y-92130514D01*
X72936140Y-92130519D01*
X73027340Y-92313672D01*
X73060100Y-92357054D01*
X73060101Y-92357054D01*
X73502972Y-91914183D01*
X73510507Y-91939844D01*
X73588239Y-92060798D01*
X73696900Y-92154952D01*
X73786823Y-92196018D01*
X73342736Y-92640105D01*
X73475793Y-92722491D01*
X73475802Y-92722496D01*
X73666577Y-92796403D01*
X73666576Y-92796403D01*
X73867701Y-92834000D01*
X74072299Y-92834000D01*
X74273423Y-92796403D01*
X74464197Y-92722496D01*
X74464206Y-92722491D01*
X74597263Y-92640105D01*
X74153176Y-92196018D01*
X74243100Y-92154952D01*
X74351761Y-92060798D01*
X74429493Y-91939844D01*
X74437027Y-91914185D01*
X74879897Y-92357055D01*
X74879898Y-92357054D01*
X74912660Y-92313672D01*
X75003859Y-92130519D01*
X75003861Y-92130514D01*
X75059851Y-91933730D01*
X75078729Y-91730000D01*
X75059851Y-91526269D01*
X75003861Y-91329485D01*
X75003859Y-91329480D01*
X74989181Y-91300003D01*
X79068471Y-91300003D01*
X79089279Y-91444727D01*
X79089281Y-91444734D01*
X79150024Y-91577743D01*
X79245779Y-91688250D01*
X79368789Y-91767304D01*
X79486574Y-91801889D01*
X79509085Y-91808499D01*
X79509086Y-91808499D01*
X79509089Y-91808500D01*
X79509092Y-91808500D01*
X79655308Y-91808500D01*
X79655311Y-91808500D01*
X79795611Y-91767304D01*
X79917762Y-91688801D01*
X79985883Y-91668800D01*
X80148681Y-91668800D01*
X80174537Y-91671481D01*
X80184549Y-91673581D01*
X80219025Y-91669283D01*
X80226816Y-91668800D01*
X80230562Y-91668800D01*
X80253177Y-91665026D01*
X80259847Y-91664194D01*
X80306687Y-91658356D01*
X80306690Y-91658354D01*
X80314061Y-91656160D01*
X80321395Y-91653642D01*
X80321405Y-91653641D01*
X80368830Y-91627975D01*
X80417264Y-91604298D01*
X80417266Y-91604295D01*
X80423561Y-91599800D01*
X80429649Y-91595062D01*
X80429654Y-91595060D01*
X80466183Y-91555378D01*
X80532392Y-91489170D01*
X80944497Y-91077063D01*
X80964670Y-91060682D01*
X80973236Y-91055087D01*
X80994583Y-91027658D01*
X80999730Y-91021831D01*
X81002391Y-91019171D01*
X81015713Y-91000511D01*
X81048835Y-90957957D01*
X81048836Y-90957951D01*
X81052519Y-90951148D01*
X81055908Y-90944215D01*
X81071295Y-90892530D01*
X81083741Y-90856277D01*
X81088800Y-90841542D01*
X81088800Y-90841540D01*
X81090075Y-90833898D01*
X81091029Y-90826245D01*
X81088800Y-90772362D01*
X81088800Y-90204952D01*
X81108802Y-90136831D01*
X81125705Y-90115857D01*
X82856157Y-88385405D01*
X82918469Y-88351379D01*
X82945252Y-88348500D01*
X82953108Y-88348500D01*
X82953111Y-88348500D01*
X83093411Y-88307304D01*
X83216421Y-88228250D01*
X83312176Y-88117743D01*
X83372919Y-87984734D01*
X83378591Y-87945284D01*
X83395012Y-87831080D01*
X83396848Y-87831344D01*
X83413731Y-87773847D01*
X83467387Y-87727354D01*
X83484822Y-87722260D01*
X83484464Y-87721039D01*
X83493111Y-87718500D01*
X83633411Y-87677304D01*
X83756421Y-87598250D01*
X83852176Y-87487743D01*
X83912919Y-87354734D01*
X83924088Y-87277054D01*
X83933729Y-87210003D01*
X83933729Y-87209996D01*
X83912920Y-87065272D01*
X83912919Y-87065271D01*
X83912919Y-87065266D01*
X83852176Y-86932257D01*
X83756421Y-86821750D01*
X83756420Y-86821749D01*
X83694916Y-86782223D01*
X83633411Y-86742696D01*
X83598336Y-86732397D01*
X83493114Y-86701500D01*
X83493111Y-86701500D01*
X83346889Y-86701500D01*
X83346885Y-86701500D01*
X83206589Y-86742696D01*
X83206587Y-86742697D01*
X83084438Y-86821198D01*
X83016317Y-86841200D01*
X82341319Y-86841200D01*
X82315462Y-86838518D01*
X82313326Y-86838070D01*
X82305449Y-86836418D01*
X82282860Y-86839234D01*
X82270974Y-86840716D01*
X82263184Y-86841200D01*
X82259438Y-86841200D01*
X82236823Y-86844973D01*
X82231484Y-86845638D01*
X82183312Y-86851643D01*
X82175886Y-86853853D01*
X82168598Y-86856357D01*
X82162155Y-86859844D01*
X82121169Y-86882024D01*
X82104786Y-86890033D01*
X82072736Y-86905701D01*
X82066426Y-86910205D01*
X82060347Y-86914938D01*
X82023816Y-86954621D01*
X79925506Y-89052930D01*
X79905331Y-89069315D01*
X79896766Y-89074911D01*
X79896765Y-89074912D01*
X79875428Y-89102323D01*
X79870269Y-89108166D01*
X79867613Y-89110823D01*
X79854283Y-89129492D01*
X79821165Y-89172042D01*
X79817473Y-89178863D01*
X79814092Y-89185781D01*
X79798704Y-89237469D01*
X79781199Y-89288460D01*
X79779925Y-89296094D01*
X79778970Y-89303752D01*
X79781200Y-89357647D01*
X79781200Y-90072121D01*
X79761198Y-90140242D01*
X79750425Y-90154633D01*
X79717825Y-90192255D01*
X79657081Y-90325266D01*
X79657079Y-90325272D01*
X79636271Y-90469996D01*
X79636271Y-90470003D01*
X79657079Y-90614727D01*
X79659620Y-90623379D01*
X79657902Y-90623883D01*
X79666466Y-90683427D01*
X79636975Y-90748009D01*
X79577251Y-90786395D01*
X79541748Y-90791500D01*
X79509085Y-90791500D01*
X79368789Y-90832696D01*
X79368787Y-90832697D01*
X79245779Y-90911749D01*
X79150024Y-91022256D01*
X79089281Y-91155265D01*
X79089279Y-91155272D01*
X79068471Y-91299996D01*
X79068471Y-91300003D01*
X74989181Y-91300003D01*
X74912661Y-91146330D01*
X74879897Y-91102944D01*
X74437027Y-91545814D01*
X74429493Y-91520156D01*
X74351761Y-91399202D01*
X74243100Y-91305048D01*
X74153175Y-91263980D01*
X74597263Y-90819893D01*
X74464203Y-90737506D01*
X74464197Y-90737503D01*
X74273422Y-90663596D01*
X74273423Y-90663596D01*
X74072299Y-90626000D01*
X73867701Y-90626000D01*
X73666576Y-90663596D01*
X73475803Y-90737503D01*
X73475796Y-90737506D01*
X73342735Y-90819893D01*
X73786823Y-91263981D01*
X73696900Y-91305048D01*
X73588239Y-91399202D01*
X73510507Y-91520156D01*
X73502972Y-91545814D01*
X73060102Y-91102944D01*
X73060101Y-91102944D01*
X73027337Y-91146332D01*
X73027335Y-91146334D01*
X72936143Y-91329471D01*
X72936138Y-91329485D01*
X72880148Y-91526269D01*
X72861270Y-91730000D01*
X72539232Y-91730000D01*
X72539232Y-91729995D01*
X72520345Y-91526180D01*
X72509815Y-91489170D01*
X72464328Y-91329299D01*
X72373088Y-91146065D01*
X72317045Y-91071852D01*
X72249733Y-90982715D01*
X72098463Y-90844814D01*
X71924433Y-90737059D01*
X71924428Y-90737057D01*
X71924427Y-90737056D01*
X71785995Y-90683427D01*
X71733559Y-90663113D01*
X71733560Y-90663113D01*
X71733557Y-90663112D01*
X71733556Y-90663112D01*
X71532347Y-90625500D01*
X71327653Y-90625500D01*
X71126444Y-90663112D01*
X71126439Y-90663113D01*
X70935577Y-90737054D01*
X70935566Y-90737059D01*
X70761536Y-90844814D01*
X70610266Y-90982715D01*
X70486913Y-91146063D01*
X70395671Y-91329301D01*
X70339654Y-91526180D01*
X70320768Y-91729995D01*
X70320768Y-91730004D01*
X63674500Y-91730004D01*
X63674500Y-89190004D01*
X70320768Y-89190004D01*
X70339654Y-89393819D01*
X70370651Y-89502762D01*
X70395672Y-89590701D01*
X70486912Y-89773935D01*
X70486913Y-89773936D01*
X70610266Y-89937284D01*
X70761536Y-90075185D01*
X70935566Y-90182940D01*
X70935568Y-90182940D01*
X70935573Y-90182944D01*
X71126444Y-90256888D01*
X71327653Y-90294500D01*
X71327655Y-90294500D01*
X71532345Y-90294500D01*
X71532347Y-90294500D01*
X71733556Y-90256888D01*
X71924427Y-90182944D01*
X72098462Y-90075186D01*
X72249732Y-89937285D01*
X72373088Y-89773935D01*
X72464328Y-89590701D01*
X72520345Y-89393821D01*
X72528691Y-89303751D01*
X72539232Y-89190004D01*
X72539232Y-89190000D01*
X72861270Y-89190000D01*
X72880148Y-89393730D01*
X72936138Y-89590514D01*
X72936140Y-89590519D01*
X73027340Y-89773672D01*
X73060100Y-89817054D01*
X73060101Y-89817054D01*
X73502972Y-89374183D01*
X73510507Y-89399844D01*
X73588239Y-89520798D01*
X73696900Y-89614952D01*
X73786823Y-89656018D01*
X73342736Y-90100105D01*
X73475793Y-90182491D01*
X73475802Y-90182496D01*
X73666577Y-90256403D01*
X73666576Y-90256403D01*
X73867701Y-90294000D01*
X74072299Y-90294000D01*
X74273423Y-90256403D01*
X74464197Y-90182496D01*
X74464206Y-90182491D01*
X74597263Y-90100105D01*
X74153176Y-89656018D01*
X74243100Y-89614952D01*
X74351761Y-89520798D01*
X74429493Y-89399844D01*
X74437027Y-89374185D01*
X74879897Y-89817055D01*
X74879898Y-89817054D01*
X74912660Y-89773672D01*
X75003859Y-89590519D01*
X75003861Y-89590514D01*
X75059851Y-89393730D01*
X75078729Y-89190000D01*
X75059851Y-88986269D01*
X75003861Y-88789485D01*
X75003859Y-88789480D01*
X74912661Y-88606330D01*
X74879897Y-88562944D01*
X74437027Y-89005814D01*
X74429493Y-88980156D01*
X74351761Y-88859202D01*
X74243100Y-88765048D01*
X74153175Y-88723980D01*
X74597263Y-88279893D01*
X74464203Y-88197506D01*
X74464197Y-88197503D01*
X74273422Y-88123596D01*
X74273423Y-88123596D01*
X74072299Y-88086000D01*
X73867701Y-88086000D01*
X73666576Y-88123596D01*
X73475803Y-88197503D01*
X73475796Y-88197506D01*
X73342735Y-88279893D01*
X73786823Y-88723981D01*
X73696900Y-88765048D01*
X73588239Y-88859202D01*
X73510507Y-88980156D01*
X73502972Y-89005814D01*
X73060102Y-88562944D01*
X73060101Y-88562944D01*
X73027337Y-88606332D01*
X73027335Y-88606334D01*
X72936143Y-88789471D01*
X72936138Y-88789485D01*
X72880148Y-88986269D01*
X72861270Y-89190000D01*
X72539232Y-89190000D01*
X72539232Y-89189995D01*
X72520345Y-88986180D01*
X72484217Y-88859202D01*
X72464328Y-88789299D01*
X72373088Y-88606065D01*
X72332538Y-88552368D01*
X72249733Y-88442715D01*
X72098463Y-88304814D01*
X71924433Y-88197059D01*
X71924428Y-88197057D01*
X71924427Y-88197056D01*
X71924422Y-88197054D01*
X71733559Y-88123113D01*
X71733560Y-88123113D01*
X71733557Y-88123112D01*
X71733556Y-88123112D01*
X71532347Y-88085500D01*
X71327653Y-88085500D01*
X71141546Y-88120289D01*
X71126439Y-88123113D01*
X70935577Y-88197054D01*
X70935566Y-88197059D01*
X70761536Y-88304814D01*
X70610266Y-88442715D01*
X70486913Y-88606063D01*
X70395671Y-88789301D01*
X70339654Y-88986180D01*
X70320768Y-89189995D01*
X70320768Y-89190004D01*
X63674500Y-89190004D01*
X63674500Y-86650004D01*
X70320768Y-86650004D01*
X70339654Y-86853819D01*
X70368335Y-86954621D01*
X70395672Y-87050701D01*
X70486912Y-87233935D01*
X70486913Y-87233936D01*
X70610266Y-87397284D01*
X70761536Y-87535185D01*
X70935566Y-87642940D01*
X70935568Y-87642940D01*
X70935573Y-87642944D01*
X71126444Y-87716888D01*
X71327653Y-87754500D01*
X71327655Y-87754500D01*
X71532345Y-87754500D01*
X71532347Y-87754500D01*
X71733556Y-87716888D01*
X71924427Y-87642944D01*
X72098462Y-87535186D01*
X72249732Y-87397285D01*
X72373088Y-87233935D01*
X72464328Y-87050701D01*
X72520345Y-86853821D01*
X72530642Y-86742696D01*
X72539232Y-86650004D01*
X72539232Y-86650000D01*
X72861270Y-86650000D01*
X72880148Y-86853730D01*
X72936138Y-87050514D01*
X72936140Y-87050519D01*
X73027340Y-87233672D01*
X73060100Y-87277054D01*
X73060101Y-87277054D01*
X73502972Y-86834183D01*
X73510507Y-86859844D01*
X73588239Y-86980798D01*
X73696900Y-87074952D01*
X73786823Y-87116018D01*
X73342736Y-87560105D01*
X73475793Y-87642491D01*
X73475802Y-87642496D01*
X73666577Y-87716403D01*
X73666576Y-87716403D01*
X73867701Y-87754000D01*
X74072299Y-87754000D01*
X74273423Y-87716403D01*
X74464197Y-87642496D01*
X74464206Y-87642491D01*
X74597263Y-87560105D01*
X74597161Y-87560003D01*
X77366271Y-87560003D01*
X77387079Y-87704727D01*
X77387081Y-87704734D01*
X77447824Y-87837743D01*
X77543579Y-87948250D01*
X77666589Y-88027304D01*
X77786039Y-88062378D01*
X77806885Y-88068499D01*
X77806886Y-88068499D01*
X77806889Y-88068500D01*
X77806892Y-88068500D01*
X77815809Y-88069782D01*
X77815329Y-88073113D01*
X77867737Y-88088502D01*
X77888711Y-88105405D01*
X77903595Y-88120289D01*
X77937621Y-88182601D01*
X77940500Y-88209384D01*
X77940500Y-89284470D01*
X77920498Y-89352591D01*
X77909725Y-89366981D01*
X77887827Y-89392253D01*
X77887824Y-89392257D01*
X77827081Y-89525266D01*
X77827079Y-89525272D01*
X77806271Y-89669996D01*
X77806271Y-89670003D01*
X77827079Y-89814727D01*
X77827081Y-89814734D01*
X77887824Y-89947743D01*
X77983579Y-90058250D01*
X78106589Y-90137304D01*
X78226039Y-90172378D01*
X78246885Y-90178499D01*
X78246886Y-90178499D01*
X78246889Y-90178500D01*
X78246892Y-90178500D01*
X78393108Y-90178500D01*
X78393111Y-90178500D01*
X78533411Y-90137304D01*
X78656421Y-90058250D01*
X78752176Y-89947743D01*
X78812919Y-89814734D01*
X78818823Y-89773672D01*
X78833729Y-89670003D01*
X78833729Y-89669996D01*
X78812920Y-89525272D01*
X78812919Y-89525271D01*
X78812919Y-89525266D01*
X78752176Y-89392257D01*
X78741310Y-89379717D01*
X78730275Y-89366981D01*
X78700782Y-89302400D01*
X78699500Y-89284470D01*
X78699500Y-88052426D01*
X78702182Y-88026566D01*
X78704419Y-88015900D01*
X78699983Y-87980317D01*
X78699500Y-87972525D01*
X78699500Y-87968556D01*
X78695616Y-87945284D01*
X78688752Y-87890219D01*
X78688752Y-87890217D01*
X78688750Y-87890213D01*
X78686487Y-87882611D01*
X78683900Y-87875078D01*
X78683900Y-87875073D01*
X78673068Y-87855058D01*
X78657502Y-87826293D01*
X78633125Y-87776430D01*
X78628521Y-87769982D01*
X78623621Y-87763686D01*
X78582813Y-87726119D01*
X78533996Y-87677302D01*
X78419524Y-87562830D01*
X78385501Y-87500521D01*
X78383907Y-87491690D01*
X78372919Y-87415266D01*
X78312176Y-87282257D01*
X78216421Y-87171750D01*
X78216420Y-87171749D01*
X78154916Y-87132223D01*
X78093411Y-87092696D01*
X78058336Y-87082397D01*
X77953114Y-87051500D01*
X77953111Y-87051500D01*
X77806889Y-87051500D01*
X77806885Y-87051500D01*
X77666589Y-87092696D01*
X77666587Y-87092697D01*
X77543579Y-87171749D01*
X77447824Y-87282256D01*
X77387081Y-87415265D01*
X77387079Y-87415272D01*
X77366271Y-87559996D01*
X77366271Y-87560003D01*
X74597161Y-87560003D01*
X74153176Y-87116018D01*
X74243100Y-87074952D01*
X74351761Y-86980798D01*
X74429493Y-86859844D01*
X74437027Y-86834185D01*
X74879897Y-87277055D01*
X74879898Y-87277054D01*
X74912660Y-87233672D01*
X75003859Y-87050519D01*
X75003861Y-87050514D01*
X75059851Y-86853730D01*
X75078729Y-86650000D01*
X75059851Y-86446269D01*
X75003861Y-86249485D01*
X75003859Y-86249480D01*
X74912661Y-86066330D01*
X74879897Y-86022944D01*
X74437027Y-86465814D01*
X74429493Y-86440156D01*
X74351761Y-86319202D01*
X74243100Y-86225048D01*
X74153175Y-86183980D01*
X74597263Y-85739893D01*
X74464203Y-85657506D01*
X74464197Y-85657503D01*
X74273422Y-85583596D01*
X74273423Y-85583596D01*
X74072299Y-85546000D01*
X73867701Y-85546000D01*
X73666576Y-85583596D01*
X73475803Y-85657503D01*
X73475796Y-85657506D01*
X73342735Y-85739893D01*
X73786823Y-86183981D01*
X73696900Y-86225048D01*
X73588239Y-86319202D01*
X73510507Y-86440156D01*
X73502972Y-86465814D01*
X73060102Y-86022944D01*
X73060101Y-86022944D01*
X73027337Y-86066332D01*
X73027335Y-86066334D01*
X72936143Y-86249471D01*
X72936138Y-86249485D01*
X72880148Y-86446269D01*
X72861270Y-86650000D01*
X72539232Y-86650000D01*
X72539232Y-86649995D01*
X72520345Y-86446180D01*
X72484217Y-86319202D01*
X72464328Y-86249299D01*
X72373088Y-86066065D01*
X72332538Y-86012368D01*
X72249733Y-85902715D01*
X72098463Y-85764814D01*
X71924433Y-85657059D01*
X71924428Y-85657057D01*
X71924427Y-85657056D01*
X71924422Y-85657054D01*
X71733559Y-85583113D01*
X71733560Y-85583113D01*
X71733557Y-85583112D01*
X71733556Y-85583112D01*
X71532347Y-85545500D01*
X71327653Y-85545500D01*
X71126444Y-85583112D01*
X71126439Y-85583113D01*
X70935577Y-85657054D01*
X70935566Y-85657059D01*
X70761536Y-85764814D01*
X70610266Y-85902715D01*
X70486913Y-86066063D01*
X70395671Y-86249301D01*
X70339654Y-86446180D01*
X70320768Y-86649995D01*
X70320768Y-86650004D01*
X63674500Y-86650004D01*
X63674500Y-84110004D01*
X70320768Y-84110004D01*
X70339654Y-84313819D01*
X70375783Y-84440798D01*
X70395672Y-84510701D01*
X70486912Y-84693935D01*
X70486913Y-84693936D01*
X70610266Y-84857284D01*
X70761536Y-84995185D01*
X70935566Y-85102940D01*
X70935568Y-85102940D01*
X70935573Y-85102944D01*
X71126444Y-85176888D01*
X71327653Y-85214500D01*
X71327655Y-85214500D01*
X71532345Y-85214500D01*
X71532347Y-85214500D01*
X71733556Y-85176888D01*
X71924427Y-85102944D01*
X72098462Y-84995186D01*
X72249732Y-84857285D01*
X72373088Y-84693935D01*
X72464328Y-84510701D01*
X72520345Y-84313821D01*
X72526640Y-84245880D01*
X72539232Y-84110004D01*
X72539232Y-84110000D01*
X72861270Y-84110000D01*
X72880148Y-84313730D01*
X72936138Y-84510514D01*
X72936140Y-84510519D01*
X73027340Y-84693672D01*
X73060100Y-84737054D01*
X73060101Y-84737054D01*
X73502972Y-84294183D01*
X73510507Y-84319844D01*
X73588239Y-84440798D01*
X73696900Y-84534952D01*
X73786823Y-84576018D01*
X73342736Y-85020105D01*
X73475793Y-85102491D01*
X73475802Y-85102496D01*
X73666577Y-85176403D01*
X73666576Y-85176403D01*
X73867701Y-85214000D01*
X74072299Y-85214000D01*
X74273423Y-85176403D01*
X74464197Y-85102496D01*
X74464206Y-85102491D01*
X74597263Y-85020105D01*
X74153176Y-84576018D01*
X74243100Y-84534952D01*
X74351761Y-84440798D01*
X74429493Y-84319844D01*
X74437027Y-84294185D01*
X74879897Y-84737055D01*
X74879898Y-84737054D01*
X74912660Y-84693672D01*
X75003859Y-84510519D01*
X75003861Y-84510514D01*
X75059851Y-84313730D01*
X75078729Y-84110000D01*
X75059851Y-83906269D01*
X75003861Y-83709485D01*
X75003859Y-83709480D01*
X74912661Y-83526330D01*
X74879897Y-83482944D01*
X74437027Y-83925814D01*
X74429493Y-83900156D01*
X74351761Y-83779202D01*
X74243100Y-83685048D01*
X74153175Y-83643980D01*
X74597263Y-83199893D01*
X74464203Y-83117506D01*
X74464197Y-83117503D01*
X74273422Y-83043596D01*
X74273423Y-83043596D01*
X74072299Y-83006000D01*
X73867701Y-83006000D01*
X73666576Y-83043596D01*
X73475803Y-83117503D01*
X73475796Y-83117506D01*
X73342735Y-83199893D01*
X73786823Y-83643981D01*
X73696900Y-83685048D01*
X73588239Y-83779202D01*
X73510507Y-83900156D01*
X73502972Y-83925814D01*
X73060102Y-83482944D01*
X73060101Y-83482944D01*
X73027337Y-83526332D01*
X73027335Y-83526334D01*
X72936143Y-83709471D01*
X72936138Y-83709485D01*
X72880148Y-83906269D01*
X72861270Y-84110000D01*
X72539232Y-84110000D01*
X72539232Y-84109995D01*
X72520345Y-83906180D01*
X72484217Y-83779202D01*
X72464328Y-83709299D01*
X72373088Y-83526065D01*
X72332538Y-83472368D01*
X72249733Y-83362715D01*
X72098463Y-83224814D01*
X71924433Y-83117059D01*
X71924428Y-83117057D01*
X71924427Y-83117056D01*
X71924422Y-83117054D01*
X71733559Y-83043113D01*
X71733560Y-83043113D01*
X71733557Y-83043112D01*
X71733556Y-83043112D01*
X71532347Y-83005500D01*
X71327653Y-83005500D01*
X71126444Y-83043112D01*
X71126439Y-83043113D01*
X70935577Y-83117054D01*
X70935566Y-83117059D01*
X70761536Y-83224814D01*
X70610266Y-83362715D01*
X70486913Y-83526063D01*
X70395671Y-83709301D01*
X70339654Y-83906180D01*
X70320768Y-84109995D01*
X70320768Y-84110004D01*
X63674500Y-84110004D01*
X63674500Y-82218246D01*
X70325500Y-82218246D01*
X70325502Y-82218270D01*
X70331959Y-82278339D01*
X70331959Y-82278341D01*
X70382657Y-82414266D01*
X70382658Y-82414267D01*
X70469596Y-82530404D01*
X70585733Y-82617342D01*
X70721658Y-82668040D01*
X70781745Y-82674500D01*
X72078254Y-82674499D01*
X72138342Y-82668040D01*
X72274267Y-82617342D01*
X72390404Y-82530404D01*
X72477342Y-82414267D01*
X72528040Y-82278342D01*
X72534500Y-82218255D01*
X72534500Y-81570004D01*
X72860768Y-81570004D01*
X72879654Y-81773819D01*
X72933285Y-81962311D01*
X72935672Y-81970701D01*
X73026912Y-82153935D01*
X73026913Y-82153936D01*
X73150266Y-82317284D01*
X73301536Y-82455185D01*
X73475566Y-82562940D01*
X73475568Y-82562940D01*
X73475573Y-82562944D01*
X73666444Y-82636888D01*
X73867653Y-82674500D01*
X73867655Y-82674500D01*
X74072345Y-82674500D01*
X74072347Y-82674500D01*
X74273556Y-82636888D01*
X74464427Y-82562944D01*
X74638462Y-82455186D01*
X74789732Y-82317285D01*
X74913088Y-82153935D01*
X75004328Y-81970701D01*
X75060345Y-81773821D01*
X75071380Y-81654734D01*
X75079232Y-81570004D01*
X75079232Y-81569995D01*
X75073672Y-81510000D01*
X80476271Y-81510000D01*
X80480217Y-81537442D01*
X80481500Y-81555376D01*
X80481500Y-81583111D01*
X80481501Y-81583114D01*
X80489314Y-81609725D01*
X80493134Y-81627287D01*
X80497080Y-81654731D01*
X80497081Y-81654734D01*
X80508602Y-81679964D01*
X80514881Y-81696801D01*
X80522693Y-81723406D01*
X80522694Y-81723407D01*
X80522695Y-81723409D01*
X80522696Y-81723411D01*
X80537689Y-81746741D01*
X80546301Y-81762513D01*
X80557824Y-81787743D01*
X80575984Y-81808701D01*
X80586756Y-81823090D01*
X80601750Y-81846421D01*
X80622713Y-81864586D01*
X80635412Y-81877285D01*
X80653579Y-81898250D01*
X80653581Y-81898251D01*
X80676908Y-81913243D01*
X80691299Y-81924016D01*
X80712255Y-81942175D01*
X80712256Y-81942175D01*
X80712257Y-81942176D01*
X80737480Y-81953695D01*
X80753259Y-81962311D01*
X80776589Y-81977304D01*
X80803201Y-81985118D01*
X80820035Y-81991396D01*
X80845266Y-82002919D01*
X80845267Y-82002919D01*
X80845270Y-82002920D01*
X80866857Y-82006022D01*
X80872710Y-82006864D01*
X80890280Y-82010686D01*
X80916889Y-82018500D01*
X80953632Y-82018500D01*
X81277182Y-82018500D01*
X81345303Y-82038502D01*
X81366277Y-82055405D01*
X84424595Y-85113722D01*
X84458621Y-85176034D01*
X84461500Y-85202817D01*
X84461500Y-90767182D01*
X84441498Y-90835303D01*
X84424595Y-90856277D01*
X84256277Y-91024595D01*
X84193965Y-91058621D01*
X84167182Y-91061500D01*
X84156889Y-91061500D01*
X84130274Y-91069314D01*
X84112713Y-91073134D01*
X84085267Y-91077080D01*
X84085266Y-91077080D01*
X84060034Y-91088602D01*
X84043206Y-91094879D01*
X84016585Y-91102697D01*
X84016583Y-91102698D01*
X83993252Y-91117691D01*
X83977485Y-91126301D01*
X83952259Y-91137822D01*
X83931291Y-91155990D01*
X83916907Y-91166757D01*
X83893579Y-91181749D01*
X83893576Y-91181751D01*
X83875415Y-91202710D01*
X83862710Y-91215415D01*
X83841751Y-91233576D01*
X83841749Y-91233579D01*
X83826757Y-91256907D01*
X83815990Y-91271291D01*
X83797822Y-91292259D01*
X83786301Y-91317485D01*
X83777691Y-91333252D01*
X83762698Y-91356583D01*
X83762697Y-91356585D01*
X83754879Y-91383206D01*
X83748602Y-91400034D01*
X83737080Y-91425266D01*
X83737080Y-91425267D01*
X83733134Y-91452713D01*
X83729314Y-91470274D01*
X83721500Y-91496888D01*
X83721500Y-91524622D01*
X83720217Y-91542555D01*
X83716271Y-91569998D01*
X83716271Y-91570000D01*
X83720217Y-91597442D01*
X83721500Y-91615376D01*
X83721500Y-91643111D01*
X83721501Y-91643114D01*
X83729314Y-91669725D01*
X83733134Y-91687287D01*
X83737080Y-91714731D01*
X83737081Y-91714734D01*
X83748602Y-91739964D01*
X83754881Y-91756801D01*
X83762693Y-91783406D01*
X83762694Y-91783407D01*
X83762695Y-91783409D01*
X83762696Y-91783411D01*
X83774571Y-91801889D01*
X83777689Y-91806741D01*
X83786301Y-91822513D01*
X83797824Y-91847743D01*
X83815984Y-91868701D01*
X83826756Y-91883090D01*
X83841750Y-91906421D01*
X83862713Y-91924586D01*
X83875412Y-91937285D01*
X83893579Y-91958250D01*
X83893581Y-91958251D01*
X83916908Y-91973243D01*
X83931299Y-91984016D01*
X83952255Y-92002175D01*
X83952256Y-92002175D01*
X83952257Y-92002176D01*
X83969030Y-92009836D01*
X83977480Y-92013695D01*
X83993259Y-92022311D01*
X84016589Y-92037304D01*
X84043201Y-92045118D01*
X84060035Y-92051396D01*
X84085266Y-92062919D01*
X84085267Y-92062919D01*
X84085270Y-92062920D01*
X84103519Y-92065543D01*
X84112710Y-92066864D01*
X84130280Y-92070686D01*
X84156889Y-92078500D01*
X84193632Y-92078500D01*
X84361784Y-92078500D01*
X84388565Y-92081378D01*
X84393351Y-92082420D01*
X84393351Y-92082419D01*
X84393352Y-92082420D01*
X84445917Y-92078661D01*
X84450413Y-92078500D01*
X84466366Y-92078500D01*
X84466368Y-92078500D01*
X84482192Y-92076224D01*
X84486615Y-92075749D01*
X84539201Y-92071989D01*
X84543794Y-92070275D01*
X84569893Y-92063614D01*
X84574734Y-92062919D01*
X84622683Y-92041020D01*
X84626800Y-92039315D01*
X84676204Y-92020889D01*
X84680117Y-92017958D01*
X84703299Y-92004204D01*
X84707743Y-92002176D01*
X84747585Y-91967650D01*
X84751055Y-91964855D01*
X84763848Y-91955280D01*
X84775141Y-91943985D01*
X84778418Y-91940934D01*
X84818250Y-91906421D01*
X84820894Y-91902305D01*
X84837795Y-91881331D01*
X85281331Y-91437795D01*
X85302305Y-91420894D01*
X85306421Y-91418250D01*
X85340934Y-91378418D01*
X85343987Y-91375140D01*
X85355280Y-91363848D01*
X85364855Y-91351055D01*
X85367650Y-91347585D01*
X85402176Y-91307743D01*
X85404208Y-91303292D01*
X85417957Y-91280120D01*
X85420889Y-91276204D01*
X85439306Y-91226820D01*
X85441011Y-91222702D01*
X85462919Y-91174734D01*
X85463615Y-91169890D01*
X85470280Y-91143779D01*
X85471988Y-91139201D01*
X85475158Y-91094879D01*
X85475748Y-91086634D01*
X85476227Y-91082172D01*
X85478500Y-91066368D01*
X85478500Y-91050408D01*
X85478661Y-91045912D01*
X85482420Y-90993352D01*
X85481378Y-90988563D01*
X85478500Y-90961784D01*
X85478500Y-85008216D01*
X85481379Y-84981434D01*
X85482420Y-84976649D01*
X85478661Y-84924083D01*
X85478500Y-84919587D01*
X85478500Y-84903632D01*
X85476230Y-84887847D01*
X85475749Y-84883371D01*
X85471989Y-84830801D01*
X85471989Y-84830800D01*
X85470277Y-84826211D01*
X85463615Y-84800108D01*
X85462919Y-84795266D01*
X85462916Y-84795259D01*
X85441028Y-84747329D01*
X85439306Y-84743173D01*
X85420890Y-84693798D01*
X85417952Y-84689873D01*
X85404209Y-84666709D01*
X85402176Y-84662257D01*
X85367659Y-84622422D01*
X85364838Y-84618921D01*
X85355280Y-84606153D01*
X85343990Y-84594863D01*
X85340939Y-84591585D01*
X85306421Y-84551750D01*
X85302296Y-84549099D01*
X85281324Y-84532197D01*
X81947800Y-81198672D01*
X81930897Y-81177697D01*
X81928251Y-81173580D01*
X81928250Y-81173579D01*
X81888418Y-81139065D01*
X81885140Y-81136012D01*
X81873848Y-81124720D01*
X81873847Y-81124719D01*
X81873845Y-81124717D01*
X81861067Y-81115152D01*
X81857564Y-81112329D01*
X81817743Y-81077824D01*
X81817740Y-81077822D01*
X81813286Y-81075788D01*
X81790128Y-81062048D01*
X81786206Y-81059112D01*
X81786202Y-81059110D01*
X81736819Y-81040690D01*
X81732665Y-81038969D01*
X81684738Y-81017082D01*
X81684724Y-81017078D01*
X81679876Y-81016381D01*
X81653801Y-81009726D01*
X81649204Y-81008011D01*
X81649199Y-81008010D01*
X81596627Y-81004249D01*
X81592160Y-81003769D01*
X81576370Y-81001500D01*
X81576368Y-81001500D01*
X81560413Y-81001500D01*
X81555917Y-81001339D01*
X81503352Y-80997579D01*
X81503351Y-80997580D01*
X81498566Y-80998621D01*
X81471784Y-81001500D01*
X80916889Y-81001500D01*
X80890274Y-81009314D01*
X80872713Y-81013134D01*
X80845267Y-81017080D01*
X80845266Y-81017080D01*
X80820034Y-81028602D01*
X80803206Y-81034879D01*
X80776585Y-81042697D01*
X80776583Y-81042698D01*
X80753252Y-81057691D01*
X80737485Y-81066301D01*
X80712259Y-81077822D01*
X80691291Y-81095990D01*
X80676907Y-81106757D01*
X80653579Y-81121749D01*
X80653576Y-81121751D01*
X80635415Y-81142710D01*
X80622710Y-81155415D01*
X80601751Y-81173576D01*
X80601749Y-81173579D01*
X80586757Y-81196907D01*
X80575990Y-81211291D01*
X80557822Y-81232259D01*
X80546301Y-81257485D01*
X80537691Y-81273252D01*
X80522698Y-81296583D01*
X80522697Y-81296585D01*
X80514879Y-81323206D01*
X80508602Y-81340034D01*
X80497080Y-81365266D01*
X80497080Y-81365267D01*
X80493134Y-81392713D01*
X80489314Y-81410274D01*
X80481500Y-81436888D01*
X80481500Y-81464622D01*
X80480217Y-81482555D01*
X80476271Y-81509998D01*
X80476271Y-81510000D01*
X75073672Y-81510000D01*
X75060345Y-81366180D01*
X75060345Y-81366179D01*
X75004328Y-81169299D01*
X74913088Y-80986065D01*
X74819142Y-80861660D01*
X74789733Y-80822715D01*
X74638463Y-80684814D01*
X74464433Y-80577059D01*
X74464428Y-80577057D01*
X74464427Y-80577056D01*
X74324010Y-80522658D01*
X74273559Y-80503113D01*
X74273560Y-80503113D01*
X74273557Y-80503112D01*
X74273556Y-80503112D01*
X74072347Y-80465500D01*
X73867653Y-80465500D01*
X73666444Y-80503112D01*
X73666439Y-80503113D01*
X73475577Y-80577054D01*
X73475566Y-80577059D01*
X73301536Y-80684814D01*
X73150266Y-80822715D01*
X73026913Y-80986063D01*
X72935671Y-81169301D01*
X72879654Y-81366180D01*
X72860768Y-81569995D01*
X72860768Y-81570004D01*
X72534500Y-81570004D01*
X72534499Y-80921746D01*
X72528040Y-80861658D01*
X72477342Y-80725733D01*
X72390404Y-80609596D01*
X72274267Y-80522658D01*
X72274265Y-80522657D01*
X72274266Y-80522657D01*
X72138349Y-80471962D01*
X72138344Y-80471960D01*
X72138342Y-80471960D01*
X72108298Y-80468730D01*
X72078256Y-80465500D01*
X70781753Y-80465500D01*
X70781729Y-80465502D01*
X70721660Y-80471959D01*
X70721658Y-80471959D01*
X70585733Y-80522657D01*
X70469596Y-80609596D01*
X70382657Y-80725734D01*
X70331962Y-80861650D01*
X70331960Y-80861658D01*
X70325500Y-80921737D01*
X70325500Y-82218246D01*
X63674500Y-82218246D01*
X63674500Y-79210001D01*
X82670465Y-79210001D01*
X82690584Y-79542622D01*
X82690585Y-79542625D01*
X82750651Y-79870397D01*
X82849792Y-80188552D01*
X82986547Y-80492409D01*
X82986550Y-80492415D01*
X82986552Y-80492419D01*
X82986553Y-80492420D01*
X83158947Y-80777595D01*
X83360516Y-81034879D01*
X83364459Y-81039911D01*
X83364464Y-81039917D01*
X83600082Y-81275535D01*
X83600088Y-81275540D01*
X83600090Y-81275542D01*
X83862405Y-81481053D01*
X84147580Y-81653447D01*
X84147582Y-81653448D01*
X84147584Y-81653449D01*
X84147590Y-81653452D01*
X84451447Y-81790207D01*
X84451451Y-81790208D01*
X84451455Y-81790210D01*
X84769600Y-81889348D01*
X85097375Y-81949415D01*
X85310572Y-81962311D01*
X85429999Y-81969535D01*
X85430000Y-81969535D01*
X85430001Y-81969535D01*
X85513156Y-81964505D01*
X85762625Y-81949415D01*
X86090400Y-81889348D01*
X86408545Y-81790210D01*
X86414027Y-81787743D01*
X86712409Y-81653452D01*
X86712409Y-81653451D01*
X86712420Y-81653447D01*
X86997595Y-81481053D01*
X87259910Y-81275542D01*
X87495542Y-81039910D01*
X87701053Y-80777595D01*
X87873447Y-80492420D01*
X88010210Y-80188545D01*
X88109348Y-79870400D01*
X88169415Y-79542625D01*
X88189535Y-79210000D01*
X88169415Y-78877375D01*
X88109348Y-78549600D01*
X88010210Y-78231455D01*
X88010208Y-78231451D01*
X88010207Y-78231447D01*
X87873452Y-77927590D01*
X87873449Y-77927584D01*
X87701053Y-77642405D01*
X87495542Y-77380090D01*
X87495540Y-77380088D01*
X87495535Y-77380082D01*
X87259917Y-77144464D01*
X87259911Y-77144459D01*
X87206123Y-77102319D01*
X86997595Y-76938947D01*
X86997596Y-76938947D01*
X86997594Y-76938946D01*
X86712415Y-76766550D01*
X86712409Y-76766547D01*
X86408552Y-76629792D01*
X86090397Y-76530651D01*
X85762625Y-76470585D01*
X85762622Y-76470584D01*
X85430001Y-76450465D01*
X85429999Y-76450465D01*
X85097377Y-76470584D01*
X85097374Y-76470585D01*
X84769602Y-76530651D01*
X84451447Y-76629792D01*
X84147590Y-76766547D01*
X84147584Y-76766550D01*
X83862405Y-76938946D01*
X83600088Y-77144459D01*
X83600082Y-77144464D01*
X83364464Y-77380082D01*
X83364459Y-77380088D01*
X83158946Y-77642405D01*
X82986550Y-77927584D01*
X82986547Y-77927590D01*
X82849792Y-78231447D01*
X82750651Y-78549602D01*
X82690585Y-78877374D01*
X82690584Y-78877377D01*
X82670465Y-79209998D01*
X82670465Y-79210001D01*
X63674500Y-79210001D01*
X63674500Y-77457608D01*
X63694502Y-77389487D01*
X63711405Y-77368513D01*
X64878513Y-76201405D01*
X64940825Y-76167379D01*
X64967608Y-76164500D01*
X65764933Y-76164500D01*
X85844933Y-76164500D01*
X87502392Y-76164500D01*
X87570513Y-76184502D01*
G37*
G04 #@! TD.AperFunction*
M02*
