G04 #@! TF.GenerationSoftware,KiCad,Pcbnew,7.0.9*
G04 #@! TF.CreationDate,2024-12-26T17:05:42+08:00*
G04 #@! TF.ProjectId,Debug Adapter board,44656275-6720-4416-9461-707465722062,rev?*
G04 #@! TF.SameCoordinates,Original*
G04 #@! TF.FileFunction,Soldermask,Top*
G04 #@! TF.FilePolarity,Negative*
%FSLAX46Y46*%
G04 Gerber Fmt 4.6, Leading zero omitted, Abs format (unit mm)*
G04 Created by KiCad (PCBNEW 7.0.9) date 2024-12-26 17:05:42*
%MOMM*%
%LPD*%
G01*
G04 APERTURE LIST*
G04 Aperture macros list*
%AMRoundRect*
0 Rectangle with rounded corners*
0 $1 Rounding radius*
0 $2 $3 $4 $5 $6 $7 $8 $9 X,Y pos of 4 corners*
0 Add a 4 corners polygon primitive as box body*
4,1,4,$2,$3,$4,$5,$6,$7,$8,$9,$2,$3,0*
0 Add four circle primitives for the rounded corners*
1,1,$1+$1,$2,$3*
1,1,$1+$1,$4,$5*
1,1,$1+$1,$6,$7*
1,1,$1+$1,$8,$9*
0 Add four rect primitives between the rounded corners*
20,1,$1+$1,$2,$3,$4,$5,0*
20,1,$1+$1,$4,$5,$6,$7,0*
20,1,$1+$1,$6,$7,$8,$9,0*
20,1,$1+$1,$8,$9,$2,$3,0*%
G04 Aperture macros list end*
%ADD10RoundRect,0.147500X0.147500X0.172500X-0.147500X0.172500X-0.147500X-0.172500X0.147500X-0.172500X0*%
%ADD11C,0.600000*%
%ADD12RoundRect,0.250000X-0.600000X-0.600000X0.600000X-0.600000X0.600000X0.600000X-0.600000X0.600000X0*%
%ADD13C,1.700000*%
%ADD14RoundRect,0.135000X-0.135000X-0.185000X0.135000X-0.185000X0.135000X0.185000X-0.135000X0.185000X0*%
%ADD15R,1.700000X1.700000*%
%ADD16O,1.700000X1.700000*%
%ADD17RoundRect,0.135000X0.185000X-0.135000X0.185000X0.135000X-0.185000X0.135000X-0.185000X-0.135000X0*%
%ADD18RoundRect,0.135000X0.135000X0.185000X-0.135000X0.185000X-0.135000X-0.185000X0.135000X-0.185000X0*%
%ADD19RoundRect,0.135000X-0.185000X0.135000X-0.185000X-0.135000X0.185000X-0.135000X0.185000X0.135000X0*%
%ADD20C,5.000000*%
%ADD21RoundRect,0.050800X0.325100X-0.149850X0.325100X0.149850X-0.325100X0.149850X-0.325100X-0.149850X0*%
%ADD22RoundRect,0.050800X0.325100X-0.139700X0.325100X0.139700X-0.325100X0.139700X-0.325100X-0.139700X0*%
%ADD23RoundRect,0.050800X0.699750X-0.250200X0.699750X0.250200X-0.699750X0.250200X-0.699750X-0.250200X0*%
%ADD24RoundRect,0.147500X-0.172500X0.147500X-0.172500X-0.147500X0.172500X-0.147500X0.172500X0.147500X0*%
G04 APERTURE END LIST*
D10*
X66885000Y-93010000D03*
X65915000Y-93010000D03*
D11*
X66840000Y-82400000D03*
X65880000Y-82400000D03*
D12*
X71430000Y-81570000D03*
D13*
X73970000Y-81570000D03*
X71430000Y-84110000D03*
X73970000Y-84110000D03*
X71430000Y-86650000D03*
X73970000Y-86650000D03*
X71430000Y-89190000D03*
X73970000Y-89190000D03*
X71430000Y-91730000D03*
X73970000Y-91730000D03*
X71430000Y-94270000D03*
X73970000Y-94270000D03*
X71430000Y-96810000D03*
X73970000Y-96810000D03*
X71430000Y-99350000D03*
X73970000Y-99350000D03*
X71430000Y-101890000D03*
X73970000Y-101890000D03*
X71430000Y-104430000D03*
X73970000Y-104430000D03*
D14*
X65880000Y-86760000D03*
X66900000Y-86760000D03*
D15*
X86790000Y-97370000D03*
D16*
X86790000Y-99910000D03*
X86790000Y-102450000D03*
X86790000Y-104990000D03*
D17*
X78470000Y-87560000D03*
X78470000Y-86540000D03*
D18*
X66900000Y-91930000D03*
X65880000Y-91930000D03*
D19*
X78200000Y-96790000D03*
X78200000Y-97810000D03*
X79500000Y-99590000D03*
X79500000Y-100610000D03*
D10*
X66875000Y-87840000D03*
X65905000Y-87840000D03*
X66937500Y-97250000D03*
X65967500Y-97250000D03*
D17*
X79890000Y-97800000D03*
X79890000Y-96780000D03*
D19*
X80750000Y-99590000D03*
X80750000Y-100610000D03*
D10*
X80167500Y-84180000D03*
X79197500Y-84180000D03*
D18*
X80180000Y-83020000D03*
X79160000Y-83020000D03*
D11*
X82460000Y-91610000D03*
X82460000Y-90650000D03*
D20*
X85430000Y-79210000D03*
D21*
X84878200Y-91456650D03*
X84880800Y-90956250D03*
X84880800Y-90455850D03*
X84880800Y-89955450D03*
X84880800Y-89455150D03*
X84880800Y-88954750D03*
D22*
X84878189Y-88456846D03*
D21*
X84880800Y-87956550D03*
X84880800Y-87456150D03*
X84880800Y-86955750D03*
D23*
X87690000Y-86054050D03*
X87690000Y-92353250D03*
D11*
X83530000Y-91590000D03*
X83530000Y-90630000D03*
D24*
X79500000Y-86542500D03*
X79500000Y-87512500D03*
D14*
X79180000Y-81480000D03*
X80200000Y-81480000D03*
M02*
