M48
; DRILL file {KiCad 7.0.9} date Thu Dec 26 17:05:47 2024
; FORMAT={-:-/ absolute / metric / decimal}
; #@! TF.CreationDate,2024-12-26T17:05:47+08:00
; #@! TF.GenerationSoftware,Kicad,Pcbnew,7.0.9
; #@! TF.FileFunction,Plated,1,2,PTH
FMAT,2
METRIC
; #@! TA.AperFunction,Plated,PTH,ViaDrill
T1C0.254
; #@! TA.AperFunction,Plated,PTH,ComponentDrill
T2C1.000
; #@! TA.AperFunction,Plated,PTH,ComponentDrill
T3C3.400
%
G90
G05
T1
X64.5Y-83.5
X64.5Y-85.0
X64.5Y-89.0
X64.5Y-90.5
X64.5Y-94.0
X64.5Y-95.5
X64.5Y-99.5
X64.5Y-101.0
X64.5Y-103.0
X64.5Y-104.5
X64.5Y-106.0
X64.5Y-107.5
X65.25Y-77.5
X65.25Y-79.0
X67.5Y-77.5
X67.5Y-79.0
X67.5Y-99.5
X67.5Y-101.0
X67.5Y-103.0
X67.5Y-106.0
X67.5Y-107.5
X69.0Y-83.5
X69.0Y-85.0
X69.0Y-88.0
X69.0Y-89.5
X69.0Y-93.0
X69.0Y-94.5
X71.0Y-77.5
X71.0Y-79.0
X71.0Y-107.5
X72.5Y-107.5
X73.0Y-77.5
X73.0Y-79.0
X75.0Y-77.5
X75.0Y-79.0
X75.5Y-107.5
X76.3Y-98.0
X76.55Y-82.25
X76.55Y-84.13
X76.55Y-96.8
X76.56Y-93.98
X76.58Y-92.46
X76.63Y-101.24
X77.0Y-107.5
X77.5Y-77.5
X77.5Y-79.0
X77.88Y-87.56
X78.28Y-84.14
X78.32Y-89.67
X78.9Y-101.2
X78.96Y-90.77
X79.0Y-92.5
X79.0Y-94.0
X79.582Y-91.3
X79.89Y-98.39
X80.15Y-90.47
X80.5Y-77.5
X80.5Y-79.0
X80.5Y-87.5
X80.5Y-103.0
X80.5Y-105.0
X80.5Y-107.5
X80.75Y-98.85
X80.99Y-81.51
X82.0Y-93.0
X82.0Y-95.5
X82.0Y-103.0
X82.0Y-105.0
X82.0Y-107.5
X82.46Y-89.99
X82.88Y-87.84
X83.0Y-84.5
X83.25Y-99.05
X83.42Y-87.21
X83.48Y-89.94
X84.23Y-91.57
X85.5Y-107.5
X86.0Y-84.0
X86.0Y-90.5
X86.0Y-94.5
X87.0Y-107.5
X87.5Y-94.5
X87.6Y-88.87
X87.75Y-82.5
X87.81Y-85.32
X87.85Y-91.78
T2
X71.43Y-81.57
X71.43Y-84.11
X71.43Y-86.65
X71.43Y-89.19
X71.43Y-91.73
X71.43Y-94.27
X71.43Y-96.81
X71.43Y-99.35
X71.43Y-101.89
X71.43Y-104.43
X73.97Y-81.57
X73.97Y-84.11
X73.97Y-86.65
X73.97Y-89.19
X73.97Y-91.73
X73.97Y-94.27
X73.97Y-96.81
X73.97Y-99.35
X73.97Y-101.89
X73.97Y-104.43
X86.79Y-97.37
X86.79Y-99.91
X86.79Y-102.45
X86.79Y-104.99
T3
X85.43Y-79.21
T0
M30
