G04 #@! TF.GenerationSoftware,KiCad,Pcbnew,7.0.9*
G04 #@! TF.CreationDate,2024-12-26T17:05:42+08:00*
G04 #@! TF.ProjectId,Debug Adapter board,44656275-6720-4416-9461-707465722062,rev?*
G04 #@! TF.SameCoordinates,Original*
G04 #@! TF.FileFunction,Legend,Top*
G04 #@! TF.FilePolarity,Positive*
%FSLAX46Y46*%
G04 Gerber Fmt 4.6, Leading zero omitted, Abs format (unit mm)*
G04 Created by KiCad (PCBNEW 7.0.9) date 2024-12-26 17:05:42*
%MOMM*%
%LPD*%
G01*
G04 APERTURE LIST*
%ADD10C,0.100000*%
%ADD11C,0.140000*%
%ADD12C,0.120000*%
%ADD13C,0.010000*%
%ADD14C,0.254000*%
G04 APERTURE END LIST*
D10*
X83640000Y-100539843D02*
X83406667Y-100182700D01*
X83240000Y-100539843D02*
X83240000Y-99789843D01*
X83240000Y-99789843D02*
X83506667Y-99789843D01*
X83506667Y-99789843D02*
X83573334Y-99825557D01*
X83573334Y-99825557D02*
X83606667Y-99861271D01*
X83606667Y-99861271D02*
X83640000Y-99932700D01*
X83640000Y-99932700D02*
X83640000Y-100039843D01*
X83640000Y-100039843D02*
X83606667Y-100111271D01*
X83606667Y-100111271D02*
X83573334Y-100146986D01*
X83573334Y-100146986D02*
X83506667Y-100182700D01*
X83506667Y-100182700D02*
X83240000Y-100182700D01*
X83873334Y-99789843D02*
X84340000Y-100539843D01*
X84340000Y-99789843D02*
X83873334Y-100539843D01*
X84606667Y-100539843D02*
X84606667Y-99789843D01*
X84606667Y-99789843D02*
X84773334Y-99789843D01*
X84773334Y-99789843D02*
X84873334Y-99825557D01*
X84873334Y-99825557D02*
X84940001Y-99896986D01*
X84940001Y-99896986D02*
X84973334Y-99968414D01*
X84973334Y-99968414D02*
X85006667Y-100111271D01*
X85006667Y-100111271D02*
X85006667Y-100218414D01*
X85006667Y-100218414D02*
X84973334Y-100361271D01*
X84973334Y-100361271D02*
X84940001Y-100432700D01*
X84940001Y-100432700D02*
X84873334Y-100504129D01*
X84873334Y-100504129D02*
X84773334Y-100539843D01*
X84773334Y-100539843D02*
X84606667Y-100539843D01*
X65840000Y-104021756D02*
X66240000Y-104021756D01*
X66040000Y-104771756D02*
X66040000Y-104021756D01*
X66406667Y-104021756D02*
X66873333Y-104771756D01*
X66873333Y-104021756D02*
X66406667Y-104771756D01*
X67140000Y-104771756D02*
X67140000Y-104021756D01*
X67140000Y-104021756D02*
X67306667Y-104021756D01*
X67306667Y-104021756D02*
X67406667Y-104057470D01*
X67406667Y-104057470D02*
X67473334Y-104128899D01*
X67473334Y-104128899D02*
X67506667Y-104200327D01*
X67506667Y-104200327D02*
X67540000Y-104343184D01*
X67540000Y-104343184D02*
X67540000Y-104450327D01*
X67540000Y-104450327D02*
X67506667Y-104593184D01*
X67506667Y-104593184D02*
X67473334Y-104664613D01*
X67473334Y-104664613D02*
X67406667Y-104736042D01*
X67406667Y-104736042D02*
X67306667Y-104771756D01*
X67306667Y-104771756D02*
X67140000Y-104771756D01*
X65806667Y-90471770D02*
X66206667Y-90471770D01*
X66006667Y-91221770D02*
X66006667Y-90471770D01*
X66840000Y-91150341D02*
X66806667Y-91186056D01*
X66806667Y-91186056D02*
X66706667Y-91221770D01*
X66706667Y-91221770D02*
X66640000Y-91221770D01*
X66640000Y-91221770D02*
X66540000Y-91186056D01*
X66540000Y-91186056D02*
X66473334Y-91114627D01*
X66473334Y-91114627D02*
X66440000Y-91043198D01*
X66440000Y-91043198D02*
X66406667Y-90900341D01*
X66406667Y-90900341D02*
X66406667Y-90793198D01*
X66406667Y-90793198D02*
X66440000Y-90650341D01*
X66440000Y-90650341D02*
X66473334Y-90578913D01*
X66473334Y-90578913D02*
X66540000Y-90507484D01*
X66540000Y-90507484D02*
X66640000Y-90471770D01*
X66640000Y-90471770D02*
X66706667Y-90471770D01*
X66706667Y-90471770D02*
X66806667Y-90507484D01*
X66806667Y-90507484D02*
X66840000Y-90543198D01*
X67140000Y-91221770D02*
X67140000Y-90471770D01*
X67540000Y-91221770D02*
X67240000Y-90793198D01*
X67540000Y-90471770D02*
X67140000Y-90900341D01*
X65740000Y-89031764D02*
X66140000Y-89031764D01*
X65940000Y-89781764D02*
X65940000Y-89031764D01*
X66373333Y-89781764D02*
X66373333Y-89031764D01*
X66373333Y-89031764D02*
X66606667Y-89567478D01*
X66606667Y-89567478D02*
X66840000Y-89031764D01*
X66840000Y-89031764D02*
X66840000Y-89781764D01*
X67140000Y-89746050D02*
X67240000Y-89781764D01*
X67240000Y-89781764D02*
X67406667Y-89781764D01*
X67406667Y-89781764D02*
X67473333Y-89746050D01*
X67473333Y-89746050D02*
X67506667Y-89710335D01*
X67506667Y-89710335D02*
X67540000Y-89638907D01*
X67540000Y-89638907D02*
X67540000Y-89567478D01*
X67540000Y-89567478D02*
X67506667Y-89496050D01*
X67506667Y-89496050D02*
X67473333Y-89460335D01*
X67473333Y-89460335D02*
X67406667Y-89424621D01*
X67406667Y-89424621D02*
X67273333Y-89388907D01*
X67273333Y-89388907D02*
X67206667Y-89353192D01*
X67206667Y-89353192D02*
X67173333Y-89317478D01*
X67173333Y-89317478D02*
X67140000Y-89246050D01*
X67140000Y-89246050D02*
X67140000Y-89174621D01*
X67140000Y-89174621D02*
X67173333Y-89103192D01*
X67173333Y-89103192D02*
X67206667Y-89067478D01*
X67206667Y-89067478D02*
X67273333Y-89031764D01*
X67273333Y-89031764D02*
X67440000Y-89031764D01*
X67440000Y-89031764D02*
X67540000Y-89067478D01*
X83606667Y-104881715D02*
X83540000Y-104846001D01*
X83540000Y-104846001D02*
X83440000Y-104846001D01*
X83440000Y-104846001D02*
X83340000Y-104881715D01*
X83340000Y-104881715D02*
X83273334Y-104953144D01*
X83273334Y-104953144D02*
X83240000Y-105024572D01*
X83240000Y-105024572D02*
X83206667Y-105167429D01*
X83206667Y-105167429D02*
X83206667Y-105274572D01*
X83206667Y-105274572D02*
X83240000Y-105417429D01*
X83240000Y-105417429D02*
X83273334Y-105488858D01*
X83273334Y-105488858D02*
X83340000Y-105560287D01*
X83340000Y-105560287D02*
X83440000Y-105596001D01*
X83440000Y-105596001D02*
X83506667Y-105596001D01*
X83506667Y-105596001D02*
X83606667Y-105560287D01*
X83606667Y-105560287D02*
X83640000Y-105524572D01*
X83640000Y-105524572D02*
X83640000Y-105274572D01*
X83640000Y-105274572D02*
X83506667Y-105274572D01*
X83940000Y-105596001D02*
X83940000Y-104846001D01*
X83940000Y-104846001D02*
X84340000Y-105596001D01*
X84340000Y-105596001D02*
X84340000Y-104846001D01*
X84673333Y-105596001D02*
X84673333Y-104846001D01*
X84673333Y-104846001D02*
X84840000Y-104846001D01*
X84840000Y-104846001D02*
X84940000Y-104881715D01*
X84940000Y-104881715D02*
X85006667Y-104953144D01*
X85006667Y-104953144D02*
X85040000Y-105024572D01*
X85040000Y-105024572D02*
X85073333Y-105167429D01*
X85073333Y-105167429D02*
X85073333Y-105274572D01*
X85073333Y-105274572D02*
X85040000Y-105417429D01*
X85040000Y-105417429D02*
X85006667Y-105488858D01*
X85006667Y-105488858D02*
X84940000Y-105560287D01*
X84940000Y-105560287D02*
X84840000Y-105596001D01*
X84840000Y-105596001D02*
X84673333Y-105596001D01*
D11*
X77448871Y-108899684D02*
X77542621Y-108149684D01*
X77542621Y-108149684D02*
X77709288Y-108149684D01*
X77709288Y-108149684D02*
X77804823Y-108185398D01*
X77804823Y-108185398D02*
X77862561Y-108256827D01*
X77862561Y-108256827D02*
X77886966Y-108328255D01*
X77886966Y-108328255D02*
X77902442Y-108471112D01*
X77902442Y-108471112D02*
X77889049Y-108578255D01*
X77889049Y-108578255D02*
X77837859Y-108721112D01*
X77837859Y-108721112D02*
X77795597Y-108792541D01*
X77795597Y-108792541D02*
X77720002Y-108863970D01*
X77720002Y-108863970D02*
X77615538Y-108899684D01*
X77615538Y-108899684D02*
X77448871Y-108899684D01*
X78420002Y-108863970D02*
X78348871Y-108899684D01*
X78348871Y-108899684D02*
X78215538Y-108899684D01*
X78215538Y-108899684D02*
X78153335Y-108863970D01*
X78153335Y-108863970D02*
X78128930Y-108792541D01*
X78128930Y-108792541D02*
X78164645Y-108506827D01*
X78164645Y-108506827D02*
X78206907Y-108435398D01*
X78206907Y-108435398D02*
X78278038Y-108399684D01*
X78278038Y-108399684D02*
X78411371Y-108399684D01*
X78411371Y-108399684D02*
X78473573Y-108435398D01*
X78473573Y-108435398D02*
X78497978Y-108506827D01*
X78497978Y-108506827D02*
X78489049Y-108578255D01*
X78489049Y-108578255D02*
X78146788Y-108649684D01*
X78748871Y-108899684D02*
X78842621Y-108149684D01*
X78806907Y-108435398D02*
X78878038Y-108399684D01*
X78878038Y-108399684D02*
X79011371Y-108399684D01*
X79011371Y-108399684D02*
X79073573Y-108435398D01*
X79073573Y-108435398D02*
X79102442Y-108471112D01*
X79102442Y-108471112D02*
X79126847Y-108542541D01*
X79126847Y-108542541D02*
X79100061Y-108756827D01*
X79100061Y-108756827D02*
X79057799Y-108828255D01*
X79057799Y-108828255D02*
X79020002Y-108863970D01*
X79020002Y-108863970D02*
X78948871Y-108899684D01*
X78948871Y-108899684D02*
X78815538Y-108899684D01*
X78815538Y-108899684D02*
X78753335Y-108863970D01*
X79744704Y-108399684D02*
X79682204Y-108899684D01*
X79444704Y-108399684D02*
X79395597Y-108792541D01*
X79395597Y-108792541D02*
X79420002Y-108863970D01*
X79420002Y-108863970D02*
X79482204Y-108899684D01*
X79482204Y-108899684D02*
X79582204Y-108899684D01*
X79582204Y-108899684D02*
X79653335Y-108863970D01*
X79653335Y-108863970D02*
X79691132Y-108828255D01*
X80378037Y-108399684D02*
X80302144Y-109006827D01*
X80302144Y-109006827D02*
X80259882Y-109078255D01*
X80259882Y-109078255D02*
X80222085Y-109113970D01*
X80222085Y-109113970D02*
X80150954Y-109149684D01*
X80150954Y-109149684D02*
X80050954Y-109149684D01*
X80050954Y-109149684D02*
X79988751Y-109113970D01*
X80320001Y-108863970D02*
X80248870Y-108899684D01*
X80248870Y-108899684D02*
X80115537Y-108899684D01*
X80115537Y-108899684D02*
X80053335Y-108863970D01*
X80053335Y-108863970D02*
X80024465Y-108828255D01*
X80024465Y-108828255D02*
X80000061Y-108756827D01*
X80000061Y-108756827D02*
X80026846Y-108542541D01*
X80026846Y-108542541D02*
X80069108Y-108471112D01*
X80069108Y-108471112D02*
X80106906Y-108435398D01*
X80106906Y-108435398D02*
X80178037Y-108399684D01*
X80178037Y-108399684D02*
X80311370Y-108399684D01*
X80311370Y-108399684D02*
X80373573Y-108435398D01*
X81175655Y-108685398D02*
X81508989Y-108685398D01*
X81082203Y-108899684D02*
X81409286Y-108149684D01*
X81409286Y-108149684D02*
X81548870Y-108899684D01*
X82082203Y-108899684D02*
X82175953Y-108149684D01*
X82086667Y-108863970D02*
X82015536Y-108899684D01*
X82015536Y-108899684D02*
X81882203Y-108899684D01*
X81882203Y-108899684D02*
X81820001Y-108863970D01*
X81820001Y-108863970D02*
X81791131Y-108828255D01*
X81791131Y-108828255D02*
X81766727Y-108756827D01*
X81766727Y-108756827D02*
X81793512Y-108542541D01*
X81793512Y-108542541D02*
X81835774Y-108471112D01*
X81835774Y-108471112D02*
X81873572Y-108435398D01*
X81873572Y-108435398D02*
X81944703Y-108399684D01*
X81944703Y-108399684D02*
X82078036Y-108399684D01*
X82078036Y-108399684D02*
X82140239Y-108435398D01*
X82715536Y-108899684D02*
X82764643Y-108506827D01*
X82764643Y-108506827D02*
X82740238Y-108435398D01*
X82740238Y-108435398D02*
X82678036Y-108399684D01*
X82678036Y-108399684D02*
X82544703Y-108399684D01*
X82544703Y-108399684D02*
X82473572Y-108435398D01*
X82720000Y-108863970D02*
X82648869Y-108899684D01*
X82648869Y-108899684D02*
X82482203Y-108899684D01*
X82482203Y-108899684D02*
X82420000Y-108863970D01*
X82420000Y-108863970D02*
X82395595Y-108792541D01*
X82395595Y-108792541D02*
X82404524Y-108721112D01*
X82404524Y-108721112D02*
X82446786Y-108649684D01*
X82446786Y-108649684D02*
X82517917Y-108613970D01*
X82517917Y-108613970D02*
X82684584Y-108613970D01*
X82684584Y-108613970D02*
X82755714Y-108578255D01*
X83111369Y-108399684D02*
X83017619Y-109149684D01*
X83106905Y-108435398D02*
X83178036Y-108399684D01*
X83178036Y-108399684D02*
X83311369Y-108399684D01*
X83311369Y-108399684D02*
X83373571Y-108435398D01*
X83373571Y-108435398D02*
X83402440Y-108471112D01*
X83402440Y-108471112D02*
X83426845Y-108542541D01*
X83426845Y-108542541D02*
X83400059Y-108756827D01*
X83400059Y-108756827D02*
X83357797Y-108828255D01*
X83357797Y-108828255D02*
X83320000Y-108863970D01*
X83320000Y-108863970D02*
X83248869Y-108899684D01*
X83248869Y-108899684D02*
X83115536Y-108899684D01*
X83115536Y-108899684D02*
X83053333Y-108863970D01*
X83644702Y-108399684D02*
X83911369Y-108399684D01*
X83775952Y-108149684D02*
X83695595Y-108792541D01*
X83695595Y-108792541D02*
X83720000Y-108863970D01*
X83720000Y-108863970D02*
X83782202Y-108899684D01*
X83782202Y-108899684D02*
X83848869Y-108899684D01*
X84353333Y-108863970D02*
X84282202Y-108899684D01*
X84282202Y-108899684D02*
X84148869Y-108899684D01*
X84148869Y-108899684D02*
X84086666Y-108863970D01*
X84086666Y-108863970D02*
X84062261Y-108792541D01*
X84062261Y-108792541D02*
X84097976Y-108506827D01*
X84097976Y-108506827D02*
X84140238Y-108435398D01*
X84140238Y-108435398D02*
X84211369Y-108399684D01*
X84211369Y-108399684D02*
X84344702Y-108399684D01*
X84344702Y-108399684D02*
X84406904Y-108435398D01*
X84406904Y-108435398D02*
X84431309Y-108506827D01*
X84431309Y-108506827D02*
X84422380Y-108578255D01*
X84422380Y-108578255D02*
X84080119Y-108649684D01*
X84682202Y-108899684D02*
X84744702Y-108399684D01*
X84726845Y-108542541D02*
X84769107Y-108471112D01*
X84769107Y-108471112D02*
X84806904Y-108435398D01*
X84806904Y-108435398D02*
X84878035Y-108399684D01*
X84878035Y-108399684D02*
X84944702Y-108399684D01*
X85648868Y-108899684D02*
X85742618Y-108149684D01*
X85706904Y-108435398D02*
X85778035Y-108399684D01*
X85778035Y-108399684D02*
X85911368Y-108399684D01*
X85911368Y-108399684D02*
X85973570Y-108435398D01*
X85973570Y-108435398D02*
X86002439Y-108471112D01*
X86002439Y-108471112D02*
X86026844Y-108542541D01*
X86026844Y-108542541D02*
X86000058Y-108756827D01*
X86000058Y-108756827D02*
X85957796Y-108828255D01*
X85957796Y-108828255D02*
X85919999Y-108863970D01*
X85919999Y-108863970D02*
X85848868Y-108899684D01*
X85848868Y-108899684D02*
X85715535Y-108899684D01*
X85715535Y-108899684D02*
X85653332Y-108863970D01*
X86382201Y-108899684D02*
X86319999Y-108863970D01*
X86319999Y-108863970D02*
X86291129Y-108828255D01*
X86291129Y-108828255D02*
X86266725Y-108756827D01*
X86266725Y-108756827D02*
X86293510Y-108542541D01*
X86293510Y-108542541D02*
X86335772Y-108471112D01*
X86335772Y-108471112D02*
X86373570Y-108435398D01*
X86373570Y-108435398D02*
X86444701Y-108399684D01*
X86444701Y-108399684D02*
X86544701Y-108399684D01*
X86544701Y-108399684D02*
X86606903Y-108435398D01*
X86606903Y-108435398D02*
X86635772Y-108471112D01*
X86635772Y-108471112D02*
X86660177Y-108542541D01*
X86660177Y-108542541D02*
X86633391Y-108756827D01*
X86633391Y-108756827D02*
X86591129Y-108828255D01*
X86591129Y-108828255D02*
X86553332Y-108863970D01*
X86553332Y-108863970D02*
X86482201Y-108899684D01*
X86482201Y-108899684D02*
X86382201Y-108899684D01*
X87215534Y-108899684D02*
X87264641Y-108506827D01*
X87264641Y-108506827D02*
X87240236Y-108435398D01*
X87240236Y-108435398D02*
X87178034Y-108399684D01*
X87178034Y-108399684D02*
X87044701Y-108399684D01*
X87044701Y-108399684D02*
X86973570Y-108435398D01*
X87219998Y-108863970D02*
X87148867Y-108899684D01*
X87148867Y-108899684D02*
X86982201Y-108899684D01*
X86982201Y-108899684D02*
X86919998Y-108863970D01*
X86919998Y-108863970D02*
X86895593Y-108792541D01*
X86895593Y-108792541D02*
X86904522Y-108721112D01*
X86904522Y-108721112D02*
X86946784Y-108649684D01*
X86946784Y-108649684D02*
X87017915Y-108613970D01*
X87017915Y-108613970D02*
X87184582Y-108613970D01*
X87184582Y-108613970D02*
X87255712Y-108578255D01*
X87548867Y-108899684D02*
X87611367Y-108399684D01*
X87593510Y-108542541D02*
X87635772Y-108471112D01*
X87635772Y-108471112D02*
X87673569Y-108435398D01*
X87673569Y-108435398D02*
X87744700Y-108399684D01*
X87744700Y-108399684D02*
X87811367Y-108399684D01*
X88282200Y-108899684D02*
X88375950Y-108149684D01*
X88286664Y-108863970D02*
X88215533Y-108899684D01*
X88215533Y-108899684D02*
X88082200Y-108899684D01*
X88082200Y-108899684D02*
X88019998Y-108863970D01*
X88019998Y-108863970D02*
X87991128Y-108828255D01*
X87991128Y-108828255D02*
X87966724Y-108756827D01*
X87966724Y-108756827D02*
X87993509Y-108542541D01*
X87993509Y-108542541D02*
X88035771Y-108471112D01*
X88035771Y-108471112D02*
X88073569Y-108435398D01*
X88073569Y-108435398D02*
X88144700Y-108399684D01*
X88144700Y-108399684D02*
X88278033Y-108399684D01*
X88278033Y-108399684D02*
X88340236Y-108435398D01*
D10*
X66003333Y-79701764D02*
X66436666Y-79701764D01*
X66436666Y-79701764D02*
X66203333Y-79987478D01*
X66203333Y-79987478D02*
X66303333Y-79987478D01*
X66303333Y-79987478D02*
X66369999Y-80023192D01*
X66369999Y-80023192D02*
X66403333Y-80058907D01*
X66403333Y-80058907D02*
X66436666Y-80130335D01*
X66436666Y-80130335D02*
X66436666Y-80308907D01*
X66436666Y-80308907D02*
X66403333Y-80380335D01*
X66403333Y-80380335D02*
X66369999Y-80416050D01*
X66369999Y-80416050D02*
X66303333Y-80451764D01*
X66303333Y-80451764D02*
X66103333Y-80451764D01*
X66103333Y-80451764D02*
X66036666Y-80416050D01*
X66036666Y-80416050D02*
X66003333Y-80380335D01*
X66636666Y-79701764D02*
X66870000Y-80451764D01*
X66870000Y-80451764D02*
X67103333Y-79701764D01*
X67270000Y-79701764D02*
X67703333Y-79701764D01*
X67703333Y-79701764D02*
X67470000Y-79987478D01*
X67470000Y-79987478D02*
X67570000Y-79987478D01*
X67570000Y-79987478D02*
X67636666Y-80023192D01*
X67636666Y-80023192D02*
X67670000Y-80058907D01*
X67670000Y-80058907D02*
X67703333Y-80130335D01*
X67703333Y-80130335D02*
X67703333Y-80308907D01*
X67703333Y-80308907D02*
X67670000Y-80380335D01*
X67670000Y-80380335D02*
X67636666Y-80416050D01*
X67636666Y-80416050D02*
X67570000Y-80451764D01*
X67570000Y-80451764D02*
X67370000Y-80451764D01*
X67370000Y-80451764D02*
X67303333Y-80416050D01*
X67303333Y-80416050D02*
X67270000Y-80380335D01*
X66173333Y-102121774D02*
X65940000Y-101764631D01*
X65773333Y-102121774D02*
X65773333Y-101371774D01*
X65773333Y-101371774D02*
X66040000Y-101371774D01*
X66040000Y-101371774D02*
X66106667Y-101407488D01*
X66106667Y-101407488D02*
X66140000Y-101443202D01*
X66140000Y-101443202D02*
X66173333Y-101514631D01*
X66173333Y-101514631D02*
X66173333Y-101621774D01*
X66173333Y-101621774D02*
X66140000Y-101693202D01*
X66140000Y-101693202D02*
X66106667Y-101728917D01*
X66106667Y-101728917D02*
X66040000Y-101764631D01*
X66040000Y-101764631D02*
X65773333Y-101764631D01*
X66406667Y-101371774D02*
X66873333Y-102121774D01*
X66873333Y-101371774D02*
X66406667Y-102121774D01*
X67140000Y-102121774D02*
X67140000Y-101371774D01*
X67140000Y-101371774D02*
X67306667Y-101371774D01*
X67306667Y-101371774D02*
X67406667Y-101407488D01*
X67406667Y-101407488D02*
X67473334Y-101478917D01*
X67473334Y-101478917D02*
X67506667Y-101550345D01*
X67506667Y-101550345D02*
X67540000Y-101693202D01*
X67540000Y-101693202D02*
X67540000Y-101800345D01*
X67540000Y-101800345D02*
X67506667Y-101943202D01*
X67506667Y-101943202D02*
X67473334Y-102014631D01*
X67473334Y-102014631D02*
X67406667Y-102086060D01*
X67406667Y-102086060D02*
X67306667Y-102121774D01*
X67306667Y-102121774D02*
X67140000Y-102121774D01*
X65773333Y-95581768D02*
X66173333Y-95581768D01*
X65973333Y-96331768D02*
X65973333Y-95581768D01*
X66406666Y-96331768D02*
X66406666Y-95581768D01*
X66406666Y-95581768D02*
X66573333Y-95581768D01*
X66573333Y-95581768D02*
X66673333Y-95617482D01*
X66673333Y-95617482D02*
X66740000Y-95688911D01*
X66740000Y-95688911D02*
X66773333Y-95760339D01*
X66773333Y-95760339D02*
X66806666Y-95903196D01*
X66806666Y-95903196D02*
X66806666Y-96010339D01*
X66806666Y-96010339D02*
X66773333Y-96153196D01*
X66773333Y-96153196D02*
X66740000Y-96224625D01*
X66740000Y-96224625D02*
X66673333Y-96296054D01*
X66673333Y-96296054D02*
X66573333Y-96331768D01*
X66573333Y-96331768D02*
X66406666Y-96331768D01*
X67240000Y-95581768D02*
X67373333Y-95581768D01*
X67373333Y-95581768D02*
X67440000Y-95617482D01*
X67440000Y-95617482D02*
X67506666Y-95688911D01*
X67506666Y-95688911D02*
X67540000Y-95831768D01*
X67540000Y-95831768D02*
X67540000Y-96081768D01*
X67540000Y-96081768D02*
X67506666Y-96224625D01*
X67506666Y-96224625D02*
X67440000Y-96296054D01*
X67440000Y-96296054D02*
X67373333Y-96331768D01*
X67373333Y-96331768D02*
X67240000Y-96331768D01*
X67240000Y-96331768D02*
X67173333Y-96296054D01*
X67173333Y-96296054D02*
X67106666Y-96224625D01*
X67106666Y-96224625D02*
X67073333Y-96081768D01*
X67073333Y-96081768D02*
X67073333Y-95831768D01*
X67073333Y-95831768D02*
X67106666Y-95688911D01*
X67106666Y-95688911D02*
X67173333Y-95617482D01*
X67173333Y-95617482D02*
X67240000Y-95581768D01*
X66173333Y-85291764D02*
X66573333Y-85291764D01*
X66373333Y-86041764D02*
X66373333Y-85291764D01*
X66806666Y-86041764D02*
X66806666Y-85291764D01*
X66806666Y-85291764D02*
X66973333Y-85291764D01*
X66973333Y-85291764D02*
X67073333Y-85327478D01*
X67073333Y-85327478D02*
X67140000Y-85398907D01*
X67140000Y-85398907D02*
X67173333Y-85470335D01*
X67173333Y-85470335D02*
X67206666Y-85613192D01*
X67206666Y-85613192D02*
X67206666Y-85720335D01*
X67206666Y-85720335D02*
X67173333Y-85863192D01*
X67173333Y-85863192D02*
X67140000Y-85934621D01*
X67140000Y-85934621D02*
X67073333Y-86006050D01*
X67073333Y-86006050D02*
X66973333Y-86041764D01*
X66973333Y-86041764D02*
X66806666Y-86041764D01*
X67506666Y-86041764D02*
X67506666Y-85291764D01*
X83173333Y-97261764D02*
X83606666Y-97261764D01*
X83606666Y-97261764D02*
X83373333Y-97547478D01*
X83373333Y-97547478D02*
X83473333Y-97547478D01*
X83473333Y-97547478D02*
X83539999Y-97583192D01*
X83539999Y-97583192D02*
X83573333Y-97618907D01*
X83573333Y-97618907D02*
X83606666Y-97690335D01*
X83606666Y-97690335D02*
X83606666Y-97868907D01*
X83606666Y-97868907D02*
X83573333Y-97940335D01*
X83573333Y-97940335D02*
X83539999Y-97976050D01*
X83539999Y-97976050D02*
X83473333Y-98011764D01*
X83473333Y-98011764D02*
X83273333Y-98011764D01*
X83273333Y-98011764D02*
X83206666Y-97976050D01*
X83206666Y-97976050D02*
X83173333Y-97940335D01*
X83806666Y-97261764D02*
X84040000Y-98011764D01*
X84040000Y-98011764D02*
X84273333Y-97261764D01*
X84440000Y-97261764D02*
X84873333Y-97261764D01*
X84873333Y-97261764D02*
X84640000Y-97547478D01*
X84640000Y-97547478D02*
X84740000Y-97547478D01*
X84740000Y-97547478D02*
X84806666Y-97583192D01*
X84806666Y-97583192D02*
X84840000Y-97618907D01*
X84840000Y-97618907D02*
X84873333Y-97690335D01*
X84873333Y-97690335D02*
X84873333Y-97868907D01*
X84873333Y-97868907D02*
X84840000Y-97940335D01*
X84840000Y-97940335D02*
X84806666Y-97976050D01*
X84806666Y-97976050D02*
X84740000Y-98011764D01*
X84740000Y-98011764D02*
X84540000Y-98011764D01*
X84540000Y-98011764D02*
X84473333Y-97976050D01*
X84473333Y-97976050D02*
X84440000Y-97940335D01*
X83140000Y-102317922D02*
X83540000Y-102317922D01*
X83340000Y-103067922D02*
X83340000Y-102317922D01*
X83706667Y-102317922D02*
X84173333Y-103067922D01*
X84173333Y-102317922D02*
X83706667Y-103067922D01*
X84440000Y-103067922D02*
X84440000Y-102317922D01*
X84440000Y-102317922D02*
X84606667Y-102317922D01*
X84606667Y-102317922D02*
X84706667Y-102353636D01*
X84706667Y-102353636D02*
X84773334Y-102425065D01*
X84773334Y-102425065D02*
X84806667Y-102496493D01*
X84806667Y-102496493D02*
X84840000Y-102639350D01*
X84840000Y-102639350D02*
X84840000Y-102746493D01*
X84840000Y-102746493D02*
X84806667Y-102889350D01*
X84806667Y-102889350D02*
X84773334Y-102960779D01*
X84773334Y-102960779D02*
X84706667Y-103032208D01*
X84706667Y-103032208D02*
X84606667Y-103067922D01*
X84606667Y-103067922D02*
X84440000Y-103067922D01*
X65330000Y-83711764D02*
X65730000Y-83711764D01*
X65530000Y-84461764D02*
X65530000Y-83711764D01*
X66363333Y-84461764D02*
X66130000Y-84104621D01*
X65963333Y-84461764D02*
X65963333Y-83711764D01*
X65963333Y-83711764D02*
X66230000Y-83711764D01*
X66230000Y-83711764D02*
X66296667Y-83747478D01*
X66296667Y-83747478D02*
X66330000Y-83783192D01*
X66330000Y-83783192D02*
X66363333Y-83854621D01*
X66363333Y-83854621D02*
X66363333Y-83961764D01*
X66363333Y-83961764D02*
X66330000Y-84033192D01*
X66330000Y-84033192D02*
X66296667Y-84068907D01*
X66296667Y-84068907D02*
X66230000Y-84104621D01*
X66230000Y-84104621D02*
X65963333Y-84104621D01*
X66630000Y-84426050D02*
X66730000Y-84461764D01*
X66730000Y-84461764D02*
X66896667Y-84461764D01*
X66896667Y-84461764D02*
X66963333Y-84426050D01*
X66963333Y-84426050D02*
X66996667Y-84390335D01*
X66996667Y-84390335D02*
X67030000Y-84318907D01*
X67030000Y-84318907D02*
X67030000Y-84247478D01*
X67030000Y-84247478D02*
X66996667Y-84176050D01*
X66996667Y-84176050D02*
X66963333Y-84140335D01*
X66963333Y-84140335D02*
X66896667Y-84104621D01*
X66896667Y-84104621D02*
X66763333Y-84068907D01*
X66763333Y-84068907D02*
X66696667Y-84033192D01*
X66696667Y-84033192D02*
X66663333Y-83997478D01*
X66663333Y-83997478D02*
X66630000Y-83926050D01*
X66630000Y-83926050D02*
X66630000Y-83854621D01*
X66630000Y-83854621D02*
X66663333Y-83783192D01*
X66663333Y-83783192D02*
X66696667Y-83747478D01*
X66696667Y-83747478D02*
X66763333Y-83711764D01*
X66763333Y-83711764D02*
X66930000Y-83711764D01*
X66930000Y-83711764D02*
X67030000Y-83747478D01*
X67230000Y-83711764D02*
X67630000Y-83711764D01*
X67430000Y-84461764D02*
X67430000Y-83711764D01*
X63873333Y-93461764D02*
X63873333Y-92711764D01*
X63873333Y-92711764D02*
X64040000Y-92711764D01*
X64040000Y-92711764D02*
X64140000Y-92747478D01*
X64140000Y-92747478D02*
X64206667Y-92818907D01*
X64206667Y-92818907D02*
X64240000Y-92890335D01*
X64240000Y-92890335D02*
X64273333Y-93033192D01*
X64273333Y-93033192D02*
X64273333Y-93140335D01*
X64273333Y-93140335D02*
X64240000Y-93283192D01*
X64240000Y-93283192D02*
X64206667Y-93354621D01*
X64206667Y-93354621D02*
X64140000Y-93426050D01*
X64140000Y-93426050D02*
X64040000Y-93461764D01*
X64040000Y-93461764D02*
X63873333Y-93461764D01*
X64540000Y-92783192D02*
X64573333Y-92747478D01*
X64573333Y-92747478D02*
X64640000Y-92711764D01*
X64640000Y-92711764D02*
X64806667Y-92711764D01*
X64806667Y-92711764D02*
X64873333Y-92747478D01*
X64873333Y-92747478D02*
X64906667Y-92783192D01*
X64906667Y-92783192D02*
X64940000Y-92854621D01*
X64940000Y-92854621D02*
X64940000Y-92926050D01*
X64940000Y-92926050D02*
X64906667Y-93033192D01*
X64906667Y-93033192D02*
X64506667Y-93461764D01*
X64506667Y-93461764D02*
X64940000Y-93461764D01*
X64403333Y-82550335D02*
X64370000Y-82586050D01*
X64370000Y-82586050D02*
X64270000Y-82621764D01*
X64270000Y-82621764D02*
X64203333Y-82621764D01*
X64203333Y-82621764D02*
X64103333Y-82586050D01*
X64103333Y-82586050D02*
X64036667Y-82514621D01*
X64036667Y-82514621D02*
X64003333Y-82443192D01*
X64003333Y-82443192D02*
X63970000Y-82300335D01*
X63970000Y-82300335D02*
X63970000Y-82193192D01*
X63970000Y-82193192D02*
X64003333Y-82050335D01*
X64003333Y-82050335D02*
X64036667Y-81978907D01*
X64036667Y-81978907D02*
X64103333Y-81907478D01*
X64103333Y-81907478D02*
X64203333Y-81871764D01*
X64203333Y-81871764D02*
X64270000Y-81871764D01*
X64270000Y-81871764D02*
X64370000Y-81907478D01*
X64370000Y-81907478D02*
X64403333Y-81943192D01*
X64636667Y-81871764D02*
X65070000Y-81871764D01*
X65070000Y-81871764D02*
X64836667Y-82157478D01*
X64836667Y-82157478D02*
X64936667Y-82157478D01*
X64936667Y-82157478D02*
X65003333Y-82193192D01*
X65003333Y-82193192D02*
X65036667Y-82228907D01*
X65036667Y-82228907D02*
X65070000Y-82300335D01*
X65070000Y-82300335D02*
X65070000Y-82478907D01*
X65070000Y-82478907D02*
X65036667Y-82550335D01*
X65036667Y-82550335D02*
X65003333Y-82586050D01*
X65003333Y-82586050D02*
X64936667Y-82621764D01*
X64936667Y-82621764D02*
X64736667Y-82621764D01*
X64736667Y-82621764D02*
X64670000Y-82586050D01*
X64670000Y-82586050D02*
X64636667Y-82550335D01*
X66316666Y-77210335D02*
X66283333Y-77246050D01*
X66283333Y-77246050D02*
X66183333Y-77281764D01*
X66183333Y-77281764D02*
X66116666Y-77281764D01*
X66116666Y-77281764D02*
X66016666Y-77246050D01*
X66016666Y-77246050D02*
X65950000Y-77174621D01*
X65950000Y-77174621D02*
X65916666Y-77103192D01*
X65916666Y-77103192D02*
X65883333Y-76960335D01*
X65883333Y-76960335D02*
X65883333Y-76853192D01*
X65883333Y-76853192D02*
X65916666Y-76710335D01*
X65916666Y-76710335D02*
X65950000Y-76638907D01*
X65950000Y-76638907D02*
X66016666Y-76567478D01*
X66016666Y-76567478D02*
X66116666Y-76531764D01*
X66116666Y-76531764D02*
X66183333Y-76531764D01*
X66183333Y-76531764D02*
X66283333Y-76567478D01*
X66283333Y-76567478D02*
X66316666Y-76603192D01*
X66616666Y-77281764D02*
X66616666Y-76531764D01*
X66616666Y-76531764D02*
X67016666Y-77281764D01*
X67016666Y-77281764D02*
X67016666Y-76531764D01*
X67716666Y-77281764D02*
X67316666Y-77281764D01*
X67516666Y-77281764D02*
X67516666Y-76531764D01*
X67516666Y-76531764D02*
X67449999Y-76638907D01*
X67449999Y-76638907D02*
X67383333Y-76710335D01*
X67383333Y-76710335D02*
X67316666Y-76746050D01*
G36*
X72222337Y-78284598D02*
G01*
X72173000Y-78311709D01*
X72156392Y-78404766D01*
X72513719Y-78404766D01*
X72590655Y-78322456D01*
X72689574Y-78437739D01*
X72151018Y-78437739D01*
X72123419Y-78576713D01*
X72403810Y-78576713D01*
X72442156Y-78516385D01*
X72530083Y-78582330D01*
X72486120Y-78620676D01*
X72486120Y-79373921D01*
X72568674Y-79373921D01*
X72656601Y-79291367D01*
X72760893Y-79406894D01*
X71661800Y-79406894D01*
X71648522Y-79406036D01*
X71635433Y-79405569D01*
X71622533Y-79405492D01*
X71609822Y-79405806D01*
X71597300Y-79406511D01*
X71584966Y-79407607D01*
X71572822Y-79409093D01*
X71560867Y-79410970D01*
X71549100Y-79413238D01*
X71537522Y-79415896D01*
X71529909Y-79417885D01*
X71485945Y-79373921D01*
X71760718Y-79373921D01*
X71760713Y-79330485D01*
X71760697Y-79288132D01*
X71760671Y-79246864D01*
X71760634Y-79206680D01*
X71760630Y-79203684D01*
X71837655Y-79203684D01*
X71837655Y-79373921D01*
X72409183Y-79373921D01*
X72409183Y-79203684D01*
X71837655Y-79203684D01*
X71760630Y-79203684D01*
X71760587Y-79167580D01*
X71760529Y-79129565D01*
X71760461Y-79092634D01*
X71760382Y-79056787D01*
X71760293Y-79022025D01*
X71760230Y-79000474D01*
X71837655Y-79000474D01*
X71837655Y-79170711D01*
X72409183Y-79170711D01*
X72409183Y-79000474D01*
X71837655Y-79000474D01*
X71760230Y-79000474D01*
X71760194Y-78988347D01*
X71760083Y-78955753D01*
X71759963Y-78924244D01*
X71759831Y-78893818D01*
X71759690Y-78864478D01*
X71759538Y-78836221D01*
X71759375Y-78809049D01*
X71759297Y-78797264D01*
X71837655Y-78797264D01*
X71837655Y-78967501D01*
X72409183Y-78967501D01*
X72409183Y-78797264D01*
X71837655Y-78797264D01*
X71759297Y-78797264D01*
X71759202Y-78782961D01*
X71759018Y-78757957D01*
X71758824Y-78734038D01*
X71758619Y-78711203D01*
X71758404Y-78689452D01*
X71758179Y-78668786D01*
X71757942Y-78649203D01*
X71757696Y-78630706D01*
X71757439Y-78613292D01*
X71757380Y-78609685D01*
X71837655Y-78609685D01*
X71837655Y-78764291D01*
X72409183Y-78764291D01*
X72409183Y-78609685D01*
X71837655Y-78609685D01*
X71757380Y-78609685D01*
X71757171Y-78596963D01*
X71756893Y-78581718D01*
X71756604Y-78567557D01*
X71756305Y-78554481D01*
X71755996Y-78542489D01*
X71755676Y-78531581D01*
X71755345Y-78521758D01*
X71837655Y-78576713D01*
X72052100Y-78576713D01*
X72074082Y-78437739D01*
X71738736Y-78437739D01*
X71725459Y-78437884D01*
X71712370Y-78438322D01*
X71699470Y-78439052D01*
X71686758Y-78440074D01*
X71674236Y-78441388D01*
X71661903Y-78442994D01*
X71649759Y-78444891D01*
X71637803Y-78447081D01*
X71626036Y-78449562D01*
X71614459Y-78452336D01*
X71606845Y-78454347D01*
X71557508Y-78404766D01*
X72079455Y-78404766D01*
X72080808Y-78391217D01*
X72082119Y-78377926D01*
X72083388Y-78364892D01*
X72084615Y-78352116D01*
X72085800Y-78339598D01*
X72086943Y-78327337D01*
X72088044Y-78315334D01*
X72089103Y-78303588D01*
X72090120Y-78292100D01*
X72091095Y-78280870D01*
X72092028Y-78269897D01*
X72092919Y-78259182D01*
X72093768Y-78248724D01*
X72094575Y-78238524D01*
X72095341Y-78228582D01*
X72096064Y-78218897D01*
X72222337Y-78284598D01*
G37*
G36*
X73792819Y-79293565D02*
G01*
X73792866Y-79306028D01*
X73793008Y-79318779D01*
X73793244Y-79331817D01*
X73793574Y-79345143D01*
X73793999Y-79358756D01*
X73794519Y-79372657D01*
X73795133Y-79386846D01*
X73795841Y-79401322D01*
X73796366Y-79411133D01*
X73796933Y-79421072D01*
X73797541Y-79431138D01*
X73798192Y-79441332D01*
X73710265Y-79485052D01*
X73710610Y-79467741D01*
X73710945Y-79450003D01*
X73711269Y-79431837D01*
X73711581Y-79413244D01*
X73711883Y-79394224D01*
X73712174Y-79374776D01*
X73712454Y-79354901D01*
X73712722Y-79334598D01*
X73712980Y-79313868D01*
X73713227Y-79292711D01*
X73713463Y-79271126D01*
X73713688Y-79249113D01*
X73713902Y-79226673D01*
X73714105Y-79203806D01*
X73714297Y-79180512D01*
X73714478Y-79156789D01*
X73714648Y-79132640D01*
X73714807Y-79108063D01*
X73714955Y-79083059D01*
X73715092Y-79057627D01*
X73715218Y-79031768D01*
X73715334Y-79005481D01*
X73715438Y-78978767D01*
X73715531Y-78951625D01*
X73715613Y-78924057D01*
X73715685Y-78896060D01*
X73715745Y-78867636D01*
X73715794Y-78838785D01*
X73715833Y-78809507D01*
X73715860Y-78779801D01*
X73715877Y-78749667D01*
X73715882Y-78719106D01*
X73573000Y-78719106D01*
X73561750Y-78719362D01*
X73549980Y-78720129D01*
X73537692Y-78721407D01*
X73524884Y-78723197D01*
X73514938Y-78724875D01*
X73504700Y-78726841D01*
X73494170Y-78729094D01*
X73483348Y-78731635D01*
X73472234Y-78734464D01*
X73468464Y-78735471D01*
X73419127Y-78686133D01*
X73715882Y-78686133D01*
X73715877Y-78670214D01*
X73715860Y-78654391D01*
X73715833Y-78638663D01*
X73715794Y-78623031D01*
X73715745Y-78607495D01*
X73715685Y-78592055D01*
X73715613Y-78576711D01*
X73715531Y-78561463D01*
X73715438Y-78546310D01*
X73715334Y-78531254D01*
X73715218Y-78516293D01*
X73715092Y-78501429D01*
X73714955Y-78486660D01*
X73714807Y-78471987D01*
X73714648Y-78457410D01*
X73714478Y-78442929D01*
X73714297Y-78428543D01*
X73714105Y-78414254D01*
X73713902Y-78400060D01*
X73713688Y-78385963D01*
X73713463Y-78371961D01*
X73713227Y-78358055D01*
X73712980Y-78344245D01*
X73712722Y-78330531D01*
X73712454Y-78316913D01*
X73712174Y-78303391D01*
X73711883Y-78289964D01*
X73711581Y-78276634D01*
X73711269Y-78263399D01*
X73710945Y-78250260D01*
X73710610Y-78237217D01*
X73710265Y-78224270D01*
X73842156Y-78284110D01*
X73792819Y-78321967D01*
X73792819Y-78686133D01*
X73996029Y-78686133D01*
X74072965Y-78609197D01*
X74166510Y-78719106D01*
X73792819Y-78719106D01*
X73792819Y-79293565D01*
G37*
G36*
X73188318Y-79258394D02*
G01*
X73424501Y-79108674D01*
X73441109Y-79125526D01*
X73425850Y-79138906D01*
X73410998Y-79152026D01*
X73396556Y-79164885D01*
X73382521Y-79177485D01*
X73368895Y-79189825D01*
X73355677Y-79201905D01*
X73342868Y-79213725D01*
X73330467Y-79225284D01*
X73318474Y-79236584D01*
X73306890Y-79247624D01*
X73295714Y-79258404D01*
X73284946Y-79268924D01*
X73274587Y-79279184D01*
X73264636Y-79289183D01*
X73255093Y-79298923D01*
X73245959Y-79308403D01*
X73237233Y-79317623D01*
X73228915Y-79326583D01*
X73221006Y-79335283D01*
X73213505Y-79343723D01*
X73206413Y-79351903D01*
X73199728Y-79359823D01*
X73193453Y-79367483D01*
X73182126Y-79382023D01*
X73172432Y-79395523D01*
X73164372Y-79407983D01*
X73157946Y-79419404D01*
X73155345Y-79424724D01*
X73083782Y-79336064D01*
X73091426Y-79327496D01*
X73097872Y-79318402D01*
X73103119Y-79308781D01*
X73107168Y-79298633D01*
X73110019Y-79287959D01*
X73111671Y-79276758D01*
X73112125Y-79265031D01*
X73111381Y-79252777D01*
X73111381Y-78953579D01*
X73034445Y-78953579D01*
X73023194Y-78953835D01*
X73011425Y-78954602D01*
X72999136Y-78955881D01*
X72986329Y-78957670D01*
X72976383Y-78959348D01*
X72966144Y-78961314D01*
X72955614Y-78963567D01*
X72944792Y-78966108D01*
X72933678Y-78968937D01*
X72929909Y-78969944D01*
X72880572Y-78920607D01*
X73111381Y-78920607D01*
X73111381Y-78703475D01*
X73006845Y-78703475D01*
X72999325Y-78713679D01*
X72991847Y-78723713D01*
X72984411Y-78733577D01*
X72977017Y-78743271D01*
X72969665Y-78752796D01*
X72962355Y-78762150D01*
X72955087Y-78771335D01*
X72947861Y-78780350D01*
X72940676Y-78789195D01*
X72933534Y-78797871D01*
X72926434Y-78806376D01*
X72919376Y-78814712D01*
X72912360Y-78822878D01*
X72905385Y-78830874D01*
X72898453Y-78838700D01*
X72891563Y-78846357D01*
X72874954Y-78835366D01*
X72885507Y-78817329D01*
X72895856Y-78799212D01*
X72906001Y-78781017D01*
X72915941Y-78762742D01*
X72925677Y-78744388D01*
X72935210Y-78725955D01*
X72944538Y-78707442D01*
X72953661Y-78688851D01*
X72962581Y-78670180D01*
X72971296Y-78651430D01*
X72979808Y-78632601D01*
X72988115Y-78613693D01*
X72996218Y-78594705D01*
X73004117Y-78575638D01*
X73011811Y-78556493D01*
X73019302Y-78537267D01*
X73026588Y-78517963D01*
X73033670Y-78498580D01*
X73040548Y-78479117D01*
X73047222Y-78459575D01*
X73053691Y-78439954D01*
X73059957Y-78420254D01*
X73066018Y-78400475D01*
X73071875Y-78380616D01*
X73077528Y-78360678D01*
X73082977Y-78340662D01*
X73088221Y-78320565D01*
X73093261Y-78300390D01*
X73098098Y-78280136D01*
X73102730Y-78259802D01*
X73107158Y-78239389D01*
X73111381Y-78218897D01*
X73237655Y-78290704D01*
X73193691Y-78323677D01*
X73188281Y-78334599D01*
X73183044Y-78345262D01*
X73177977Y-78355665D01*
X73173083Y-78365809D01*
X73168360Y-78375693D01*
X73163809Y-78385318D01*
X73159430Y-78394683D01*
X73155223Y-78403789D01*
X73149234Y-78416961D01*
X73143631Y-78429549D01*
X73138414Y-78441553D01*
X73133584Y-78452973D01*
X73129141Y-78463810D01*
X73127745Y-78467292D01*
X73309218Y-78467292D01*
X73380537Y-78395973D01*
X73468464Y-78500265D01*
X73116755Y-78500265D01*
X73110586Y-78511205D01*
X73104416Y-78522105D01*
X73098245Y-78532966D01*
X73092071Y-78543786D01*
X73085895Y-78554566D01*
X73079717Y-78565306D01*
X73073538Y-78576006D01*
X73067356Y-78586666D01*
X73061173Y-78597285D01*
X73054988Y-78607865D01*
X73048801Y-78618405D01*
X73042612Y-78628904D01*
X73036421Y-78639364D01*
X73030228Y-78649783D01*
X73024033Y-78660163D01*
X73017836Y-78670502D01*
X73243272Y-78670502D01*
X73320209Y-78593565D01*
X73413510Y-78703475D01*
X73188318Y-78703475D01*
X73188318Y-78920607D01*
X73309218Y-78920607D01*
X73386154Y-78849043D01*
X73479455Y-78953579D01*
X73188318Y-78953579D01*
X73188318Y-79258394D01*
G37*
X64463333Y-86951764D02*
X64230000Y-86594621D01*
X64063333Y-86951764D02*
X64063333Y-86201764D01*
X64063333Y-86201764D02*
X64330000Y-86201764D01*
X64330000Y-86201764D02*
X64396667Y-86237478D01*
X64396667Y-86237478D02*
X64430000Y-86273192D01*
X64430000Y-86273192D02*
X64463333Y-86344621D01*
X64463333Y-86344621D02*
X64463333Y-86451764D01*
X64463333Y-86451764D02*
X64430000Y-86523192D01*
X64430000Y-86523192D02*
X64396667Y-86558907D01*
X64396667Y-86558907D02*
X64330000Y-86594621D01*
X64330000Y-86594621D02*
X64063333Y-86594621D01*
X64696667Y-86201764D02*
X65130000Y-86201764D01*
X65130000Y-86201764D02*
X64896667Y-86487478D01*
X64896667Y-86487478D02*
X64996667Y-86487478D01*
X64996667Y-86487478D02*
X65063333Y-86523192D01*
X65063333Y-86523192D02*
X65096667Y-86558907D01*
X65096667Y-86558907D02*
X65130000Y-86630335D01*
X65130000Y-86630335D02*
X65130000Y-86808907D01*
X65130000Y-86808907D02*
X65096667Y-86880335D01*
X65096667Y-86880335D02*
X65063333Y-86916050D01*
X65063333Y-86916050D02*
X64996667Y-86951764D01*
X64996667Y-86951764D02*
X64796667Y-86951764D01*
X64796667Y-86951764D02*
X64730000Y-86916050D01*
X64730000Y-86916050D02*
X64696667Y-86880335D01*
X87716666Y-106461764D02*
X87716666Y-106997478D01*
X87716666Y-106997478D02*
X87683333Y-107104621D01*
X87683333Y-107104621D02*
X87616666Y-107176050D01*
X87616666Y-107176050D02*
X87516666Y-107211764D01*
X87516666Y-107211764D02*
X87450000Y-107211764D01*
X88416666Y-107211764D02*
X88016666Y-107211764D01*
X88216666Y-107211764D02*
X88216666Y-106461764D01*
X88216666Y-106461764D02*
X88149999Y-106568907D01*
X88149999Y-106568907D02*
X88083333Y-106640335D01*
X88083333Y-106640335D02*
X88016666Y-106676050D01*
X78811764Y-89116666D02*
X78454621Y-89349999D01*
X78811764Y-89516666D02*
X78061764Y-89516666D01*
X78061764Y-89516666D02*
X78061764Y-89249999D01*
X78061764Y-89249999D02*
X78097478Y-89183333D01*
X78097478Y-89183333D02*
X78133192Y-89149999D01*
X78133192Y-89149999D02*
X78204621Y-89116666D01*
X78204621Y-89116666D02*
X78311764Y-89116666D01*
X78311764Y-89116666D02*
X78383192Y-89149999D01*
X78383192Y-89149999D02*
X78418907Y-89183333D01*
X78418907Y-89183333D02*
X78454621Y-89249999D01*
X78454621Y-89249999D02*
X78454621Y-89516666D01*
X78133192Y-88849999D02*
X78097478Y-88816666D01*
X78097478Y-88816666D02*
X78061764Y-88749999D01*
X78061764Y-88749999D02*
X78061764Y-88583333D01*
X78061764Y-88583333D02*
X78097478Y-88516666D01*
X78097478Y-88516666D02*
X78133192Y-88483333D01*
X78133192Y-88483333D02*
X78204621Y-88449999D01*
X78204621Y-88449999D02*
X78276050Y-88449999D01*
X78276050Y-88449999D02*
X78383192Y-88483333D01*
X78383192Y-88483333D02*
X78811764Y-88883333D01*
X78811764Y-88883333D02*
X78811764Y-88449999D01*
X64353333Y-92221764D02*
X64120000Y-91864621D01*
X63953333Y-92221764D02*
X63953333Y-91471764D01*
X63953333Y-91471764D02*
X64220000Y-91471764D01*
X64220000Y-91471764D02*
X64286667Y-91507478D01*
X64286667Y-91507478D02*
X64320000Y-91543192D01*
X64320000Y-91543192D02*
X64353333Y-91614621D01*
X64353333Y-91614621D02*
X64353333Y-91721764D01*
X64353333Y-91721764D02*
X64320000Y-91793192D01*
X64320000Y-91793192D02*
X64286667Y-91828907D01*
X64286667Y-91828907D02*
X64220000Y-91864621D01*
X64220000Y-91864621D02*
X63953333Y-91864621D01*
X65020000Y-92221764D02*
X64620000Y-92221764D01*
X64820000Y-92221764D02*
X64820000Y-91471764D01*
X64820000Y-91471764D02*
X64753333Y-91578907D01*
X64753333Y-91578907D02*
X64686667Y-91650335D01*
X64686667Y-91650335D02*
X64620000Y-91686050D01*
X78631764Y-95586666D02*
X78274621Y-95819999D01*
X78631764Y-95986666D02*
X77881764Y-95986666D01*
X77881764Y-95986666D02*
X77881764Y-95719999D01*
X77881764Y-95719999D02*
X77917478Y-95653333D01*
X77917478Y-95653333D02*
X77953192Y-95619999D01*
X77953192Y-95619999D02*
X78024621Y-95586666D01*
X78024621Y-95586666D02*
X78131764Y-95586666D01*
X78131764Y-95586666D02*
X78203192Y-95619999D01*
X78203192Y-95619999D02*
X78238907Y-95653333D01*
X78238907Y-95653333D02*
X78274621Y-95719999D01*
X78274621Y-95719999D02*
X78274621Y-95986666D01*
X78203192Y-95186666D02*
X78167478Y-95253333D01*
X78167478Y-95253333D02*
X78131764Y-95286666D01*
X78131764Y-95286666D02*
X78060335Y-95319999D01*
X78060335Y-95319999D02*
X78024621Y-95319999D01*
X78024621Y-95319999D02*
X77953192Y-95286666D01*
X77953192Y-95286666D02*
X77917478Y-95253333D01*
X77917478Y-95253333D02*
X77881764Y-95186666D01*
X77881764Y-95186666D02*
X77881764Y-95053333D01*
X77881764Y-95053333D02*
X77917478Y-94986666D01*
X77917478Y-94986666D02*
X77953192Y-94953333D01*
X77953192Y-94953333D02*
X78024621Y-94919999D01*
X78024621Y-94919999D02*
X78060335Y-94919999D01*
X78060335Y-94919999D02*
X78131764Y-94953333D01*
X78131764Y-94953333D02*
X78167478Y-94986666D01*
X78167478Y-94986666D02*
X78203192Y-95053333D01*
X78203192Y-95053333D02*
X78203192Y-95186666D01*
X78203192Y-95186666D02*
X78238907Y-95253333D01*
X78238907Y-95253333D02*
X78274621Y-95286666D01*
X78274621Y-95286666D02*
X78346050Y-95319999D01*
X78346050Y-95319999D02*
X78488907Y-95319999D01*
X78488907Y-95319999D02*
X78560335Y-95286666D01*
X78560335Y-95286666D02*
X78596050Y-95253333D01*
X78596050Y-95253333D02*
X78631764Y-95186666D01*
X78631764Y-95186666D02*
X78631764Y-95053333D01*
X78631764Y-95053333D02*
X78596050Y-94986666D01*
X78596050Y-94986666D02*
X78560335Y-94953333D01*
X78560335Y-94953333D02*
X78488907Y-94919999D01*
X78488907Y-94919999D02*
X78346050Y-94919999D01*
X78346050Y-94919999D02*
X78274621Y-94953333D01*
X78274621Y-94953333D02*
X78238907Y-94986666D01*
X78238907Y-94986666D02*
X78203192Y-95053333D01*
X79711764Y-101856666D02*
X79354621Y-102089999D01*
X79711764Y-102256666D02*
X78961764Y-102256666D01*
X78961764Y-102256666D02*
X78961764Y-101989999D01*
X78961764Y-101989999D02*
X78997478Y-101923333D01*
X78997478Y-101923333D02*
X79033192Y-101889999D01*
X79033192Y-101889999D02*
X79104621Y-101856666D01*
X79104621Y-101856666D02*
X79211764Y-101856666D01*
X79211764Y-101856666D02*
X79283192Y-101889999D01*
X79283192Y-101889999D02*
X79318907Y-101923333D01*
X79318907Y-101923333D02*
X79354621Y-101989999D01*
X79354621Y-101989999D02*
X79354621Y-102256666D01*
X78961764Y-101223333D02*
X78961764Y-101556666D01*
X78961764Y-101556666D02*
X79318907Y-101589999D01*
X79318907Y-101589999D02*
X79283192Y-101556666D01*
X79283192Y-101556666D02*
X79247478Y-101489999D01*
X79247478Y-101489999D02*
X79247478Y-101323333D01*
X79247478Y-101323333D02*
X79283192Y-101256666D01*
X79283192Y-101256666D02*
X79318907Y-101223333D01*
X79318907Y-101223333D02*
X79390335Y-101189999D01*
X79390335Y-101189999D02*
X79568907Y-101189999D01*
X79568907Y-101189999D02*
X79640335Y-101223333D01*
X79640335Y-101223333D02*
X79676050Y-101256666D01*
X79676050Y-101256666D02*
X79711764Y-101323333D01*
X79711764Y-101323333D02*
X79711764Y-101489999D01*
X79711764Y-101489999D02*
X79676050Y-101556666D01*
X79676050Y-101556666D02*
X79640335Y-101589999D01*
X63993333Y-88231764D02*
X63993333Y-87481764D01*
X63993333Y-87481764D02*
X64160000Y-87481764D01*
X64160000Y-87481764D02*
X64260000Y-87517478D01*
X64260000Y-87517478D02*
X64326667Y-87588907D01*
X64326667Y-87588907D02*
X64360000Y-87660335D01*
X64360000Y-87660335D02*
X64393333Y-87803192D01*
X64393333Y-87803192D02*
X64393333Y-87910335D01*
X64393333Y-87910335D02*
X64360000Y-88053192D01*
X64360000Y-88053192D02*
X64326667Y-88124621D01*
X64326667Y-88124621D02*
X64260000Y-88196050D01*
X64260000Y-88196050D02*
X64160000Y-88231764D01*
X64160000Y-88231764D02*
X63993333Y-88231764D01*
X64993333Y-87731764D02*
X64993333Y-88231764D01*
X64826667Y-87446050D02*
X64660000Y-87981764D01*
X64660000Y-87981764D02*
X65093333Y-87981764D01*
X63873333Y-97601764D02*
X63873333Y-96851764D01*
X63873333Y-96851764D02*
X64040000Y-96851764D01*
X64040000Y-96851764D02*
X64140000Y-96887478D01*
X64140000Y-96887478D02*
X64206667Y-96958907D01*
X64206667Y-96958907D02*
X64240000Y-97030335D01*
X64240000Y-97030335D02*
X64273333Y-97173192D01*
X64273333Y-97173192D02*
X64273333Y-97280335D01*
X64273333Y-97280335D02*
X64240000Y-97423192D01*
X64240000Y-97423192D02*
X64206667Y-97494621D01*
X64206667Y-97494621D02*
X64140000Y-97566050D01*
X64140000Y-97566050D02*
X64040000Y-97601764D01*
X64040000Y-97601764D02*
X63873333Y-97601764D01*
X64506667Y-96851764D02*
X64940000Y-96851764D01*
X64940000Y-96851764D02*
X64706667Y-97137478D01*
X64706667Y-97137478D02*
X64806667Y-97137478D01*
X64806667Y-97137478D02*
X64873333Y-97173192D01*
X64873333Y-97173192D02*
X64906667Y-97208907D01*
X64906667Y-97208907D02*
X64940000Y-97280335D01*
X64940000Y-97280335D02*
X64940000Y-97458907D01*
X64940000Y-97458907D02*
X64906667Y-97530335D01*
X64906667Y-97530335D02*
X64873333Y-97566050D01*
X64873333Y-97566050D02*
X64806667Y-97601764D01*
X64806667Y-97601764D02*
X64606667Y-97601764D01*
X64606667Y-97601764D02*
X64540000Y-97566050D01*
X64540000Y-97566050D02*
X64506667Y-97530335D01*
X80241764Y-95616666D02*
X79884621Y-95849999D01*
X80241764Y-96016666D02*
X79491764Y-96016666D01*
X79491764Y-96016666D02*
X79491764Y-95749999D01*
X79491764Y-95749999D02*
X79527478Y-95683333D01*
X79527478Y-95683333D02*
X79563192Y-95649999D01*
X79563192Y-95649999D02*
X79634621Y-95616666D01*
X79634621Y-95616666D02*
X79741764Y-95616666D01*
X79741764Y-95616666D02*
X79813192Y-95649999D01*
X79813192Y-95649999D02*
X79848907Y-95683333D01*
X79848907Y-95683333D02*
X79884621Y-95749999D01*
X79884621Y-95749999D02*
X79884621Y-96016666D01*
X79741764Y-95016666D02*
X80241764Y-95016666D01*
X79456050Y-95183333D02*
X79991764Y-95349999D01*
X79991764Y-95349999D02*
X79991764Y-94916666D01*
X80961764Y-101856666D02*
X80604621Y-102089999D01*
X80961764Y-102256666D02*
X80211764Y-102256666D01*
X80211764Y-102256666D02*
X80211764Y-101989999D01*
X80211764Y-101989999D02*
X80247478Y-101923333D01*
X80247478Y-101923333D02*
X80283192Y-101889999D01*
X80283192Y-101889999D02*
X80354621Y-101856666D01*
X80354621Y-101856666D02*
X80461764Y-101856666D01*
X80461764Y-101856666D02*
X80533192Y-101889999D01*
X80533192Y-101889999D02*
X80568907Y-101923333D01*
X80568907Y-101923333D02*
X80604621Y-101989999D01*
X80604621Y-101989999D02*
X80604621Y-102256666D01*
X80961764Y-101523333D02*
X80961764Y-101389999D01*
X80961764Y-101389999D02*
X80926050Y-101323333D01*
X80926050Y-101323333D02*
X80890335Y-101289999D01*
X80890335Y-101289999D02*
X80783192Y-101223333D01*
X80783192Y-101223333D02*
X80640335Y-101189999D01*
X80640335Y-101189999D02*
X80354621Y-101189999D01*
X80354621Y-101189999D02*
X80283192Y-101223333D01*
X80283192Y-101223333D02*
X80247478Y-101256666D01*
X80247478Y-101256666D02*
X80211764Y-101323333D01*
X80211764Y-101323333D02*
X80211764Y-101456666D01*
X80211764Y-101456666D02*
X80247478Y-101523333D01*
X80247478Y-101523333D02*
X80283192Y-101556666D01*
X80283192Y-101556666D02*
X80354621Y-101589999D01*
X80354621Y-101589999D02*
X80533192Y-101589999D01*
X80533192Y-101589999D02*
X80604621Y-101556666D01*
X80604621Y-101556666D02*
X80640335Y-101523333D01*
X80640335Y-101523333D02*
X80676050Y-101456666D01*
X80676050Y-101456666D02*
X80676050Y-101323333D01*
X80676050Y-101323333D02*
X80640335Y-101256666D01*
X80640335Y-101256666D02*
X80604621Y-101223333D01*
X80604621Y-101223333D02*
X80533192Y-101189999D01*
X81403333Y-84561764D02*
X81403333Y-83811764D01*
X81403333Y-83811764D02*
X81570000Y-83811764D01*
X81570000Y-83811764D02*
X81670000Y-83847478D01*
X81670000Y-83847478D02*
X81736667Y-83918907D01*
X81736667Y-83918907D02*
X81770000Y-83990335D01*
X81770000Y-83990335D02*
X81803333Y-84133192D01*
X81803333Y-84133192D02*
X81803333Y-84240335D01*
X81803333Y-84240335D02*
X81770000Y-84383192D01*
X81770000Y-84383192D02*
X81736667Y-84454621D01*
X81736667Y-84454621D02*
X81670000Y-84526050D01*
X81670000Y-84526050D02*
X81570000Y-84561764D01*
X81570000Y-84561764D02*
X81403333Y-84561764D01*
X82436667Y-83811764D02*
X82103333Y-83811764D01*
X82103333Y-83811764D02*
X82070000Y-84168907D01*
X82070000Y-84168907D02*
X82103333Y-84133192D01*
X82103333Y-84133192D02*
X82170000Y-84097478D01*
X82170000Y-84097478D02*
X82336667Y-84097478D01*
X82336667Y-84097478D02*
X82403333Y-84133192D01*
X82403333Y-84133192D02*
X82436667Y-84168907D01*
X82436667Y-84168907D02*
X82470000Y-84240335D01*
X82470000Y-84240335D02*
X82470000Y-84418907D01*
X82470000Y-84418907D02*
X82436667Y-84490335D01*
X82436667Y-84490335D02*
X82403333Y-84526050D01*
X82403333Y-84526050D02*
X82336667Y-84561764D01*
X82336667Y-84561764D02*
X82170000Y-84561764D01*
X82170000Y-84561764D02*
X82103333Y-84526050D01*
X82103333Y-84526050D02*
X82070000Y-84490335D01*
X81733333Y-83281764D02*
X81500000Y-82924621D01*
X81333333Y-83281764D02*
X81333333Y-82531764D01*
X81333333Y-82531764D02*
X81600000Y-82531764D01*
X81600000Y-82531764D02*
X81666667Y-82567478D01*
X81666667Y-82567478D02*
X81700000Y-82603192D01*
X81700000Y-82603192D02*
X81733333Y-82674621D01*
X81733333Y-82674621D02*
X81733333Y-82781764D01*
X81733333Y-82781764D02*
X81700000Y-82853192D01*
X81700000Y-82853192D02*
X81666667Y-82888907D01*
X81666667Y-82888907D02*
X81600000Y-82924621D01*
X81600000Y-82924621D02*
X81333333Y-82924621D01*
X82333333Y-82531764D02*
X82200000Y-82531764D01*
X82200000Y-82531764D02*
X82133333Y-82567478D01*
X82133333Y-82567478D02*
X82100000Y-82603192D01*
X82100000Y-82603192D02*
X82033333Y-82710335D01*
X82033333Y-82710335D02*
X82000000Y-82853192D01*
X82000000Y-82853192D02*
X82000000Y-83138907D01*
X82000000Y-83138907D02*
X82033333Y-83210335D01*
X82033333Y-83210335D02*
X82066667Y-83246050D01*
X82066667Y-83246050D02*
X82133333Y-83281764D01*
X82133333Y-83281764D02*
X82266667Y-83281764D01*
X82266667Y-83281764D02*
X82333333Y-83246050D01*
X82333333Y-83246050D02*
X82366667Y-83210335D01*
X82366667Y-83210335D02*
X82400000Y-83138907D01*
X82400000Y-83138907D02*
X82400000Y-82960335D01*
X82400000Y-82960335D02*
X82366667Y-82888907D01*
X82366667Y-82888907D02*
X82333333Y-82853192D01*
X82333333Y-82853192D02*
X82266667Y-82817478D01*
X82266667Y-82817478D02*
X82133333Y-82817478D01*
X82133333Y-82817478D02*
X82066667Y-82853192D01*
X82066667Y-82853192D02*
X82033333Y-82888907D01*
X82033333Y-82888907D02*
X82000000Y-82960335D01*
X82800335Y-92846666D02*
X82836050Y-92879999D01*
X82836050Y-92879999D02*
X82871764Y-92979999D01*
X82871764Y-92979999D02*
X82871764Y-93046666D01*
X82871764Y-93046666D02*
X82836050Y-93146666D01*
X82836050Y-93146666D02*
X82764621Y-93213333D01*
X82764621Y-93213333D02*
X82693192Y-93246666D01*
X82693192Y-93246666D02*
X82550335Y-93279999D01*
X82550335Y-93279999D02*
X82443192Y-93279999D01*
X82443192Y-93279999D02*
X82300335Y-93246666D01*
X82300335Y-93246666D02*
X82228907Y-93213333D01*
X82228907Y-93213333D02*
X82157478Y-93146666D01*
X82157478Y-93146666D02*
X82121764Y-93046666D01*
X82121764Y-93046666D02*
X82121764Y-92979999D01*
X82121764Y-92979999D02*
X82157478Y-92879999D01*
X82157478Y-92879999D02*
X82193192Y-92846666D01*
X82193192Y-92579999D02*
X82157478Y-92546666D01*
X82157478Y-92546666D02*
X82121764Y-92479999D01*
X82121764Y-92479999D02*
X82121764Y-92313333D01*
X82121764Y-92313333D02*
X82157478Y-92246666D01*
X82157478Y-92246666D02*
X82193192Y-92213333D01*
X82193192Y-92213333D02*
X82264621Y-92179999D01*
X82264621Y-92179999D02*
X82336050Y-92179999D01*
X82336050Y-92179999D02*
X82443192Y-92213333D01*
X82443192Y-92213333D02*
X82871764Y-92613333D01*
X82871764Y-92613333D02*
X82871764Y-92179999D01*
X85186667Y-93528907D02*
X84953333Y-93528907D01*
X84953333Y-93921764D02*
X84953333Y-93171764D01*
X84953333Y-93171764D02*
X85286667Y-93171764D01*
X85553333Y-93921764D02*
X85553333Y-93171764D01*
X85553333Y-93171764D02*
X85820000Y-93171764D01*
X85820000Y-93171764D02*
X85886667Y-93207478D01*
X85886667Y-93207478D02*
X85920000Y-93243192D01*
X85920000Y-93243192D02*
X85953333Y-93314621D01*
X85953333Y-93314621D02*
X85953333Y-93421764D01*
X85953333Y-93421764D02*
X85920000Y-93493192D01*
X85920000Y-93493192D02*
X85886667Y-93528907D01*
X85886667Y-93528907D02*
X85820000Y-93564621D01*
X85820000Y-93564621D02*
X85553333Y-93564621D01*
X86653333Y-93850335D02*
X86620000Y-93886050D01*
X86620000Y-93886050D02*
X86520000Y-93921764D01*
X86520000Y-93921764D02*
X86453333Y-93921764D01*
X86453333Y-93921764D02*
X86353333Y-93886050D01*
X86353333Y-93886050D02*
X86286667Y-93814621D01*
X86286667Y-93814621D02*
X86253333Y-93743192D01*
X86253333Y-93743192D02*
X86220000Y-93600335D01*
X86220000Y-93600335D02*
X86220000Y-93493192D01*
X86220000Y-93493192D02*
X86253333Y-93350335D01*
X86253333Y-93350335D02*
X86286667Y-93278907D01*
X86286667Y-93278907D02*
X86353333Y-93207478D01*
X86353333Y-93207478D02*
X86453333Y-93171764D01*
X86453333Y-93171764D02*
X86520000Y-93171764D01*
X86520000Y-93171764D02*
X86620000Y-93207478D01*
X86620000Y-93207478D02*
X86653333Y-93243192D01*
X87320000Y-93921764D02*
X86920000Y-93921764D01*
X87120000Y-93921764D02*
X87120000Y-93171764D01*
X87120000Y-93171764D02*
X87053333Y-93278907D01*
X87053333Y-93278907D02*
X86986667Y-93350335D01*
X86986667Y-93350335D02*
X86920000Y-93386050D01*
X83870335Y-92826666D02*
X83906050Y-92859999D01*
X83906050Y-92859999D02*
X83941764Y-92959999D01*
X83941764Y-92959999D02*
X83941764Y-93026666D01*
X83941764Y-93026666D02*
X83906050Y-93126666D01*
X83906050Y-93126666D02*
X83834621Y-93193333D01*
X83834621Y-93193333D02*
X83763192Y-93226666D01*
X83763192Y-93226666D02*
X83620335Y-93259999D01*
X83620335Y-93259999D02*
X83513192Y-93259999D01*
X83513192Y-93259999D02*
X83370335Y-93226666D01*
X83370335Y-93226666D02*
X83298907Y-93193333D01*
X83298907Y-93193333D02*
X83227478Y-93126666D01*
X83227478Y-93126666D02*
X83191764Y-93026666D01*
X83191764Y-93026666D02*
X83191764Y-92959999D01*
X83191764Y-92959999D02*
X83227478Y-92859999D01*
X83227478Y-92859999D02*
X83263192Y-92826666D01*
X83941764Y-92159999D02*
X83941764Y-92559999D01*
X83941764Y-92359999D02*
X83191764Y-92359999D01*
X83191764Y-92359999D02*
X83298907Y-92426666D01*
X83298907Y-92426666D02*
X83370335Y-92493333D01*
X83370335Y-92493333D02*
X83406050Y-92559999D01*
X79891764Y-89516666D02*
X79141764Y-89516666D01*
X79141764Y-89516666D02*
X79141764Y-89349999D01*
X79141764Y-89349999D02*
X79177478Y-89249999D01*
X79177478Y-89249999D02*
X79248907Y-89183333D01*
X79248907Y-89183333D02*
X79320335Y-89149999D01*
X79320335Y-89149999D02*
X79463192Y-89116666D01*
X79463192Y-89116666D02*
X79570335Y-89116666D01*
X79570335Y-89116666D02*
X79713192Y-89149999D01*
X79713192Y-89149999D02*
X79784621Y-89183333D01*
X79784621Y-89183333D02*
X79856050Y-89249999D01*
X79856050Y-89249999D02*
X79891764Y-89349999D01*
X79891764Y-89349999D02*
X79891764Y-89516666D01*
X79891764Y-88449999D02*
X79891764Y-88849999D01*
X79891764Y-88649999D02*
X79141764Y-88649999D01*
X79141764Y-88649999D02*
X79248907Y-88716666D01*
X79248907Y-88716666D02*
X79320335Y-88783333D01*
X79320335Y-88783333D02*
X79356050Y-88849999D01*
X81803333Y-81931764D02*
X81570000Y-81574621D01*
X81403333Y-81931764D02*
X81403333Y-81181764D01*
X81403333Y-81181764D02*
X81670000Y-81181764D01*
X81670000Y-81181764D02*
X81736667Y-81217478D01*
X81736667Y-81217478D02*
X81770000Y-81253192D01*
X81770000Y-81253192D02*
X81803333Y-81324621D01*
X81803333Y-81324621D02*
X81803333Y-81431764D01*
X81803333Y-81431764D02*
X81770000Y-81503192D01*
X81770000Y-81503192D02*
X81736667Y-81538907D01*
X81736667Y-81538907D02*
X81670000Y-81574621D01*
X81670000Y-81574621D02*
X81403333Y-81574621D01*
X82036667Y-81181764D02*
X82503333Y-81181764D01*
X82503333Y-81181764D02*
X82203333Y-81931764D01*
X67540000Y-93010000D02*
G75*
G03*
X67540000Y-93010000I-50000J0D01*
G01*
D12*
X66467836Y-82760000D02*
X66252164Y-82760000D01*
X66467836Y-82040000D02*
X66252164Y-82040000D01*
X66750000Y-81070000D02*
X66750000Y-82070000D01*
X66750000Y-82070000D02*
X67750000Y-81570000D01*
X67750000Y-81570000D02*
X66750000Y-81070000D01*
X68140000Y-76360000D02*
X77260000Y-76360000D01*
X68140000Y-90950000D02*
X69450000Y-90950000D01*
X68140000Y-109640000D02*
X68140000Y-76360000D01*
X69450000Y-77660000D02*
X75950000Y-77660000D01*
X69450000Y-90950000D02*
X69450000Y-77660000D01*
X69450000Y-95050000D02*
X68140000Y-95050000D01*
X69450000Y-95050000D02*
X69450000Y-95050000D01*
X69450000Y-108340000D02*
X69450000Y-95050000D01*
X75950000Y-77660000D02*
X75950000Y-108340000D01*
X75950000Y-108340000D02*
X69450000Y-108340000D01*
X77260000Y-76360000D02*
X77260000Y-109640000D01*
X77260000Y-109640000D02*
X68140000Y-109640000D01*
X66236359Y-86380000D02*
X66543641Y-86380000D01*
X66236359Y-87140000D02*
X66543641Y-87140000D01*
D13*
X66390000Y-86760000D02*
X66390000Y-86660000D01*
X66390000Y-86760000D02*
X66490000Y-86760000D01*
D12*
X85460000Y-96040000D02*
X86790000Y-96040000D01*
X85460000Y-97370000D02*
X85460000Y-96040000D01*
X85460000Y-98640000D02*
X85460000Y-106320000D01*
X85460000Y-98640000D02*
X88120000Y-98640000D01*
X85460000Y-106320000D02*
X88120000Y-106320000D01*
X88120000Y-98640000D02*
X88120000Y-106320000D01*
X78090000Y-87203641D02*
X78090000Y-86896359D01*
X78850000Y-87203641D02*
X78850000Y-86896359D01*
D13*
X78470000Y-87050000D02*
X78370000Y-87050000D01*
X78470000Y-87050000D02*
X78470000Y-86950000D01*
D12*
X66543641Y-92310000D02*
X66236359Y-92310000D01*
X66543641Y-91550000D02*
X66236359Y-91550000D01*
D13*
X66390000Y-91930000D02*
X66390000Y-92030000D01*
X66390000Y-91930000D02*
X66290000Y-91930000D01*
D12*
X78580000Y-97146359D02*
X78580000Y-97453641D01*
X77820000Y-97146359D02*
X77820000Y-97453641D01*
D13*
X78200000Y-97300000D02*
X78300000Y-97300000D01*
X78200000Y-97300000D02*
X78200000Y-97400000D01*
D12*
X79880000Y-99946359D02*
X79880000Y-100253641D01*
X79120000Y-99946359D02*
X79120000Y-100253641D01*
D13*
X79500000Y-100100000D02*
X79600000Y-100100000D01*
X79500000Y-100100000D02*
X79500000Y-100200000D01*
D10*
X67530000Y-87840000D02*
G75*
G03*
X67530000Y-87840000I-50000J0D01*
G01*
X67592500Y-97250000D02*
G75*
G03*
X67592500Y-97250000I-50000J0D01*
G01*
D12*
X79510000Y-97443641D02*
X79510000Y-97136359D01*
X80270000Y-97443641D02*
X80270000Y-97136359D01*
D13*
X79890000Y-97290000D02*
X79790000Y-97290000D01*
X79890000Y-97290000D02*
X79890000Y-97190000D01*
D12*
X81130000Y-99946359D02*
X81130000Y-100253641D01*
X80370000Y-99946359D02*
X80370000Y-100253641D01*
D13*
X80750000Y-100100000D02*
X80850000Y-100100000D01*
X80750000Y-100100000D02*
X80750000Y-100200000D01*
D10*
X80822500Y-84180000D02*
G75*
G03*
X80822500Y-84180000I-50000J0D01*
G01*
D12*
X79823641Y-83400000D02*
X79516359Y-83400000D01*
X79823641Y-82640000D02*
X79516359Y-82640000D01*
D13*
X79670000Y-83020000D02*
X79670000Y-83120000D01*
X79670000Y-83020000D02*
X79570000Y-83020000D01*
D12*
X82100000Y-91237836D02*
X82100000Y-91022164D01*
X82820000Y-91237836D02*
X82820000Y-91022164D01*
X88180000Y-79210000D02*
G75*
G03*
X88180000Y-79210000I-2750000J0D01*
G01*
D14*
X85211000Y-92665650D02*
X86765500Y-92652950D01*
X85208400Y-92652950D02*
X85208400Y-91837650D01*
X88581600Y-92652950D02*
X88581600Y-85754350D01*
X85208400Y-86574750D02*
X85208400Y-85754350D01*
X85198300Y-85754350D02*
X86765500Y-85754350D01*
D12*
X83170000Y-91217836D02*
X83170000Y-91002164D01*
X83890000Y-91217836D02*
X83890000Y-91002164D01*
D10*
X79550000Y-85937500D02*
G75*
G03*
X79550000Y-85937500I-50000J0D01*
G01*
D12*
X79536359Y-81100000D02*
X79843641Y-81100000D01*
X79536359Y-81860000D02*
X79843641Y-81860000D01*
M02*
