G04 #@! TF.GenerationSoftware,KiCad,Pcbnew,7.0.9*
G04 #@! TF.CreationDate,2024-12-26T17:05:42+08:00*
G04 #@! TF.ProjectId,Debug Adapter board,44656275-6720-4416-9461-707465722062,rev?*
G04 #@! TF.SameCoordinates,Original*
G04 #@! TF.FileFunction,Copper,L1,Top*
G04 #@! TF.FilePolarity,Positive*
%FSLAX46Y46*%
G04 Gerber Fmt 4.6, Leading zero omitted, Abs format (unit mm)*
G04 Created by KiCad (PCBNEW 7.0.9) date 2024-12-26 17:05:42*
%MOMM*%
%LPD*%
G01*
G04 APERTURE LIST*
G04 Aperture macros list*
%AMRoundRect*
0 Rectangle with rounded corners*
0 $1 Rounding radius*
0 $2 $3 $4 $5 $6 $7 $8 $9 X,Y pos of 4 corners*
0 Add a 4 corners polygon primitive as box body*
4,1,4,$2,$3,$4,$5,$6,$7,$8,$9,$2,$3,0*
0 Add four circle primitives for the rounded corners*
1,1,$1+$1,$2,$3*
1,1,$1+$1,$4,$5*
1,1,$1+$1,$6,$7*
1,1,$1+$1,$8,$9*
0 Add four rect primitives between the rounded corners*
20,1,$1+$1,$2,$3,$4,$5,0*
20,1,$1+$1,$4,$5,$6,$7,0*
20,1,$1+$1,$6,$7,$8,$9,0*
20,1,$1+$1,$8,$9,$2,$3,0*%
G04 Aperture macros list end*
G04 #@! TA.AperFunction,SMDPad,CuDef*
%ADD10RoundRect,0.147500X0.147500X0.172500X-0.147500X0.172500X-0.147500X-0.172500X0.147500X-0.172500X0*%
G04 #@! TD*
G04 #@! TA.AperFunction,SMDPad,CuDef*
%ADD11C,0.600000*%
G04 #@! TD*
G04 #@! TA.AperFunction,ComponentPad*
%ADD12RoundRect,0.250000X-0.600000X-0.600000X0.600000X-0.600000X0.600000X0.600000X-0.600000X0.600000X0*%
G04 #@! TD*
G04 #@! TA.AperFunction,ComponentPad*
%ADD13C,1.700000*%
G04 #@! TD*
G04 #@! TA.AperFunction,SMDPad,CuDef*
%ADD14RoundRect,0.135000X-0.135000X-0.185000X0.135000X-0.185000X0.135000X0.185000X-0.135000X0.185000X0*%
G04 #@! TD*
G04 #@! TA.AperFunction,ComponentPad*
%ADD15R,1.700000X1.700000*%
G04 #@! TD*
G04 #@! TA.AperFunction,ComponentPad*
%ADD16O,1.700000X1.700000*%
G04 #@! TD*
G04 #@! TA.AperFunction,SMDPad,CuDef*
%ADD17RoundRect,0.135000X0.185000X-0.135000X0.185000X0.135000X-0.185000X0.135000X-0.185000X-0.135000X0*%
G04 #@! TD*
G04 #@! TA.AperFunction,SMDPad,CuDef*
%ADD18RoundRect,0.135000X0.135000X0.185000X-0.135000X0.185000X-0.135000X-0.185000X0.135000X-0.185000X0*%
G04 #@! TD*
G04 #@! TA.AperFunction,SMDPad,CuDef*
%ADD19RoundRect,0.135000X-0.185000X0.135000X-0.185000X-0.135000X0.185000X-0.135000X0.185000X0.135000X0*%
G04 #@! TD*
G04 #@! TA.AperFunction,ComponentPad*
%ADD20C,5.000000*%
G04 #@! TD*
G04 #@! TA.AperFunction,SMDPad,CuDef*
%ADD21R,0.650200X0.299700*%
G04 #@! TD*
G04 #@! TA.AperFunction,SMDPad,CuDef*
%ADD22R,0.650200X0.279400*%
G04 #@! TD*
G04 #@! TA.AperFunction,SMDPad,CuDef*
%ADD23R,1.399500X0.500400*%
G04 #@! TD*
G04 #@! TA.AperFunction,SMDPad,CuDef*
%ADD24RoundRect,0.147500X-0.172500X0.147500X-0.172500X-0.147500X0.172500X-0.147500X0.172500X0.147500X0*%
G04 #@! TD*
G04 #@! TA.AperFunction,ViaPad*
%ADD25C,0.508000*%
G04 #@! TD*
G04 #@! TA.AperFunction,Conductor*
%ADD26C,0.508000*%
G04 #@! TD*
G04 #@! TA.AperFunction,Conductor*
%ADD27C,0.250000*%
G04 #@! TD*
G04 #@! TA.AperFunction,Conductor*
%ADD28C,0.228600*%
G04 #@! TD*
G04 APERTURE END LIST*
D10*
X66885000Y-93010000D03*
X65915000Y-93010000D03*
D11*
X66840000Y-82400000D03*
X65880000Y-82400000D03*
D12*
X71430000Y-81570000D03*
D13*
X73970000Y-81570000D03*
X71430000Y-84110000D03*
X73970000Y-84110000D03*
X71430000Y-86650000D03*
X73970000Y-86650000D03*
X71430000Y-89190000D03*
X73970000Y-89190000D03*
X71430000Y-91730000D03*
X73970000Y-91730000D03*
X71430000Y-94270000D03*
X73970000Y-94270000D03*
X71430000Y-96810000D03*
X73970000Y-96810000D03*
X71430000Y-99350000D03*
X73970000Y-99350000D03*
X71430000Y-101890000D03*
X73970000Y-101890000D03*
X71430000Y-104430000D03*
X73970000Y-104430000D03*
D14*
X65880000Y-86760000D03*
X66900000Y-86760000D03*
D15*
X86790000Y-97370000D03*
D16*
X86790000Y-99910000D03*
X86790000Y-102450000D03*
X86790000Y-104990000D03*
D17*
X78470000Y-87560000D03*
X78470000Y-86540000D03*
D18*
X66900000Y-91930000D03*
X65880000Y-91930000D03*
D19*
X78200000Y-96790000D03*
X78200000Y-97810000D03*
X79500000Y-99590000D03*
X79500000Y-100610000D03*
D10*
X66875000Y-87840000D03*
X65905000Y-87840000D03*
X66937500Y-97250000D03*
X65967500Y-97250000D03*
D17*
X79890000Y-97800000D03*
X79890000Y-96780000D03*
D19*
X80750000Y-99590000D03*
X80750000Y-100610000D03*
D10*
X80167500Y-84180000D03*
X79197500Y-84180000D03*
D18*
X80180000Y-83020000D03*
X79160000Y-83020000D03*
D11*
X82460000Y-91610000D03*
X82460000Y-90650000D03*
D20*
X85430000Y-79210000D03*
D21*
X84878200Y-91456650D03*
X84880800Y-90956250D03*
X84880800Y-90455850D03*
X84880800Y-89955450D03*
X84880800Y-89455150D03*
X84880800Y-88954750D03*
D22*
X84878189Y-88456846D03*
D21*
X84880800Y-87956550D03*
X84880800Y-87456150D03*
X84880800Y-86955750D03*
D23*
X87690000Y-86054050D03*
X87690000Y-92353250D03*
D11*
X83530000Y-91590000D03*
X83530000Y-90630000D03*
D24*
X79500000Y-86542500D03*
X79500000Y-87512500D03*
D14*
X79180000Y-81480000D03*
X80200000Y-81480000D03*
D25*
X84230000Y-91570000D03*
X78320000Y-89670000D03*
X77880000Y-87560000D03*
X79890000Y-98390000D03*
X80990000Y-81510000D03*
X69000000Y-83500000D03*
X86000000Y-90500000D03*
X77000000Y-107500000D03*
X79000000Y-94000000D03*
X67500000Y-103000000D03*
X76550000Y-96800000D03*
X76550000Y-84130000D03*
X77500000Y-77500000D03*
X67500000Y-107500000D03*
X82460000Y-89990000D03*
X64500000Y-89000000D03*
X83480000Y-89940000D03*
X64500000Y-95500000D03*
X71000000Y-77500000D03*
X87850000Y-91780000D03*
X83250000Y-99050000D03*
X67500000Y-101000000D03*
X80500000Y-103000000D03*
X76300000Y-98000000D03*
X67500000Y-99500000D03*
X69000000Y-89500000D03*
X64500000Y-99500000D03*
X67500000Y-106000000D03*
X64500000Y-83500000D03*
X87500000Y-94500000D03*
X64500000Y-107500000D03*
X78960000Y-90770000D03*
X76550000Y-82250000D03*
X64500000Y-106000000D03*
X86000000Y-84000000D03*
X67500000Y-77500000D03*
X83000000Y-84500000D03*
X87600000Y-88870000D03*
X76630000Y-101240000D03*
X82000000Y-93000000D03*
X86000000Y-94500000D03*
X82000000Y-95500000D03*
X82000000Y-107500000D03*
X69000000Y-88000000D03*
X64500000Y-94000000D03*
X75000000Y-79000000D03*
X75500000Y-107500000D03*
X76560000Y-93980000D03*
X80500000Y-107500000D03*
X67500000Y-79000000D03*
X77500000Y-79000000D03*
X64500000Y-101000000D03*
X64500000Y-103000000D03*
X73000000Y-77500000D03*
X65250000Y-79000000D03*
X71000000Y-107500000D03*
X64500000Y-85000000D03*
X65250000Y-77500000D03*
X80500000Y-77500000D03*
X72500000Y-107500000D03*
X79000000Y-92500000D03*
X73000000Y-79000000D03*
X87000000Y-107500000D03*
X76580000Y-92460000D03*
X80500000Y-87500000D03*
X69000000Y-93000000D03*
X87750000Y-82500000D03*
X64500000Y-104500000D03*
X87810000Y-85320000D03*
X71000000Y-79000000D03*
X80500000Y-105000000D03*
X80500000Y-79000000D03*
X85500000Y-107500000D03*
X82000000Y-103000000D03*
X82000000Y-105000000D03*
X75000000Y-77500000D03*
X69000000Y-85000000D03*
X78280000Y-84140000D03*
X69000000Y-94500000D03*
X64500000Y-90500000D03*
X79582200Y-91300000D03*
X82880000Y-87840000D03*
X78900000Y-101200000D03*
X83420000Y-87210000D03*
X80150000Y-90470000D03*
X80750000Y-98850000D03*
D26*
X80200000Y-81480000D02*
X80960000Y-81480000D01*
D27*
X79890000Y-98390000D02*
X79890000Y-99200000D01*
X79890000Y-99200000D02*
X79500000Y-99590000D01*
X78320000Y-89670000D02*
X80890000Y-89670000D01*
D26*
X65880000Y-83800000D02*
X66840000Y-82840000D01*
D27*
X78470000Y-87560000D02*
X77880000Y-87560000D01*
D26*
X83530000Y-91590000D02*
X83530000Y-92790000D01*
X66840000Y-82840000D02*
X66840000Y-82400000D01*
D27*
X81960000Y-91610000D02*
X82460000Y-91610000D01*
D26*
X71430000Y-81570000D02*
X67670000Y-81570000D01*
X72930000Y-80070000D02*
X71430000Y-81570000D01*
X83530000Y-92790000D02*
X83520000Y-92800000D01*
D27*
X81310000Y-90090000D02*
X81310000Y-90960000D01*
D26*
X80200000Y-81480000D02*
X80200000Y-80940000D01*
X83520000Y-92800000D02*
X83520000Y-94100000D01*
D27*
X79890000Y-97800000D02*
X79890000Y-98390000D01*
D26*
X83520000Y-94100000D02*
X86790000Y-97370000D01*
X80200000Y-80940000D02*
X79330000Y-80070000D01*
X84159611Y-91559611D02*
X85017350Y-91559611D01*
X84210000Y-91590000D02*
X84230000Y-91570000D01*
X79330000Y-80070000D02*
X72930000Y-80070000D01*
D27*
X81310000Y-90960000D02*
X81960000Y-91610000D01*
D26*
X83530000Y-91590000D02*
X82480000Y-91590000D01*
D27*
X80890000Y-89670000D02*
X81310000Y-90090000D01*
D26*
X65880000Y-86760000D02*
X65880000Y-83800000D01*
X67670000Y-81570000D02*
X66840000Y-82400000D01*
X83530000Y-91590000D02*
X84210000Y-91590000D01*
X80960000Y-81480000D02*
X80990000Y-81510000D01*
D28*
X87829150Y-91800850D02*
X87850000Y-91780000D01*
D27*
X82460000Y-90650000D02*
X82460000Y-89990000D01*
X82460000Y-90650000D02*
X83510000Y-90650000D01*
X79500000Y-87512500D02*
X80487500Y-87512500D01*
D28*
X87829150Y-92353250D02*
X87829150Y-91800850D01*
D27*
X84980800Y-90455850D02*
X85955850Y-90455850D01*
D28*
X83856250Y-90956250D02*
X83530000Y-90630000D01*
X83704150Y-90455850D02*
X83530000Y-90630000D01*
D27*
X80487500Y-87512500D02*
X80500000Y-87500000D01*
D28*
X79197500Y-84180000D02*
X78320000Y-84180000D01*
X87829150Y-86054050D02*
X87829150Y-85339150D01*
D27*
X84980800Y-90956250D02*
X85543750Y-90956250D01*
X85543750Y-90956250D02*
X86000000Y-90500000D01*
X83510000Y-90650000D02*
X83530000Y-90630000D01*
D28*
X78320000Y-84180000D02*
X78280000Y-84140000D01*
D27*
X83530000Y-89990000D02*
X83480000Y-89940000D01*
X83530000Y-90630000D02*
X83530000Y-89990000D01*
D28*
X85019950Y-90956250D02*
X83856250Y-90956250D01*
X85019950Y-90455850D02*
X83704150Y-90455850D01*
X87829150Y-85339150D02*
X87810000Y-85320000D01*
D27*
X85955850Y-90455850D02*
X86000000Y-90500000D01*
D28*
X78472500Y-86542500D02*
X78470000Y-86540000D01*
X72780000Y-87840000D02*
X76510000Y-87840000D01*
X79500000Y-86542500D02*
X78472500Y-86542500D01*
X77810000Y-86540000D02*
X78470000Y-86540000D01*
X83912500Y-86542500D02*
X79500000Y-86542500D01*
X71430000Y-89190000D02*
X72780000Y-87840000D01*
X84325750Y-86955750D02*
X83912500Y-86542500D01*
X76510000Y-87840000D02*
X77810000Y-86540000D01*
X85019950Y-86955750D02*
X84325750Y-86955750D01*
X72750000Y-90410000D02*
X74770000Y-90410000D01*
X74770000Y-90410000D02*
X76723150Y-88456850D01*
X66900000Y-91930000D02*
X67100000Y-91730000D01*
X66900000Y-91930000D02*
X66900000Y-92995000D01*
X67100000Y-91730000D02*
X71430000Y-91730000D01*
X76723150Y-88456850D02*
X85017350Y-88456850D01*
X66900000Y-92995000D02*
X66885000Y-93010000D01*
X71430000Y-91730000D02*
X72750000Y-90410000D01*
X74710000Y-95500000D02*
X72740000Y-95500000D01*
X85019950Y-88954750D02*
X79995250Y-88954750D01*
X75420000Y-90730000D02*
X75420000Y-94790000D01*
X67377500Y-96810000D02*
X71430000Y-96810000D01*
X79995250Y-88954750D02*
X77195250Y-88954750D01*
X75420000Y-94790000D02*
X74710000Y-95500000D01*
X77195250Y-88954750D02*
X75420000Y-90730000D01*
X66937500Y-97250000D02*
X67377500Y-96810000D01*
X72740000Y-95500000D02*
X71430000Y-96810000D01*
X67010000Y-86650000D02*
X71430000Y-86650000D01*
X72730000Y-85350000D02*
X71430000Y-86650000D01*
X66900000Y-86760000D02*
X66900000Y-87815000D01*
X84980800Y-89455150D02*
X85482972Y-89455150D01*
X85519711Y-88420211D02*
X85519711Y-86492089D01*
X85519711Y-86492089D02*
X84377622Y-85350000D01*
X85517100Y-88488478D02*
X85517100Y-88420211D01*
X84377622Y-85350000D02*
X72730000Y-85350000D01*
X85482972Y-89455150D02*
X85519711Y-89418411D01*
X66900000Y-87815000D02*
X66875000Y-87840000D01*
X85517100Y-88420211D02*
X85519711Y-88420211D01*
X66900000Y-86760000D02*
X67010000Y-86650000D01*
X85519711Y-89418411D02*
X85519711Y-88491089D01*
X85519711Y-88491089D02*
X85517100Y-88488478D01*
X80167500Y-83032500D02*
X80180000Y-83020000D01*
X86250000Y-89365454D02*
X85660004Y-89955450D01*
X85660004Y-89955450D02*
X85019950Y-89955450D01*
X82950000Y-83020000D02*
X86250000Y-86320000D01*
X80167500Y-84180000D02*
X80167500Y-83032500D01*
X86250000Y-86320000D02*
X86250000Y-89365454D01*
X80180000Y-83020000D02*
X82950000Y-83020000D01*
X78340000Y-96790000D02*
X78850000Y-97300000D01*
X82996550Y-87956550D02*
X85019950Y-87956550D01*
X79582200Y-95282200D02*
X79582200Y-95407800D01*
X79582200Y-91300000D02*
X79582200Y-95282200D01*
X79490000Y-100610000D02*
X78900000Y-101200000D01*
X78200000Y-96790000D02*
X78340000Y-96790000D01*
X82880000Y-87840000D02*
X82996550Y-87956550D01*
X78850000Y-97300000D02*
X78850000Y-99960000D01*
X79500000Y-100610000D02*
X79490000Y-100610000D01*
X79582200Y-95282200D02*
X79582200Y-95317800D01*
X79582200Y-95407800D02*
X78200000Y-96790000D01*
X78850000Y-99960000D02*
X79500000Y-100610000D01*
X80150000Y-90470000D02*
X80150000Y-96520000D01*
X83666150Y-87456150D02*
X85019950Y-87456150D01*
D27*
X80750000Y-98850000D02*
X80750000Y-98250000D01*
D28*
X80150000Y-96520000D02*
X79890000Y-96780000D01*
D27*
X80750000Y-97640000D02*
X79890000Y-96780000D01*
X80750000Y-98250000D02*
X80750000Y-97640000D01*
X80750000Y-99590000D02*
X80750000Y-98850000D01*
D28*
X83420000Y-87210000D02*
X83666150Y-87456150D01*
X79090000Y-81570000D02*
X79180000Y-81480000D01*
X73970000Y-81570000D02*
X79090000Y-81570000D01*
X72650000Y-82890000D02*
X71430000Y-84110000D01*
X78490000Y-82890000D02*
X72650000Y-82890000D01*
X79160000Y-83020000D02*
X78620000Y-83020000D01*
X78620000Y-83020000D02*
X78490000Y-82890000D01*
D27*
X78200000Y-97810000D02*
X78200000Y-98390000D01*
X75950000Y-100640000D02*
X72680000Y-100640000D01*
X77945000Y-98645000D02*
X75950000Y-100640000D01*
X72680000Y-100640000D02*
X71430000Y-101890000D01*
X78200000Y-98390000D02*
X77945000Y-98645000D01*
X72710000Y-103150000D02*
X78210000Y-103150000D01*
X78210000Y-103150000D02*
X80750000Y-100610000D01*
X71430000Y-104430000D02*
X72710000Y-103150000D01*
G04 #@! TA.AperFunction,Conductor*
G36*
X78399235Y-98831628D02*
G01*
X78456070Y-98874176D01*
X78480879Y-98940697D01*
X78481200Y-98949683D01*
X78481200Y-99908680D01*
X78478518Y-99934537D01*
X78476418Y-99944548D01*
X78478873Y-99964239D01*
X78480716Y-99979025D01*
X78481200Y-99986816D01*
X78481200Y-99990566D01*
X78481199Y-99990566D01*
X78484973Y-100013175D01*
X78491643Y-100066685D01*
X78493843Y-100074077D01*
X78493846Y-100074083D01*
X78493849Y-100074095D01*
X78496358Y-100081404D01*
X78496359Y-100081405D01*
X78522024Y-100128830D01*
X78529456Y-100144032D01*
X78545702Y-100177264D01*
X78550209Y-100183577D01*
X78554939Y-100189654D01*
X78591810Y-100223595D01*
X78594621Y-100226183D01*
X78856879Y-100488441D01*
X78890903Y-100550752D01*
X78885839Y-100621567D01*
X78843292Y-100678403D01*
X78803282Y-100698431D01*
X78686589Y-100732695D01*
X78686587Y-100732697D01*
X78563579Y-100811749D01*
X78467824Y-100922256D01*
X78407081Y-101055265D01*
X78407079Y-101055272D01*
X78386271Y-101199996D01*
X78386271Y-101200003D01*
X78407079Y-101344727D01*
X78407081Y-101344734D01*
X78467824Y-101477743D01*
X78563579Y-101588250D01*
X78686589Y-101667304D01*
X78826889Y-101708500D01*
X78826893Y-101708500D01*
X78829458Y-101708869D01*
X78831821Y-101709948D01*
X78835536Y-101711039D01*
X78835379Y-101711573D01*
X78894039Y-101738361D01*
X78932424Y-101798087D01*
X78932425Y-101869084D01*
X78900625Y-101922680D01*
X78089709Y-102733596D01*
X78027399Y-102767620D01*
X78000616Y-102770500D01*
X74941549Y-102770500D01*
X74873428Y-102750498D01*
X74826935Y-102696842D01*
X74816831Y-102626568D01*
X74840999Y-102568568D01*
X74912659Y-102473672D01*
X75003859Y-102290519D01*
X75003861Y-102290514D01*
X75059851Y-102093730D01*
X75078729Y-101890000D01*
X75059851Y-101686269D01*
X75003861Y-101489485D01*
X75003859Y-101489480D01*
X74912659Y-101306327D01*
X74848550Y-101221432D01*
X74823460Y-101155017D01*
X74838260Y-101085580D01*
X74888251Y-101035167D01*
X74949100Y-101019500D01*
X75897573Y-101019500D01*
X75923431Y-101022181D01*
X75934100Y-101024419D01*
X75969683Y-101019983D01*
X75977474Y-101019500D01*
X75981436Y-101019500D01*
X75981443Y-101019500D01*
X76004715Y-101015616D01*
X76059783Y-101008752D01*
X76059784Y-101008751D01*
X76059788Y-101008751D01*
X76067386Y-101006488D01*
X76074924Y-101003901D01*
X76074925Y-101003900D01*
X76074927Y-101003900D01*
X76123705Y-100977502D01*
X76173568Y-100953126D01*
X76173571Y-100953123D01*
X76180018Y-100948520D01*
X76186312Y-100943622D01*
X76186313Y-100943620D01*
X76186316Y-100943619D01*
X76223880Y-100902813D01*
X78235581Y-98891114D01*
X78235582Y-98891111D01*
X78242755Y-98883939D01*
X78242760Y-98883932D01*
X78266108Y-98860584D01*
X78328419Y-98826562D01*
X78399235Y-98831628D01*
G37*
G04 #@! TD.AperFunction*
G04 #@! TA.AperFunction,Conductor*
G36*
X74904102Y-90765189D02*
G01*
X74955213Y-90762883D01*
X75016609Y-90798536D01*
X75048983Y-90861722D01*
X75051200Y-90885256D01*
X75051200Y-90979785D01*
X75031198Y-91047906D01*
X74977542Y-91094399D01*
X74916476Y-91105483D01*
X74879897Y-91102944D01*
X74437027Y-91545814D01*
X74429493Y-91520156D01*
X74351761Y-91399202D01*
X74243100Y-91305048D01*
X74153175Y-91263980D01*
X74601451Y-90815705D01*
X74663764Y-90781680D01*
X74690547Y-90778800D01*
X74718681Y-90778800D01*
X74744537Y-90781481D01*
X74754549Y-90783581D01*
X74789025Y-90779283D01*
X74796816Y-90778800D01*
X74800562Y-90778800D01*
X74823177Y-90775026D01*
X74829847Y-90774194D01*
X74876687Y-90768356D01*
X74876690Y-90768354D01*
X74884079Y-90766155D01*
X74884289Y-90766083D01*
X74884326Y-90766081D01*
X74885279Y-90765797D01*
X74885624Y-90765687D01*
X74886966Y-90765295D01*
X74890645Y-90764200D01*
X74899197Y-90762288D01*
X74903563Y-90761627D01*
X74904102Y-90765189D01*
G37*
G04 #@! TD.AperFunction*
G04 #@! TA.AperFunction,Conductor*
G36*
X85040480Y-90379801D02*
G01*
X85086973Y-90433457D01*
X85097077Y-90503731D01*
X85067583Y-90568311D01*
X85061455Y-90574894D01*
X85030650Y-90605699D01*
X85030650Y-90806401D01*
X85060265Y-90836016D01*
X85094291Y-90898328D01*
X85089226Y-90969143D01*
X85046679Y-91025979D01*
X84980159Y-91050790D01*
X84971170Y-91051111D01*
X84790430Y-91051111D01*
X84722309Y-91031109D01*
X84675816Y-90977453D01*
X84665712Y-90907179D01*
X84695206Y-90842599D01*
X84701335Y-90836016D01*
X84730950Y-90806401D01*
X84730950Y-90605699D01*
X84700145Y-90574894D01*
X84666119Y-90512582D01*
X84671184Y-90441767D01*
X84713731Y-90384931D01*
X84780251Y-90360120D01*
X84789222Y-90359799D01*
X84972360Y-90359799D01*
X85040480Y-90379801D01*
G37*
G04 #@! TD.AperFunction*
G04 #@! TA.AperFunction,Conductor*
G36*
X84243321Y-89343552D02*
G01*
X84289814Y-89397208D01*
X84301200Y-89449549D01*
X84301200Y-89630063D01*
X84301202Y-89630075D01*
X84311275Y-89680720D01*
X84311275Y-89729880D01*
X84301200Y-89780527D01*
X84301200Y-90130363D01*
X84301201Y-90130373D01*
X84311540Y-90182350D01*
X84311540Y-90231511D01*
X84301700Y-90280977D01*
X84301700Y-90306000D01*
X84359759Y-90306000D01*
X84427880Y-90326002D01*
X84429762Y-90327236D01*
X84456397Y-90345033D01*
X84456399Y-90345034D01*
X84495016Y-90352715D01*
X84512136Y-90356121D01*
X84575046Y-90389029D01*
X84610178Y-90450724D01*
X84606378Y-90521618D01*
X84564852Y-90579204D01*
X84498785Y-90605199D01*
X84487555Y-90605700D01*
X84301700Y-90605700D01*
X84291390Y-90616010D01*
X84229077Y-90650035D01*
X84158261Y-90644969D01*
X84101426Y-90602422D01*
X84077373Y-90543359D01*
X84069740Y-90485377D01*
X84069738Y-90485373D01*
X84036855Y-90405987D01*
X84036854Y-90405986D01*
X83619094Y-90823747D01*
X83556782Y-90857773D01*
X83485967Y-90852708D01*
X83440903Y-90823747D01*
X83023142Y-90405985D01*
X82977845Y-90414995D01*
X82549094Y-90843747D01*
X82486782Y-90877773D01*
X82415967Y-90872708D01*
X82370903Y-90843747D01*
X81953144Y-90425987D01*
X81931909Y-90477254D01*
X81887361Y-90532535D01*
X81819998Y-90554956D01*
X81751207Y-90537398D01*
X81702828Y-90485436D01*
X81689500Y-90429036D01*
X81689500Y-90143144D01*
X82235986Y-90143144D01*
X82459999Y-90367157D01*
X82460000Y-90367157D01*
X82684012Y-90143144D01*
X82635728Y-90123144D01*
X83305986Y-90123144D01*
X83529999Y-90347157D01*
X83530000Y-90347157D01*
X83754012Y-90123144D01*
X83674621Y-90090259D01*
X83530000Y-90071220D01*
X83385376Y-90090260D01*
X83305986Y-90123143D01*
X83305986Y-90123144D01*
X82635728Y-90123144D01*
X82604621Y-90110259D01*
X82460000Y-90091220D01*
X82315376Y-90110260D01*
X82235986Y-90143143D01*
X82235986Y-90143144D01*
X81689500Y-90143144D01*
X81689500Y-90142426D01*
X81692182Y-90116566D01*
X81692523Y-90114940D01*
X81694419Y-90105900D01*
X81689983Y-90070317D01*
X81689500Y-90062525D01*
X81689500Y-90058555D01*
X81685616Y-90035282D01*
X81678752Y-89980220D01*
X81678752Y-89980218D01*
X81678750Y-89980214D01*
X81676486Y-89972609D01*
X81673900Y-89965075D01*
X81673900Y-89965073D01*
X81647499Y-89916289D01*
X81623126Y-89866432D01*
X81623123Y-89866429D01*
X81623123Y-89866428D01*
X81618522Y-89859983D01*
X81613621Y-89853686D01*
X81572813Y-89816119D01*
X81437414Y-89680720D01*
X81295337Y-89538643D01*
X81261314Y-89476333D01*
X81266378Y-89405518D01*
X81308925Y-89348682D01*
X81375445Y-89323871D01*
X81384434Y-89323550D01*
X84175200Y-89323550D01*
X84243321Y-89343552D01*
G37*
G04 #@! TD.AperFunction*
G04 #@! TA.AperFunction,Conductor*
G36*
X76213569Y-88228802D02*
G01*
X76260062Y-88282458D01*
X76270166Y-88352732D01*
X76240672Y-88417312D01*
X76234556Y-88423881D01*
X75968438Y-88690000D01*
X75285686Y-89372751D01*
X75223374Y-89406776D01*
X75152558Y-89401711D01*
X75095723Y-89359164D01*
X75070912Y-89292644D01*
X75071129Y-89272029D01*
X75078729Y-89190005D01*
X75059851Y-88986269D01*
X75003861Y-88789485D01*
X75003859Y-88789480D01*
X74912661Y-88606330D01*
X74879897Y-88562944D01*
X74879896Y-88562944D01*
X74437026Y-89005813D01*
X74429493Y-88980156D01*
X74351761Y-88859202D01*
X74243100Y-88765048D01*
X74153175Y-88723980D01*
X74631451Y-88245705D01*
X74693764Y-88211680D01*
X74720547Y-88208800D01*
X76145448Y-88208800D01*
X76213569Y-88228802D01*
G37*
G04 #@! TD.AperFunction*
G04 #@! TA.AperFunction,Conductor*
G36*
X82872094Y-86931302D02*
G01*
X82918587Y-86984958D01*
X82928691Y-87055232D01*
X82928195Y-87057507D01*
X82904988Y-87218920D01*
X82903151Y-87218655D01*
X82886269Y-87276152D01*
X82832613Y-87322645D01*
X82815187Y-87327775D01*
X82815536Y-87328961D01*
X82666589Y-87372696D01*
X82666587Y-87372697D01*
X82543579Y-87451749D01*
X82447824Y-87562256D01*
X82387081Y-87695265D01*
X82387079Y-87695272D01*
X82366271Y-87839996D01*
X82366271Y-87840003D01*
X82381241Y-87944118D01*
X82371138Y-88014392D01*
X82324645Y-88068048D01*
X82256525Y-88088050D01*
X80110625Y-88088050D01*
X80042504Y-88068048D01*
X79996011Y-88014392D01*
X79985907Y-87944118D01*
X79998358Y-87904847D01*
X80059108Y-87785618D01*
X80070690Y-87712500D01*
X79426000Y-87712500D01*
X79357879Y-87692498D01*
X79311386Y-87638842D01*
X79300000Y-87586500D01*
X79300000Y-87438500D01*
X79320002Y-87370379D01*
X79373658Y-87323886D01*
X79426000Y-87312500D01*
X80070689Y-87312500D01*
X80059108Y-87239381D01*
X80001367Y-87126060D01*
X79995540Y-87118039D01*
X79996685Y-87117206D01*
X79967677Y-87064083D01*
X79972742Y-86993268D01*
X80015289Y-86936432D01*
X80081809Y-86911621D01*
X80090798Y-86911300D01*
X82803973Y-86911300D01*
X82872094Y-86931302D01*
G37*
G04 #@! TD.AperFunction*
G04 #@! TA.AperFunction,Conductor*
G36*
X84240791Y-85738802D02*
G01*
X84261765Y-85755705D01*
X84842365Y-86336305D01*
X84876391Y-86398617D01*
X84871326Y-86469432D01*
X84828779Y-86526268D01*
X84762259Y-86551079D01*
X84753271Y-86551400D01*
X84530637Y-86551400D01*
X84530630Y-86551401D01*
X84523553Y-86552809D01*
X84452840Y-86546476D01*
X84409885Y-86518323D01*
X84209571Y-86318009D01*
X84193184Y-86297831D01*
X84192704Y-86297096D01*
X84187587Y-86289264D01*
X84160166Y-86267921D01*
X84154321Y-86262759D01*
X84151670Y-86260108D01*
X84151666Y-86260105D01*
X84151664Y-86260103D01*
X84151663Y-86260102D01*
X84133007Y-86246783D01*
X84090461Y-86213667D01*
X84083749Y-86210034D01*
X84083676Y-86209999D01*
X84083603Y-86209959D01*
X84076717Y-86206593D01*
X84076716Y-86206592D01*
X84076713Y-86206591D01*
X84076711Y-86206590D01*
X84025030Y-86191204D01*
X83974042Y-86173699D01*
X83966406Y-86172425D01*
X83958747Y-86171470D01*
X83906835Y-86173617D01*
X83904852Y-86173700D01*
X80071905Y-86173700D01*
X80003784Y-86153698D01*
X79982810Y-86136795D01*
X79911736Y-86065721D01*
X79911737Y-86065721D01*
X79798276Y-86007911D01*
X79798274Y-86007910D01*
X79798273Y-86007910D01*
X79704137Y-85993000D01*
X79704133Y-85993000D01*
X79295865Y-85993000D01*
X79201727Y-86007909D01*
X79088264Y-86065721D01*
X79066504Y-86087481D01*
X79004191Y-86121505D01*
X78933375Y-86116439D01*
X78894879Y-86091698D01*
X78894815Y-86091787D01*
X78893259Y-86090656D01*
X78888315Y-86087479D01*
X78886795Y-86085959D01*
X78823710Y-86053816D01*
X78776862Y-86029946D01*
X78685653Y-86015500D01*
X78685649Y-86015500D01*
X78254348Y-86015500D01*
X78163139Y-86029945D01*
X78053204Y-86085959D01*
X78053202Y-86085961D01*
X78004869Y-86134295D01*
X77942557Y-86168321D01*
X77915774Y-86171200D01*
X77861319Y-86171200D01*
X77835462Y-86168518D01*
X77833326Y-86168070D01*
X77825449Y-86166418D01*
X77802860Y-86169234D01*
X77790974Y-86170716D01*
X77783184Y-86171200D01*
X77779438Y-86171200D01*
X77756823Y-86174973D01*
X77751484Y-86175638D01*
X77703312Y-86181643D01*
X77695886Y-86183853D01*
X77688598Y-86186357D01*
X77679642Y-86191204D01*
X77641169Y-86212024D01*
X77624786Y-86220033D01*
X77592736Y-86235701D01*
X77586426Y-86240205D01*
X77580347Y-86244938D01*
X77559188Y-86267923D01*
X77543816Y-86284621D01*
X76394141Y-87434296D01*
X76331831Y-87468320D01*
X76305048Y-87471200D01*
X74986330Y-87471200D01*
X74918209Y-87451198D01*
X74871716Y-87397542D01*
X74861612Y-87327268D01*
X74885779Y-87269269D01*
X74912660Y-87233672D01*
X75003859Y-87050519D01*
X75003861Y-87050514D01*
X75059851Y-86853730D01*
X75078729Y-86650000D01*
X75059851Y-86446269D01*
X75003861Y-86249485D01*
X75003859Y-86249480D01*
X74912661Y-86066330D01*
X74879897Y-86022944D01*
X74879896Y-86022944D01*
X74437026Y-86465813D01*
X74429493Y-86440156D01*
X74351761Y-86319202D01*
X74243100Y-86225048D01*
X74153175Y-86183980D01*
X74581451Y-85755705D01*
X74643764Y-85721680D01*
X74670547Y-85718800D01*
X84172670Y-85718800D01*
X84240791Y-85738802D01*
G37*
G04 #@! TD.AperFunction*
G04 #@! TA.AperFunction,Conductor*
G36*
X70267622Y-82098502D02*
G01*
X70314115Y-82152158D01*
X70325501Y-82204500D01*
X70325501Y-82218246D01*
X70325502Y-82218270D01*
X70331959Y-82278339D01*
X70331959Y-82278341D01*
X70382657Y-82414266D01*
X70382658Y-82414267D01*
X70469596Y-82530404D01*
X70585733Y-82617342D01*
X70721658Y-82668040D01*
X70781745Y-82674500D01*
X72039747Y-82674499D01*
X72107868Y-82694501D01*
X72154361Y-82748157D01*
X72164465Y-82818431D01*
X72134972Y-82883011D01*
X72128842Y-82889594D01*
X71965870Y-83052566D01*
X71903558Y-83086592D01*
X71832743Y-83081527D01*
X71831258Y-83080962D01*
X71733563Y-83043114D01*
X71733560Y-83043113D01*
X71733557Y-83043112D01*
X71733556Y-83043112D01*
X71532347Y-83005500D01*
X71327653Y-83005500D01*
X71126444Y-83043112D01*
X71126439Y-83043113D01*
X70935577Y-83117054D01*
X70935566Y-83117059D01*
X70761536Y-83224814D01*
X70610266Y-83362715D01*
X70486913Y-83526063D01*
X70395671Y-83709301D01*
X70339654Y-83906180D01*
X70320768Y-84109995D01*
X70320768Y-84110004D01*
X70339654Y-84313819D01*
X70375783Y-84440798D01*
X70395672Y-84510701D01*
X70486912Y-84693935D01*
X70486913Y-84693936D01*
X70610266Y-84857284D01*
X70761536Y-84995185D01*
X70935566Y-85102940D01*
X70935568Y-85102940D01*
X70935573Y-85102944D01*
X71126444Y-85176888D01*
X71327653Y-85214500D01*
X71327655Y-85214500D01*
X71532345Y-85214500D01*
X71532347Y-85214500D01*
X71733556Y-85176888D01*
X71924427Y-85102944D01*
X72098462Y-84995186D01*
X72249732Y-84857285D01*
X72373088Y-84693935D01*
X72464328Y-84510701D01*
X72520345Y-84313821D01*
X72526640Y-84245880D01*
X72539232Y-84110004D01*
X72539232Y-84109995D01*
X72520345Y-83906180D01*
X72513432Y-83881881D01*
X72464328Y-83709299D01*
X72464326Y-83709295D01*
X72462696Y-83705086D01*
X72456737Y-83634340D01*
X72489972Y-83571603D01*
X72491091Y-83570470D01*
X72624766Y-83436796D01*
X72765858Y-83295704D01*
X72828170Y-83261679D01*
X72854953Y-83258800D01*
X72976325Y-83258800D01*
X73044446Y-83278802D01*
X73090939Y-83332458D01*
X73101043Y-83402732D01*
X73076875Y-83460732D01*
X73027340Y-83526327D01*
X72936140Y-83709480D01*
X72936138Y-83709485D01*
X72880148Y-83906269D01*
X72861270Y-84110000D01*
X72880148Y-84313730D01*
X72936138Y-84510514D01*
X72936140Y-84510519D01*
X73027338Y-84693669D01*
X73091979Y-84779268D01*
X73117068Y-84845684D01*
X73102268Y-84915121D01*
X73052277Y-84965533D01*
X72991428Y-84981200D01*
X72781319Y-84981200D01*
X72755462Y-84978518D01*
X72753326Y-84978070D01*
X72745449Y-84976418D01*
X72722860Y-84979234D01*
X72710974Y-84980716D01*
X72703184Y-84981200D01*
X72699438Y-84981200D01*
X72676823Y-84984973D01*
X72671484Y-84985638D01*
X72623312Y-84991643D01*
X72615886Y-84993853D01*
X72608598Y-84996357D01*
X72587219Y-85007926D01*
X72561169Y-85022024D01*
X72544786Y-85030033D01*
X72512736Y-85045701D01*
X72506426Y-85050205D01*
X72500347Y-85054938D01*
X72463816Y-85094621D01*
X71965870Y-85592566D01*
X71903558Y-85626592D01*
X71832743Y-85621527D01*
X71831258Y-85620962D01*
X71733563Y-85583114D01*
X71733560Y-85583113D01*
X71733557Y-85583112D01*
X71733556Y-85583112D01*
X71532347Y-85545500D01*
X71327653Y-85545500D01*
X71126444Y-85583112D01*
X71126439Y-85583113D01*
X70935577Y-85657054D01*
X70935566Y-85657059D01*
X70761536Y-85764814D01*
X70610266Y-85902715D01*
X70486912Y-86066064D01*
X70486908Y-86066069D01*
X70414561Y-86211363D01*
X70366292Y-86263427D01*
X70301771Y-86281200D01*
X67342475Y-86281200D01*
X67274354Y-86261198D01*
X67268411Y-86257134D01*
X67266797Y-86255961D01*
X67266796Y-86255960D01*
X67156862Y-86199946D01*
X67065653Y-86185500D01*
X67065649Y-86185500D01*
X66734348Y-86185500D01*
X66643139Y-86199945D01*
X66571703Y-86236344D01*
X66501926Y-86249448D01*
X66436141Y-86222748D01*
X66395235Y-86164720D01*
X66388500Y-86124077D01*
X66388500Y-84062818D01*
X66408502Y-83994697D01*
X66425400Y-83973727D01*
X67151333Y-83247793D01*
X67172308Y-83230892D01*
X67176421Y-83228250D01*
X67210934Y-83188418D01*
X67213987Y-83185140D01*
X67225280Y-83173848D01*
X67234855Y-83161055D01*
X67237650Y-83157585D01*
X67272176Y-83117743D01*
X67274204Y-83113299D01*
X67287960Y-83090116D01*
X67290889Y-83086204D01*
X67309315Y-83036800D01*
X67311020Y-83032683D01*
X67332919Y-82984734D01*
X67333614Y-82979893D01*
X67340275Y-82953794D01*
X67341989Y-82949201D01*
X67345749Y-82896615D01*
X67346224Y-82892192D01*
X67348500Y-82876368D01*
X67348500Y-82860412D01*
X67348661Y-82855916D01*
X67352420Y-82803351D01*
X67351378Y-82798562D01*
X67348500Y-82771783D01*
X67348500Y-82662818D01*
X67368502Y-82594697D01*
X67385405Y-82573722D01*
X67843724Y-82115404D01*
X67906036Y-82081379D01*
X67932819Y-82078500D01*
X70199501Y-82078500D01*
X70267622Y-82098502D01*
G37*
G04 #@! TD.AperFunction*
G04 #@! TA.AperFunction,Conductor*
G36*
X78351230Y-83278802D02*
G01*
X78360500Y-83285369D01*
X78372327Y-83294574D01*
X78378184Y-83299747D01*
X78380819Y-83302382D01*
X78380825Y-83302387D01*
X78380830Y-83302392D01*
X78392015Y-83310378D01*
X78399490Y-83315715D01*
X78442038Y-83348832D01*
X78442041Y-83348834D01*
X78442043Y-83348835D01*
X78442044Y-83348835D01*
X78448835Y-83352510D01*
X78455780Y-83355904D01*
X78455785Y-83355908D01*
X78478649Y-83362715D01*
X78507465Y-83371294D01*
X78558454Y-83388799D01*
X78558456Y-83388799D01*
X78558458Y-83388800D01*
X78558460Y-83388800D01*
X78566116Y-83390077D01*
X78573750Y-83391028D01*
X78573751Y-83391029D01*
X78573751Y-83391028D01*
X78573752Y-83391029D01*
X78602363Y-83389846D01*
X78671252Y-83407015D01*
X78697730Y-83431001D01*
X78698948Y-83429784D01*
X78790333Y-83521169D01*
X78824359Y-83583481D01*
X78819294Y-83654296D01*
X78790333Y-83699359D01*
X78721133Y-83768558D01*
X78721132Y-83768560D01*
X78663391Y-83881881D01*
X78648500Y-83975903D01*
X78648500Y-83980000D01*
X79271500Y-83980000D01*
X79339621Y-84000002D01*
X79386114Y-84053658D01*
X79397500Y-84106000D01*
X79397500Y-84254000D01*
X79377498Y-84322121D01*
X79323842Y-84368614D01*
X79271500Y-84380000D01*
X78648500Y-84380000D01*
X78648500Y-84384096D01*
X78663391Y-84478118D01*
X78721132Y-84591439D01*
X78721133Y-84591441D01*
X78811058Y-84681366D01*
X78811060Y-84681367D01*
X78931888Y-84742933D01*
X78983503Y-84791682D01*
X79000569Y-84860597D01*
X78977668Y-84927798D01*
X78922070Y-84971950D01*
X78874685Y-84981200D01*
X74948572Y-84981200D01*
X74880451Y-84961198D01*
X74833958Y-84907542D01*
X74823854Y-84837268D01*
X74848021Y-84779268D01*
X74912661Y-84693669D01*
X75003859Y-84510519D01*
X75003861Y-84510514D01*
X75059851Y-84313730D01*
X75078729Y-84110000D01*
X75059851Y-83906269D01*
X75003861Y-83709485D01*
X75003859Y-83709480D01*
X74912659Y-83526327D01*
X74863125Y-83460732D01*
X74838035Y-83394316D01*
X74852835Y-83324879D01*
X74902826Y-83274467D01*
X74963675Y-83258800D01*
X78283109Y-83258800D01*
X78351230Y-83278802D01*
G37*
G04 #@! TD.AperFunction*
G04 #@! TA.AperFunction,Conductor*
G36*
X82813169Y-83408802D02*
G01*
X82834143Y-83425705D01*
X84174543Y-84766105D01*
X84208569Y-84828417D01*
X84203504Y-84899232D01*
X84160957Y-84956068D01*
X84094437Y-84980879D01*
X84085448Y-84981200D01*
X80491414Y-84981200D01*
X80423293Y-84961198D01*
X80376800Y-84907542D01*
X80366696Y-84837268D01*
X80396190Y-84772688D01*
X80434212Y-84742933D01*
X80444998Y-84737437D01*
X80554235Y-84681779D01*
X80644279Y-84591735D01*
X80702090Y-84478273D01*
X80717000Y-84384137D01*
X80716999Y-83975864D01*
X80702090Y-83881727D01*
X80644279Y-83768265D01*
X80644278Y-83768263D01*
X80573205Y-83697190D01*
X80539179Y-83634878D01*
X80536300Y-83608095D01*
X80536300Y-83586726D01*
X80556302Y-83518605D01*
X80573205Y-83497631D01*
X80641052Y-83429784D01*
X80642936Y-83431668D01*
X80687405Y-83397382D01*
X80733111Y-83388800D01*
X82745048Y-83388800D01*
X82813169Y-83408802D01*
G37*
G04 #@! TD.AperFunction*
G04 #@! TA.AperFunction,Conductor*
G36*
X87570513Y-76184502D02*
G01*
X87591487Y-76201405D01*
X88488595Y-77098513D01*
X88522621Y-77160825D01*
X88525500Y-77187608D01*
X88525500Y-85423850D01*
X88505498Y-85491971D01*
X88451842Y-85538464D01*
X88399500Y-85549850D01*
X87890000Y-85549850D01*
X87890000Y-86558249D01*
X88399500Y-86558249D01*
X88467621Y-86578251D01*
X88514114Y-86631907D01*
X88525500Y-86684249D01*
X88525500Y-91723050D01*
X88505498Y-91791171D01*
X88451842Y-91837664D01*
X88399500Y-91849050D01*
X87890000Y-91849050D01*
X87890000Y-92857449D01*
X88399500Y-92857449D01*
X88467621Y-92877451D01*
X88514114Y-92931107D01*
X88525500Y-92983449D01*
X88525500Y-108252392D01*
X88505498Y-108320513D01*
X88488595Y-108341487D01*
X87221487Y-109608595D01*
X87159175Y-109642621D01*
X87132392Y-109645500D01*
X65027607Y-109645500D01*
X64959486Y-109625498D01*
X64938512Y-109608595D01*
X63711405Y-108381487D01*
X63677379Y-108319175D01*
X63674500Y-108292392D01*
X63674500Y-99350004D01*
X70320768Y-99350004D01*
X70339654Y-99553819D01*
X70346470Y-99577773D01*
X70395672Y-99750701D01*
X70486912Y-99933935D01*
X70486913Y-99933936D01*
X70610266Y-100097284D01*
X70761536Y-100235185D01*
X70935566Y-100342940D01*
X70935568Y-100342940D01*
X70935573Y-100342944D01*
X71126444Y-100416888D01*
X71327653Y-100454500D01*
X71327655Y-100454500D01*
X71532345Y-100454500D01*
X71532347Y-100454500D01*
X71733556Y-100416888D01*
X71924427Y-100342944D01*
X72098462Y-100235186D01*
X72249732Y-100097285D01*
X72373088Y-99933935D01*
X72464328Y-99750701D01*
X72520345Y-99553821D01*
X72532343Y-99424348D01*
X72539232Y-99350004D01*
X72539232Y-99349995D01*
X72520345Y-99146180D01*
X72518631Y-99140156D01*
X72464328Y-98949299D01*
X72373088Y-98766065D01*
X72317923Y-98693015D01*
X72249733Y-98602715D01*
X72098463Y-98464814D01*
X71924433Y-98357059D01*
X71924428Y-98357057D01*
X71924427Y-98357056D01*
X71826973Y-98319302D01*
X71733559Y-98283113D01*
X71733560Y-98283113D01*
X71733557Y-98283112D01*
X71733556Y-98283112D01*
X71532347Y-98245500D01*
X71327653Y-98245500D01*
X71126444Y-98283112D01*
X71126439Y-98283113D01*
X70935577Y-98357054D01*
X70935566Y-98357059D01*
X70761536Y-98464814D01*
X70610266Y-98602715D01*
X70486913Y-98766063D01*
X70395671Y-98949301D01*
X70339654Y-99146180D01*
X70320768Y-99349995D01*
X70320768Y-99350004D01*
X63674500Y-99350004D01*
X63674500Y-97450000D01*
X65418500Y-97450000D01*
X65418500Y-97454096D01*
X65433391Y-97548118D01*
X65491132Y-97661439D01*
X65491133Y-97661441D01*
X65581058Y-97751366D01*
X65581060Y-97751367D01*
X65694384Y-97809109D01*
X65767500Y-97820688D01*
X65767500Y-97450000D01*
X65418500Y-97450000D01*
X63674500Y-97450000D01*
X63674500Y-97050000D01*
X65418500Y-97050000D01*
X65767500Y-97050000D01*
X65767500Y-96679310D01*
X65694381Y-96690891D01*
X65581060Y-96748632D01*
X65581058Y-96748633D01*
X65491133Y-96838558D01*
X65491132Y-96838560D01*
X65433391Y-96951881D01*
X65418500Y-97045903D01*
X65418500Y-97050000D01*
X63674500Y-97050000D01*
X63674500Y-94270004D01*
X70320768Y-94270004D01*
X70339654Y-94473819D01*
X70375783Y-94600798D01*
X70395672Y-94670701D01*
X70486912Y-94853935D01*
X70486913Y-94853936D01*
X70610266Y-95017284D01*
X70761536Y-95155185D01*
X70935566Y-95262940D01*
X70935568Y-95262940D01*
X70935573Y-95262944D01*
X71126444Y-95336888D01*
X71327653Y-95374500D01*
X71327655Y-95374500D01*
X71532345Y-95374500D01*
X71532347Y-95374500D01*
X71733556Y-95336888D01*
X71924427Y-95262944D01*
X72098462Y-95155186D01*
X72249732Y-95017285D01*
X72254851Y-95010507D01*
X72316199Y-94929268D01*
X72373088Y-94853935D01*
X72464328Y-94670701D01*
X72520345Y-94473821D01*
X72529661Y-94373286D01*
X72539232Y-94270004D01*
X72539232Y-94269995D01*
X72520345Y-94066180D01*
X72518631Y-94060156D01*
X72464328Y-93869299D01*
X72373088Y-93686065D01*
X72296389Y-93584499D01*
X72249733Y-93522715D01*
X72098463Y-93384814D01*
X71924433Y-93277059D01*
X71924428Y-93277057D01*
X71924427Y-93277056D01*
X71762015Y-93214137D01*
X71733559Y-93203113D01*
X71733560Y-93203113D01*
X71733557Y-93203112D01*
X71733556Y-93203112D01*
X71532347Y-93165500D01*
X71327653Y-93165500D01*
X71126444Y-93203112D01*
X71126439Y-93203113D01*
X70935577Y-93277054D01*
X70935566Y-93277059D01*
X70761536Y-93384814D01*
X70610266Y-93522715D01*
X70486913Y-93686063D01*
X70395671Y-93869301D01*
X70339654Y-94066180D01*
X70320768Y-94269995D01*
X70320768Y-94270004D01*
X63674500Y-94270004D01*
X63674500Y-93210000D01*
X65366000Y-93210000D01*
X65366000Y-93214096D01*
X65380891Y-93308118D01*
X65438632Y-93421439D01*
X65438633Y-93421441D01*
X65528558Y-93511366D01*
X65528560Y-93511367D01*
X65641884Y-93569109D01*
X65715000Y-93580688D01*
X65715000Y-93210000D01*
X65366000Y-93210000D01*
X63674500Y-93210000D01*
X63674500Y-92130000D01*
X65356000Y-92130000D01*
X65356000Y-92145614D01*
X65370426Y-92236704D01*
X65426368Y-92346497D01*
X65469436Y-92389566D01*
X65503461Y-92451879D01*
X65498395Y-92522695D01*
X65469437Y-92567755D01*
X65438631Y-92598560D01*
X65380891Y-92711881D01*
X65366000Y-92805903D01*
X65366000Y-92810000D01*
X65715000Y-92810000D01*
X65715000Y-92542415D01*
X65682879Y-92483592D01*
X65680000Y-92456809D01*
X65680000Y-92130000D01*
X65356000Y-92130000D01*
X63674500Y-92130000D01*
X63674500Y-91730000D01*
X65356000Y-91730000D01*
X65680000Y-91730000D01*
X65680000Y-91361444D01*
X65623297Y-91370426D01*
X65623293Y-91370427D01*
X65513501Y-91426368D01*
X65426368Y-91513501D01*
X65370426Y-91623295D01*
X65356000Y-91714385D01*
X65356000Y-91730000D01*
X63674500Y-91730000D01*
X63674500Y-88040000D01*
X65356000Y-88040000D01*
X65356000Y-88044096D01*
X65370891Y-88138118D01*
X65428632Y-88251439D01*
X65428633Y-88251441D01*
X65518558Y-88341366D01*
X65518560Y-88341367D01*
X65631884Y-88399109D01*
X65705000Y-88410688D01*
X65705000Y-88040000D01*
X65356000Y-88040000D01*
X63674500Y-88040000D01*
X63674500Y-86975651D01*
X65355500Y-86975651D01*
X65369945Y-87066860D01*
X65425959Y-87176795D01*
X65464083Y-87214919D01*
X65498109Y-87277231D01*
X65493044Y-87348046D01*
X65464083Y-87393109D01*
X65428633Y-87428558D01*
X65428632Y-87428560D01*
X65370891Y-87541881D01*
X65356000Y-87635903D01*
X65356000Y-87640000D01*
X65979000Y-87640000D01*
X66047121Y-87660002D01*
X66093614Y-87713658D01*
X66105000Y-87766000D01*
X66105000Y-88410688D01*
X66178115Y-88399109D01*
X66291437Y-88341368D01*
X66300548Y-88332258D01*
X66362859Y-88298231D01*
X66433675Y-88303294D01*
X66478741Y-88332256D01*
X66488263Y-88341778D01*
X66488262Y-88341778D01*
X66600783Y-88399109D01*
X66601727Y-88399590D01*
X66695863Y-88414500D01*
X67054136Y-88414499D01*
X67148273Y-88399590D01*
X67261735Y-88341779D01*
X67351779Y-88251735D01*
X67409590Y-88138273D01*
X67424500Y-88044137D01*
X67424499Y-87635864D01*
X67409590Y-87541727D01*
X67351779Y-87428265D01*
X67351778Y-87428263D01*
X67316270Y-87392755D01*
X67282244Y-87330443D01*
X67287309Y-87259628D01*
X67316269Y-87214566D01*
X67354040Y-87176796D01*
X67399489Y-87087596D01*
X67448237Y-87035982D01*
X67511756Y-87018800D01*
X70301771Y-87018800D01*
X70369892Y-87038802D01*
X70414561Y-87088637D01*
X70486908Y-87233930D01*
X70486912Y-87233935D01*
X70610266Y-87397284D01*
X70761536Y-87535185D01*
X70935566Y-87642940D01*
X70935568Y-87642940D01*
X70935573Y-87642944D01*
X71126444Y-87716888D01*
X71327653Y-87754500D01*
X71327655Y-87754500D01*
X71532345Y-87754500D01*
X71532347Y-87754500D01*
X71733556Y-87716888D01*
X71924427Y-87642944D01*
X72098462Y-87535186D01*
X72249732Y-87397285D01*
X72373088Y-87233935D01*
X72464328Y-87050701D01*
X72520345Y-86853821D01*
X72526640Y-86785880D01*
X72539232Y-86650004D01*
X72539232Y-86649995D01*
X72520345Y-86446180D01*
X72495328Y-86358252D01*
X72464328Y-86249299D01*
X72464326Y-86249295D01*
X72462696Y-86245086D01*
X72456737Y-86174340D01*
X72489972Y-86111603D01*
X72491091Y-86110470D01*
X72845858Y-85755704D01*
X72908170Y-85721679D01*
X72934953Y-85718800D01*
X73269452Y-85718800D01*
X73337573Y-85738802D01*
X73358547Y-85755705D01*
X73786823Y-86183981D01*
X73696900Y-86225048D01*
X73588239Y-86319202D01*
X73510507Y-86440156D01*
X73502972Y-86465816D01*
X73060101Y-86022944D01*
X73027337Y-86066332D01*
X73027335Y-86066334D01*
X72936143Y-86249471D01*
X72936138Y-86249485D01*
X72880148Y-86446269D01*
X72861270Y-86650000D01*
X72880148Y-86853730D01*
X72936138Y-87050514D01*
X72936140Y-87050519D01*
X73027339Y-87233672D01*
X73054221Y-87269269D01*
X73079310Y-87335684D01*
X73064510Y-87405121D01*
X73014519Y-87455533D01*
X72953670Y-87471200D01*
X72831319Y-87471200D01*
X72805462Y-87468518D01*
X72803326Y-87468070D01*
X72795449Y-87466418D01*
X72772860Y-87469234D01*
X72760974Y-87470716D01*
X72753184Y-87471200D01*
X72749438Y-87471200D01*
X72726823Y-87474973D01*
X72721484Y-87475638D01*
X72673312Y-87481643D01*
X72665886Y-87483853D01*
X72658598Y-87486357D01*
X72640589Y-87496103D01*
X72611169Y-87512024D01*
X72594786Y-87520033D01*
X72562736Y-87535701D01*
X72556426Y-87540205D01*
X72550347Y-87544938D01*
X72513816Y-87584621D01*
X71965870Y-88132566D01*
X71903558Y-88166592D01*
X71832743Y-88161527D01*
X71831258Y-88160962D01*
X71733563Y-88123114D01*
X71733560Y-88123113D01*
X71733557Y-88123112D01*
X71733556Y-88123112D01*
X71532347Y-88085500D01*
X71327653Y-88085500D01*
X71126444Y-88123112D01*
X71126439Y-88123113D01*
X70935577Y-88197054D01*
X70935566Y-88197059D01*
X70761536Y-88304814D01*
X70610266Y-88442715D01*
X70486913Y-88606063D01*
X70395671Y-88789301D01*
X70339654Y-88986180D01*
X70320768Y-89189995D01*
X70320768Y-89190004D01*
X70339654Y-89393819D01*
X70380861Y-89538646D01*
X70395672Y-89590701D01*
X70486912Y-89773935D01*
X70486913Y-89773936D01*
X70610266Y-89937284D01*
X70761536Y-90075185D01*
X70935566Y-90182940D01*
X70935568Y-90182940D01*
X70935573Y-90182944D01*
X71126444Y-90256888D01*
X71327653Y-90294500D01*
X71327655Y-90294500D01*
X71532345Y-90294500D01*
X71532347Y-90294500D01*
X71733556Y-90256888D01*
X71924427Y-90182944D01*
X72098462Y-90075186D01*
X72249732Y-89937285D01*
X72373088Y-89773935D01*
X72464328Y-89590701D01*
X72520345Y-89393821D01*
X72531631Y-89272029D01*
X72539232Y-89190004D01*
X72539232Y-89189995D01*
X72520345Y-88986180D01*
X72464329Y-88789301D01*
X72464328Y-88789299D01*
X72464326Y-88789295D01*
X72462696Y-88785086D01*
X72456737Y-88714340D01*
X72489972Y-88651603D01*
X72491091Y-88650470D01*
X72895858Y-88245704D01*
X72958170Y-88211679D01*
X72984953Y-88208800D01*
X73219452Y-88208800D01*
X73287573Y-88228802D01*
X73308547Y-88245705D01*
X73786823Y-88723981D01*
X73696900Y-88765048D01*
X73588239Y-88859202D01*
X73510507Y-88980156D01*
X73502972Y-89005816D01*
X73060101Y-88562944D01*
X73027337Y-88606332D01*
X73027335Y-88606334D01*
X72936143Y-88789471D01*
X72936138Y-88789485D01*
X72880148Y-88986269D01*
X72861270Y-89190000D01*
X72880148Y-89393730D01*
X72936138Y-89590514D01*
X72936140Y-89590519D01*
X73027340Y-89773672D01*
X73076875Y-89839268D01*
X73101965Y-89905684D01*
X73087165Y-89975121D01*
X73037174Y-90025533D01*
X72976325Y-90041200D01*
X72801319Y-90041200D01*
X72775462Y-90038518D01*
X72773326Y-90038070D01*
X72765449Y-90036418D01*
X72742860Y-90039234D01*
X72730974Y-90040716D01*
X72723184Y-90041200D01*
X72719438Y-90041200D01*
X72696823Y-90044973D01*
X72691484Y-90045638D01*
X72643312Y-90051643D01*
X72635886Y-90053853D01*
X72628598Y-90056357D01*
X72624533Y-90058557D01*
X72581169Y-90082024D01*
X72564786Y-90090033D01*
X72532736Y-90105701D01*
X72526426Y-90110205D01*
X72520347Y-90114938D01*
X72483816Y-90154621D01*
X71965870Y-90672566D01*
X71903558Y-90706592D01*
X71832743Y-90701527D01*
X71831258Y-90700962D01*
X71733563Y-90663114D01*
X71733560Y-90663113D01*
X71733557Y-90663112D01*
X71733556Y-90663112D01*
X71532347Y-90625500D01*
X71327653Y-90625500D01*
X71126444Y-90663112D01*
X71126439Y-90663113D01*
X70935577Y-90737054D01*
X70935566Y-90737059D01*
X70761536Y-90844814D01*
X70610266Y-90982715D01*
X70486912Y-91146064D01*
X70486908Y-91146069D01*
X70414561Y-91291363D01*
X70366292Y-91343427D01*
X70301771Y-91361200D01*
X67151320Y-91361200D01*
X67125462Y-91358518D01*
X67115449Y-91356418D01*
X67108512Y-91357283D01*
X67073231Y-91356700D01*
X67065653Y-91355500D01*
X67065650Y-91355500D01*
X66734348Y-91355500D01*
X66643139Y-91369945D01*
X66533204Y-91425959D01*
X66533202Y-91425961D01*
X66478742Y-91480422D01*
X66416430Y-91514448D01*
X66345615Y-91509383D01*
X66300552Y-91480422D01*
X66246498Y-91426368D01*
X66136706Y-91370427D01*
X66136702Y-91370426D01*
X66080000Y-91361444D01*
X66080000Y-92397584D01*
X66112121Y-92456408D01*
X66115000Y-92483191D01*
X66115000Y-93580688D01*
X66188115Y-93569109D01*
X66301437Y-93511368D01*
X66310548Y-93502258D01*
X66372859Y-93468231D01*
X66443675Y-93473294D01*
X66488741Y-93502256D01*
X66498263Y-93511778D01*
X66498262Y-93511778D01*
X66519728Y-93522715D01*
X66611727Y-93569590D01*
X66705863Y-93584500D01*
X67064136Y-93584499D01*
X67158273Y-93569590D01*
X67271735Y-93511779D01*
X67361779Y-93421735D01*
X67419590Y-93308273D01*
X67434500Y-93214137D01*
X67434499Y-92805864D01*
X67419590Y-92711727D01*
X67361779Y-92598265D01*
X67361778Y-92598263D01*
X67321270Y-92557755D01*
X67287244Y-92495443D01*
X67292309Y-92424628D01*
X67321267Y-92379568D01*
X67354040Y-92346796D01*
X67410054Y-92236862D01*
X67415086Y-92205086D01*
X67445499Y-92140935D01*
X67505768Y-92103409D01*
X67539535Y-92098800D01*
X70301771Y-92098800D01*
X70369892Y-92118802D01*
X70414561Y-92168637D01*
X70486908Y-92313930D01*
X70486912Y-92313935D01*
X70610266Y-92477284D01*
X70761536Y-92615185D01*
X70935566Y-92722940D01*
X70935568Y-92722940D01*
X70935573Y-92722944D01*
X71126444Y-92796888D01*
X71327653Y-92834500D01*
X71327655Y-92834500D01*
X71532345Y-92834500D01*
X71532347Y-92834500D01*
X71733556Y-92796888D01*
X71924427Y-92722944D01*
X72098462Y-92615186D01*
X72249732Y-92477285D01*
X72373088Y-92313935D01*
X72464328Y-92130701D01*
X72520345Y-91933821D01*
X72539232Y-91730000D01*
X72536255Y-91697878D01*
X72520345Y-91526180D01*
X72491831Y-91425961D01*
X72464328Y-91329299D01*
X72464326Y-91329295D01*
X72462696Y-91325086D01*
X72456737Y-91254340D01*
X72489972Y-91191603D01*
X72491091Y-91190470D01*
X72666846Y-91014716D01*
X72865858Y-90815704D01*
X72928170Y-90781679D01*
X72954953Y-90778800D01*
X73249452Y-90778800D01*
X73317573Y-90798802D01*
X73338547Y-90815705D01*
X73786823Y-91263981D01*
X73696900Y-91305048D01*
X73588239Y-91399202D01*
X73510507Y-91520156D01*
X73502972Y-91545814D01*
X73060102Y-91102944D01*
X73060101Y-91102944D01*
X73027337Y-91146332D01*
X73027335Y-91146334D01*
X72936143Y-91329471D01*
X72936138Y-91329485D01*
X72880148Y-91526269D01*
X72861270Y-91730000D01*
X72880148Y-91933730D01*
X72936138Y-92130514D01*
X72936140Y-92130519D01*
X73027340Y-92313672D01*
X73060100Y-92357054D01*
X73060101Y-92357054D01*
X73502972Y-91914183D01*
X73510507Y-91939844D01*
X73588239Y-92060798D01*
X73696900Y-92154952D01*
X73786823Y-92196018D01*
X73342736Y-92640105D01*
X73475793Y-92722491D01*
X73475802Y-92722496D01*
X73666577Y-92796403D01*
X73666576Y-92796403D01*
X73867701Y-92834000D01*
X74072299Y-92834000D01*
X74273423Y-92796403D01*
X74464197Y-92722496D01*
X74464206Y-92722491D01*
X74597263Y-92640105D01*
X74153176Y-92196018D01*
X74243100Y-92154952D01*
X74351761Y-92060798D01*
X74429493Y-91939844D01*
X74437027Y-91914185D01*
X74879896Y-92357054D01*
X74916476Y-92354516D01*
X74985818Y-92369754D01*
X75035914Y-92420061D01*
X75051200Y-92480214D01*
X75051200Y-93519785D01*
X75031198Y-93587906D01*
X74977542Y-93634399D01*
X74916476Y-93645483D01*
X74879896Y-93642944D01*
X74437026Y-94085813D01*
X74429493Y-94060156D01*
X74351761Y-93939202D01*
X74243100Y-93845048D01*
X74153175Y-93803980D01*
X74597263Y-93359893D01*
X74464203Y-93277506D01*
X74464197Y-93277503D01*
X74273422Y-93203596D01*
X74273423Y-93203596D01*
X74072299Y-93166000D01*
X73867701Y-93166000D01*
X73666576Y-93203596D01*
X73475803Y-93277503D01*
X73475796Y-93277506D01*
X73342735Y-93359893D01*
X73786823Y-93803981D01*
X73696900Y-93845048D01*
X73588239Y-93939202D01*
X73510507Y-94060156D01*
X73502972Y-94085816D01*
X73060101Y-93642944D01*
X73027337Y-93686332D01*
X73027335Y-93686334D01*
X72936143Y-93869471D01*
X72936138Y-93869485D01*
X72880148Y-94066269D01*
X72861270Y-94270000D01*
X72880148Y-94473730D01*
X72936138Y-94670514D01*
X72936140Y-94670519D01*
X73027340Y-94853672D01*
X73084427Y-94929268D01*
X73109517Y-94995683D01*
X73094717Y-95065120D01*
X73044726Y-95115533D01*
X72983877Y-95131200D01*
X72791319Y-95131200D01*
X72765462Y-95128518D01*
X72763326Y-95128070D01*
X72755449Y-95126418D01*
X72732860Y-95129234D01*
X72720974Y-95130716D01*
X72713184Y-95131200D01*
X72709438Y-95131200D01*
X72686823Y-95134973D01*
X72681484Y-95135638D01*
X72633312Y-95141643D01*
X72625886Y-95143853D01*
X72618598Y-95146357D01*
X72602284Y-95155186D01*
X72571169Y-95172024D01*
X72554786Y-95180033D01*
X72522736Y-95195701D01*
X72516426Y-95200205D01*
X72510347Y-95204938D01*
X72473816Y-95244621D01*
X71965870Y-95752566D01*
X71903558Y-95786592D01*
X71832743Y-95781527D01*
X71831258Y-95780962D01*
X71733563Y-95743114D01*
X71733560Y-95743113D01*
X71733557Y-95743112D01*
X71733556Y-95743112D01*
X71532347Y-95705500D01*
X71327653Y-95705500D01*
X71126444Y-95743112D01*
X71126439Y-95743113D01*
X70935577Y-95817054D01*
X70935566Y-95817059D01*
X70761536Y-95924814D01*
X70610266Y-96062715D01*
X70486912Y-96226064D01*
X70486908Y-96226069D01*
X70414561Y-96371363D01*
X70366292Y-96423427D01*
X70301771Y-96441200D01*
X67428819Y-96441200D01*
X67402962Y-96438518D01*
X67400826Y-96438070D01*
X67392949Y-96436418D01*
X67370360Y-96439234D01*
X67358474Y-96440716D01*
X67350684Y-96441200D01*
X67346938Y-96441200D01*
X67324323Y-96444973D01*
X67318984Y-96445638D01*
X67270812Y-96451643D01*
X67263386Y-96453853D01*
X67256098Y-96456357D01*
X67234719Y-96467926D01*
X67208669Y-96482024D01*
X67192286Y-96490033D01*
X67160236Y-96505701D01*
X67153926Y-96510205D01*
X67147847Y-96514938D01*
X67111316Y-96554621D01*
X67027341Y-96638595D01*
X66965029Y-96672621D01*
X66938247Y-96675500D01*
X66758365Y-96675500D01*
X66664227Y-96690409D01*
X66550764Y-96748221D01*
X66541239Y-96757746D01*
X66478926Y-96791769D01*
X66408110Y-96786702D01*
X66363051Y-96757743D01*
X66353941Y-96748633D01*
X66353939Y-96748632D01*
X66240618Y-96690891D01*
X66167500Y-96679310D01*
X66167500Y-97820688D01*
X66240615Y-97809109D01*
X66353937Y-97751368D01*
X66363048Y-97742258D01*
X66425359Y-97708231D01*
X66496175Y-97713294D01*
X66541241Y-97742256D01*
X66550763Y-97751778D01*
X66550762Y-97751778D01*
X66650294Y-97802491D01*
X66664227Y-97809590D01*
X66758363Y-97824500D01*
X67116636Y-97824499D01*
X67210773Y-97809590D01*
X67324235Y-97751779D01*
X67414279Y-97661735D01*
X67472090Y-97548273D01*
X67487000Y-97454137D01*
X67486999Y-97304799D01*
X67507001Y-97236680D01*
X67560656Y-97190187D01*
X67612999Y-97178800D01*
X70301771Y-97178800D01*
X70369892Y-97198802D01*
X70414561Y-97248637D01*
X70486908Y-97393930D01*
X70486912Y-97393935D01*
X70610266Y-97557284D01*
X70761536Y-97695185D01*
X70935566Y-97802940D01*
X70935568Y-97802940D01*
X70935573Y-97802944D01*
X71126444Y-97876888D01*
X71327653Y-97914500D01*
X71327655Y-97914500D01*
X71532345Y-97914500D01*
X71532347Y-97914500D01*
X71733556Y-97876888D01*
X71924427Y-97802944D01*
X72098462Y-97695186D01*
X72249732Y-97557285D01*
X72373088Y-97393935D01*
X72464328Y-97210701D01*
X72520345Y-97013821D01*
X72527209Y-96939747D01*
X72539232Y-96810004D01*
X72539232Y-96809995D01*
X72522029Y-96624350D01*
X72520345Y-96606179D01*
X72464328Y-96409299D01*
X72464326Y-96409295D01*
X72462696Y-96405086D01*
X72456737Y-96334340D01*
X72489972Y-96271603D01*
X72491091Y-96270470D01*
X72855858Y-95905704D01*
X72918170Y-95871679D01*
X72944953Y-95868800D01*
X73259452Y-95868800D01*
X73327573Y-95888802D01*
X73348547Y-95905705D01*
X73786823Y-96343981D01*
X73696900Y-96385048D01*
X73588239Y-96479202D01*
X73510507Y-96600156D01*
X73502972Y-96625814D01*
X73060102Y-96182944D01*
X73060101Y-96182944D01*
X73027337Y-96226332D01*
X73027335Y-96226334D01*
X72936143Y-96409471D01*
X72936138Y-96409485D01*
X72880148Y-96606269D01*
X72861270Y-96810000D01*
X72880148Y-97013730D01*
X72936138Y-97210514D01*
X72936140Y-97210519D01*
X73027340Y-97393672D01*
X73060100Y-97437054D01*
X73060101Y-97437054D01*
X73502972Y-96994183D01*
X73510507Y-97019844D01*
X73588239Y-97140798D01*
X73696900Y-97234952D01*
X73786823Y-97276018D01*
X73342736Y-97720105D01*
X73475793Y-97802491D01*
X73475802Y-97802496D01*
X73666577Y-97876403D01*
X73666576Y-97876403D01*
X73867701Y-97914000D01*
X74072299Y-97914000D01*
X74273423Y-97876403D01*
X74464197Y-97802496D01*
X74464206Y-97802491D01*
X74597263Y-97720105D01*
X74153176Y-97276018D01*
X74243100Y-97234952D01*
X74351761Y-97140798D01*
X74429493Y-97019844D01*
X74437027Y-96994185D01*
X74879897Y-97437055D01*
X74879898Y-97437054D01*
X74912660Y-97393672D01*
X75003859Y-97210519D01*
X75003861Y-97210514D01*
X75059851Y-97013730D01*
X75078729Y-96810000D01*
X75059851Y-96606269D01*
X75003861Y-96409485D01*
X75003859Y-96409480D01*
X74912661Y-96226330D01*
X74879897Y-96182944D01*
X74437027Y-96625814D01*
X74429493Y-96600156D01*
X74351761Y-96479202D01*
X74243100Y-96385048D01*
X74153175Y-96343980D01*
X74587660Y-95909495D01*
X74649973Y-95875470D01*
X74684028Y-95875342D01*
X74684119Y-95873150D01*
X74694546Y-95873581D01*
X74694547Y-95873580D01*
X74694549Y-95873581D01*
X74729025Y-95869283D01*
X74736816Y-95868800D01*
X74740562Y-95868800D01*
X74763177Y-95865026D01*
X74769847Y-95864194D01*
X74816687Y-95858356D01*
X74816690Y-95858354D01*
X74824061Y-95856160D01*
X74831395Y-95853642D01*
X74831405Y-95853641D01*
X74878830Y-95827975D01*
X74927264Y-95804298D01*
X74927266Y-95804295D01*
X74933561Y-95799800D01*
X74939649Y-95795062D01*
X74939654Y-95795060D01*
X74976183Y-95755378D01*
X75644499Y-95087061D01*
X75664668Y-95070684D01*
X75673236Y-95065087D01*
X75694583Y-95037658D01*
X75699730Y-95031831D01*
X75702392Y-95029170D01*
X75710878Y-95017284D01*
X75715717Y-95010507D01*
X75733575Y-94987562D01*
X75748835Y-94967957D01*
X75748837Y-94967950D01*
X75752527Y-94961131D01*
X75755904Y-94954221D01*
X75755909Y-94954215D01*
X75771298Y-94902522D01*
X75788800Y-94851542D01*
X75788800Y-94851540D01*
X75790076Y-94843893D01*
X75791029Y-94836247D01*
X75788800Y-94782352D01*
X75788800Y-90934952D01*
X75808802Y-90866831D01*
X75825705Y-90845857D01*
X77311107Y-89360455D01*
X77373419Y-89326429D01*
X77400202Y-89323550D01*
X77723142Y-89323550D01*
X77791263Y-89343552D01*
X77837756Y-89397208D01*
X77847860Y-89467482D01*
X77837756Y-89501889D01*
X77827081Y-89525266D01*
X77827079Y-89525272D01*
X77806271Y-89669996D01*
X77806271Y-89670003D01*
X77827079Y-89814727D01*
X77827081Y-89814734D01*
X77887824Y-89947743D01*
X77983579Y-90058250D01*
X78106589Y-90137304D01*
X78226039Y-90172378D01*
X78246885Y-90178499D01*
X78246886Y-90178499D01*
X78246889Y-90178500D01*
X78246892Y-90178500D01*
X78393108Y-90178500D01*
X78393111Y-90178500D01*
X78533411Y-90137304D01*
X78630070Y-90075185D01*
X78638913Y-90069502D01*
X78707034Y-90049500D01*
X79586959Y-90049500D01*
X79655080Y-90069502D01*
X79701573Y-90123158D01*
X79711677Y-90193432D01*
X79701573Y-90227842D01*
X79657081Y-90325265D01*
X79657079Y-90325272D01*
X79636271Y-90469996D01*
X79636271Y-90470003D01*
X79657079Y-90614727D01*
X79659620Y-90623379D01*
X79657902Y-90623883D01*
X79666466Y-90683427D01*
X79636975Y-90748009D01*
X79577251Y-90786395D01*
X79541748Y-90791500D01*
X79509085Y-90791500D01*
X79368789Y-90832696D01*
X79368787Y-90832697D01*
X79245779Y-90911749D01*
X79150024Y-91022256D01*
X79089281Y-91155265D01*
X79089279Y-91155272D01*
X79068471Y-91299996D01*
X79068471Y-91300003D01*
X79089279Y-91444727D01*
X79089281Y-91444734D01*
X79150024Y-91577743D01*
X79182624Y-91615365D01*
X79212117Y-91679945D01*
X79213400Y-91697878D01*
X79213400Y-95202847D01*
X79193398Y-95270968D01*
X79176495Y-95291943D01*
X78239841Y-96228596D01*
X78177529Y-96262621D01*
X78150747Y-96265500D01*
X77984348Y-96265500D01*
X77893139Y-96279945D01*
X77783204Y-96335959D01*
X77695959Y-96423204D01*
X77653926Y-96505701D01*
X77639946Y-96533138D01*
X77625500Y-96624347D01*
X77625500Y-96624350D01*
X77625500Y-96955651D01*
X77639945Y-97046860D01*
X77695959Y-97156795D01*
X77750069Y-97210905D01*
X77784095Y-97273217D01*
X77779030Y-97344032D01*
X77750069Y-97389095D01*
X77695961Y-97443202D01*
X77695959Y-97443204D01*
X77659341Y-97515073D01*
X77639946Y-97553138D01*
X77629305Y-97620326D01*
X77625500Y-97644350D01*
X77625500Y-97975651D01*
X77639945Y-98066860D01*
X77695959Y-98176795D01*
X77697139Y-98177975D01*
X77698112Y-98179757D01*
X77701787Y-98184815D01*
X77701133Y-98185289D01*
X77731165Y-98240287D01*
X77726100Y-98311102D01*
X77697140Y-98356165D01*
X77226744Y-98826562D01*
X75829709Y-100223596D01*
X75767399Y-100257620D01*
X75740616Y-100260500D01*
X74918894Y-100260500D01*
X74850773Y-100240498D01*
X74804280Y-100186842D01*
X74794176Y-100116568D01*
X74818344Y-100058568D01*
X74912659Y-99933672D01*
X75003859Y-99750519D01*
X75003861Y-99750514D01*
X75059851Y-99553730D01*
X75078729Y-99350000D01*
X75059851Y-99146269D01*
X75003861Y-98949485D01*
X75003859Y-98949480D01*
X74912661Y-98766330D01*
X74879897Y-98722944D01*
X74879896Y-98722944D01*
X74437026Y-99165813D01*
X74429493Y-99140156D01*
X74351761Y-99019202D01*
X74243100Y-98925048D01*
X74153175Y-98883980D01*
X74597263Y-98439893D01*
X74464203Y-98357506D01*
X74464197Y-98357503D01*
X74273422Y-98283596D01*
X74273423Y-98283596D01*
X74072299Y-98246000D01*
X73867701Y-98246000D01*
X73666576Y-98283596D01*
X73475803Y-98357503D01*
X73475796Y-98357506D01*
X73342735Y-98439893D01*
X73786823Y-98883981D01*
X73696900Y-98925048D01*
X73588239Y-99019202D01*
X73510507Y-99140156D01*
X73502972Y-99165816D01*
X73060101Y-98722944D01*
X73027337Y-98766332D01*
X73027335Y-98766334D01*
X72936143Y-98949471D01*
X72936138Y-98949485D01*
X72880148Y-99146269D01*
X72861270Y-99350000D01*
X72880148Y-99553730D01*
X72936138Y-99750514D01*
X72936140Y-99750519D01*
X73027340Y-99933672D01*
X73121656Y-100058568D01*
X73146746Y-100124984D01*
X73131946Y-100194421D01*
X73081955Y-100244833D01*
X73021106Y-100260500D01*
X72732427Y-100260500D01*
X72706568Y-100257818D01*
X72695898Y-100255580D01*
X72672593Y-100258486D01*
X72660316Y-100260016D01*
X72652526Y-100260500D01*
X72648553Y-100260500D01*
X72633041Y-100263088D01*
X72625284Y-100264383D01*
X72613077Y-100265904D01*
X72570218Y-100271247D01*
X72562610Y-100273512D01*
X72555072Y-100276100D01*
X72506294Y-100302497D01*
X72456432Y-100326873D01*
X72449978Y-100331481D01*
X72443685Y-100336380D01*
X72406119Y-100377186D01*
X71954964Y-100828340D01*
X71892652Y-100862366D01*
X71821837Y-100857301D01*
X71820353Y-100856737D01*
X71733557Y-100823112D01*
X71666486Y-100810574D01*
X71532347Y-100785500D01*
X71327653Y-100785500D01*
X71126444Y-100823112D01*
X71126439Y-100823113D01*
X70935577Y-100897054D01*
X70935566Y-100897059D01*
X70761536Y-101004814D01*
X70610266Y-101142715D01*
X70486913Y-101306063D01*
X70395671Y-101489301D01*
X70339654Y-101686180D01*
X70320768Y-101889995D01*
X70320768Y-101890004D01*
X70339654Y-102093819D01*
X70375783Y-102220798D01*
X70395672Y-102290701D01*
X70486912Y-102473935D01*
X70486913Y-102473936D01*
X70610266Y-102637284D01*
X70761536Y-102775185D01*
X70935566Y-102882940D01*
X70935568Y-102882940D01*
X70935573Y-102882944D01*
X71126444Y-102956888D01*
X71327653Y-102994500D01*
X71327655Y-102994500D01*
X71532345Y-102994500D01*
X71532347Y-102994500D01*
X71733556Y-102956888D01*
X71924427Y-102882944D01*
X72098462Y-102775186D01*
X72249732Y-102637285D01*
X72373088Y-102473935D01*
X72464328Y-102290701D01*
X72520345Y-102093821D01*
X72526640Y-102025880D01*
X72539232Y-101890004D01*
X72539232Y-101889995D01*
X72522698Y-101711573D01*
X72520345Y-101686179D01*
X72464328Y-101489299D01*
X72464326Y-101489296D01*
X72463120Y-101485055D01*
X72463716Y-101414060D01*
X72495213Y-101361479D01*
X72800290Y-101056404D01*
X72862602Y-101022379D01*
X72889385Y-101019500D01*
X72990900Y-101019500D01*
X73059021Y-101039502D01*
X73105514Y-101093158D01*
X73115618Y-101163432D01*
X73091450Y-101221432D01*
X73027340Y-101306327D01*
X72936140Y-101489480D01*
X72936138Y-101489485D01*
X72880148Y-101686269D01*
X72861270Y-101890000D01*
X72880148Y-102093730D01*
X72936138Y-102290514D01*
X72936140Y-102290519D01*
X73027340Y-102473672D01*
X73099001Y-102568568D01*
X73124091Y-102634984D01*
X73109291Y-102704421D01*
X73059300Y-102754833D01*
X72998451Y-102770500D01*
X72762422Y-102770500D01*
X72736564Y-102767818D01*
X72733806Y-102767239D01*
X72725898Y-102765581D01*
X72703756Y-102768342D01*
X72690321Y-102770016D01*
X72682533Y-102770500D01*
X72678557Y-102770500D01*
X72655274Y-102774385D01*
X72600215Y-102781248D01*
X72592622Y-102783508D01*
X72585072Y-102786100D01*
X72536294Y-102812497D01*
X72486432Y-102836873D01*
X72479978Y-102841481D01*
X72473685Y-102846380D01*
X72436119Y-102887186D01*
X71954964Y-103368340D01*
X71892652Y-103402366D01*
X71821837Y-103397301D01*
X71820353Y-103396737D01*
X71733557Y-103363112D01*
X71666486Y-103350574D01*
X71532347Y-103325500D01*
X71327653Y-103325500D01*
X71126444Y-103363112D01*
X71126439Y-103363113D01*
X70935577Y-103437054D01*
X70935566Y-103437059D01*
X70761536Y-103544814D01*
X70610266Y-103682715D01*
X70486913Y-103846063D01*
X70395671Y-104029301D01*
X70339654Y-104226180D01*
X70320768Y-104429995D01*
X70320768Y-104430004D01*
X70339654Y-104633819D01*
X70395619Y-104830514D01*
X70395672Y-104830701D01*
X70486912Y-105013935D01*
X70486913Y-105013936D01*
X70610266Y-105177284D01*
X70761536Y-105315185D01*
X70935566Y-105422940D01*
X70935568Y-105422940D01*
X70935573Y-105422944D01*
X71126444Y-105496888D01*
X71327653Y-105534500D01*
X71327655Y-105534500D01*
X71532345Y-105534500D01*
X71532347Y-105534500D01*
X71733556Y-105496888D01*
X71924427Y-105422944D01*
X72098462Y-105315186D01*
X72249732Y-105177285D01*
X72373088Y-105013935D01*
X72464328Y-104830701D01*
X72520345Y-104633821D01*
X72526718Y-104565048D01*
X72539232Y-104430004D01*
X72539232Y-104429995D01*
X72527427Y-104302611D01*
X72520345Y-104226179D01*
X72464328Y-104029299D01*
X72464326Y-104029296D01*
X72463120Y-104025055D01*
X72463716Y-103954060D01*
X72495213Y-103901479D01*
X72830290Y-103566404D01*
X72892602Y-103532379D01*
X72919385Y-103529500D01*
X73013554Y-103529500D01*
X73081675Y-103549502D01*
X73128168Y-103603158D01*
X73138272Y-103673432D01*
X73114105Y-103731431D01*
X73027339Y-103846327D01*
X72936140Y-104029480D01*
X72936138Y-104029485D01*
X72880148Y-104226269D01*
X72861270Y-104430000D01*
X72880148Y-104633730D01*
X72936138Y-104830514D01*
X72936140Y-104830519D01*
X73027340Y-105013672D01*
X73060100Y-105057054D01*
X73060102Y-105057054D01*
X73502972Y-104614183D01*
X73510507Y-104639844D01*
X73588239Y-104760798D01*
X73696900Y-104854952D01*
X73786823Y-104896018D01*
X73342736Y-105340105D01*
X73475793Y-105422491D01*
X73475802Y-105422496D01*
X73666577Y-105496403D01*
X73666576Y-105496403D01*
X73867701Y-105534000D01*
X74072299Y-105534000D01*
X74273423Y-105496403D01*
X74464197Y-105422496D01*
X74464206Y-105422491D01*
X74597263Y-105340105D01*
X74447158Y-105190000D01*
X85699802Y-105190000D01*
X85700148Y-105193729D01*
X85756137Y-105390511D01*
X85756140Y-105390519D01*
X85847340Y-105573672D01*
X85970637Y-105736946D01*
X86121838Y-105874784D01*
X86295796Y-105982493D01*
X86295803Y-105982496D01*
X86486577Y-106056403D01*
X86486575Y-106056403D01*
X86590000Y-106075736D01*
X86590000Y-105448335D01*
X86647685Y-105474680D01*
X86754237Y-105490000D01*
X86825763Y-105490000D01*
X86932315Y-105474680D01*
X86990000Y-105448335D01*
X86990000Y-106075736D01*
X87093423Y-106056403D01*
X87284196Y-105982496D01*
X87284203Y-105982493D01*
X87458161Y-105874784D01*
X87609362Y-105736946D01*
X87732659Y-105573672D01*
X87823859Y-105390519D01*
X87823862Y-105390511D01*
X87879851Y-105193729D01*
X87880198Y-105190000D01*
X87252383Y-105190000D01*
X87290000Y-105061889D01*
X87290000Y-104918111D01*
X87252383Y-104790000D01*
X87880198Y-104790000D01*
X87879851Y-104786270D01*
X87823862Y-104589488D01*
X87823859Y-104589480D01*
X87732659Y-104406327D01*
X87609362Y-104243053D01*
X87458161Y-104105215D01*
X87284203Y-103997506D01*
X87284196Y-103997503D01*
X87093422Y-103923596D01*
X87093416Y-103923594D01*
X86990000Y-103904261D01*
X86990000Y-104531664D01*
X86932315Y-104505320D01*
X86825763Y-104490000D01*
X86754237Y-104490000D01*
X86647685Y-104505320D01*
X86590000Y-104531664D01*
X86590000Y-103904261D01*
X86589999Y-103904261D01*
X86486583Y-103923594D01*
X86486577Y-103923596D01*
X86295803Y-103997503D01*
X86295796Y-103997506D01*
X86121838Y-104105215D01*
X85970637Y-104243053D01*
X85847340Y-104406327D01*
X85756140Y-104589480D01*
X85756137Y-104589488D01*
X85700148Y-104786270D01*
X85699802Y-104790000D01*
X86327617Y-104790000D01*
X86290000Y-104918111D01*
X86290000Y-105061889D01*
X86327617Y-105190000D01*
X85699802Y-105190000D01*
X74447158Y-105190000D01*
X74153176Y-104896018D01*
X74243100Y-104854952D01*
X74351761Y-104760798D01*
X74429493Y-104639844D01*
X74437027Y-104614183D01*
X74879898Y-105057054D01*
X74912660Y-105013672D01*
X75003859Y-104830519D01*
X75003861Y-104830514D01*
X75059851Y-104633730D01*
X75078729Y-104430000D01*
X75059851Y-104226269D01*
X75003861Y-104029485D01*
X75003859Y-104029480D01*
X74912660Y-103846327D01*
X74825895Y-103731431D01*
X74800806Y-103665016D01*
X74815606Y-103595579D01*
X74865597Y-103545167D01*
X74926446Y-103529500D01*
X78157573Y-103529500D01*
X78183431Y-103532181D01*
X78194100Y-103534419D01*
X78229683Y-103529983D01*
X78237474Y-103529500D01*
X78241436Y-103529500D01*
X78241443Y-103529500D01*
X78264715Y-103525616D01*
X78319783Y-103518752D01*
X78319784Y-103518751D01*
X78319788Y-103518751D01*
X78327386Y-103516488D01*
X78334924Y-103513901D01*
X78334925Y-103513900D01*
X78334927Y-103513900D01*
X78383705Y-103487502D01*
X78433568Y-103463126D01*
X78433571Y-103463123D01*
X78440018Y-103458520D01*
X78446313Y-103453621D01*
X78446313Y-103453620D01*
X78446316Y-103453619D01*
X78483880Y-103412813D01*
X79446689Y-102450004D01*
X85680768Y-102450004D01*
X85699654Y-102653819D01*
X85754443Y-102846381D01*
X85755672Y-102850701D01*
X85846912Y-103033935D01*
X85846913Y-103033936D01*
X85970266Y-103197284D01*
X86121536Y-103335185D01*
X86295566Y-103442940D01*
X86295568Y-103442940D01*
X86295573Y-103442944D01*
X86486444Y-103516888D01*
X86687653Y-103554500D01*
X86687655Y-103554500D01*
X86892345Y-103554500D01*
X86892347Y-103554500D01*
X87093556Y-103516888D01*
X87284427Y-103442944D01*
X87458462Y-103335186D01*
X87609732Y-103197285D01*
X87733088Y-103033935D01*
X87824328Y-102850701D01*
X87880345Y-102653821D01*
X87897014Y-102473935D01*
X87899232Y-102450004D01*
X87899232Y-102449995D01*
X87880345Y-102246180D01*
X87880345Y-102246179D01*
X87824328Y-102049299D01*
X87733088Y-101866065D01*
X87692538Y-101812368D01*
X87609733Y-101702715D01*
X87458463Y-101564814D01*
X87284433Y-101457059D01*
X87284428Y-101457057D01*
X87284427Y-101457056D01*
X87173442Y-101414060D01*
X87093559Y-101383113D01*
X87093560Y-101383113D01*
X87093557Y-101383112D01*
X87093556Y-101383112D01*
X86892347Y-101345500D01*
X86687653Y-101345500D01*
X86486444Y-101383112D01*
X86486439Y-101383113D01*
X86295577Y-101457054D01*
X86295566Y-101457059D01*
X86121536Y-101564814D01*
X85970266Y-101702715D01*
X85846913Y-101866063D01*
X85755671Y-102049301D01*
X85699654Y-102246180D01*
X85680768Y-102449995D01*
X85680768Y-102450004D01*
X79446689Y-102450004D01*
X80725289Y-101171404D01*
X80787601Y-101137379D01*
X80814384Y-101134499D01*
X80965651Y-101134499D01*
X80965652Y-101134499D01*
X81056862Y-101120054D01*
X81166796Y-101064040D01*
X81254040Y-100976796D01*
X81310054Y-100866862D01*
X81324500Y-100775653D01*
X81324499Y-100444348D01*
X81310054Y-100353138D01*
X81254040Y-100243204D01*
X81199931Y-100189095D01*
X81165905Y-100126783D01*
X81170970Y-100055968D01*
X81199931Y-100010905D01*
X81224020Y-99986816D01*
X81254040Y-99956796D01*
X81277882Y-99910004D01*
X85680768Y-99910004D01*
X85699654Y-100113819D01*
X85745091Y-100273512D01*
X85755672Y-100310701D01*
X85846912Y-100493935D01*
X85846913Y-100493936D01*
X85970266Y-100657284D01*
X86121536Y-100795185D01*
X86295566Y-100902940D01*
X86295568Y-100902940D01*
X86295573Y-100902944D01*
X86486444Y-100976888D01*
X86687653Y-101014500D01*
X86687655Y-101014500D01*
X86892345Y-101014500D01*
X86892347Y-101014500D01*
X87093556Y-100976888D01*
X87284427Y-100902944D01*
X87458462Y-100795186D01*
X87609732Y-100657285D01*
X87613016Y-100652937D01*
X87636705Y-100621567D01*
X87733088Y-100493935D01*
X87824328Y-100310701D01*
X87880345Y-100113821D01*
X87889882Y-100010905D01*
X87899232Y-99910004D01*
X87899232Y-99909995D01*
X87880345Y-99706180D01*
X87880345Y-99706179D01*
X87824328Y-99509299D01*
X87733088Y-99326065D01*
X87692538Y-99272368D01*
X87609733Y-99162715D01*
X87458463Y-99024814D01*
X87284433Y-98917059D01*
X87284428Y-98917057D01*
X87284427Y-98917056D01*
X87217453Y-98891110D01*
X87093559Y-98843113D01*
X87093560Y-98843113D01*
X87093557Y-98843112D01*
X87093556Y-98843112D01*
X86892347Y-98805500D01*
X86687653Y-98805500D01*
X86486444Y-98843112D01*
X86486439Y-98843113D01*
X86295577Y-98917054D01*
X86295566Y-98917059D01*
X86121536Y-99024814D01*
X85970266Y-99162715D01*
X85846913Y-99326063D01*
X85755671Y-99509301D01*
X85699654Y-99706180D01*
X85680768Y-99909995D01*
X85680768Y-99910004D01*
X81277882Y-99910004D01*
X81310054Y-99846862D01*
X81324500Y-99755653D01*
X81324499Y-99424348D01*
X81310054Y-99333138D01*
X81254040Y-99223204D01*
X81236638Y-99205802D01*
X81202612Y-99143490D01*
X81207677Y-99072675D01*
X81211112Y-99064380D01*
X81242919Y-98994734D01*
X81243335Y-98991842D01*
X81263729Y-98850003D01*
X81263729Y-98849996D01*
X81242920Y-98705272D01*
X81242919Y-98705271D01*
X81242919Y-98705266D01*
X81182176Y-98572257D01*
X81171310Y-98559717D01*
X81160275Y-98546981D01*
X81130782Y-98482400D01*
X81129500Y-98464470D01*
X81129500Y-97692426D01*
X81132182Y-97666566D01*
X81134419Y-97655900D01*
X81129983Y-97620317D01*
X81129500Y-97612525D01*
X81129500Y-97608555D01*
X81125616Y-97585282D01*
X81121003Y-97548276D01*
X81118752Y-97530218D01*
X81118750Y-97530214D01*
X81116486Y-97522609D01*
X81113900Y-97515075D01*
X81113900Y-97515073D01*
X81087499Y-97466289D01*
X81063126Y-97416432D01*
X81063123Y-97416429D01*
X81063123Y-97416428D01*
X81058522Y-97409983D01*
X81053621Y-97403686D01*
X81012813Y-97366119D01*
X80501404Y-96854709D01*
X80467378Y-96792397D01*
X80464499Y-96765614D01*
X80464499Y-96756355D01*
X80476403Y-96709331D01*
X80475087Y-96708893D01*
X80476423Y-96704885D01*
X80479326Y-96697785D01*
X80479677Y-96696402D01*
X80482517Y-96691151D01*
X80485904Y-96684221D01*
X80485909Y-96684215D01*
X80501298Y-96632522D01*
X80518800Y-96581542D01*
X80518800Y-96581540D01*
X80520076Y-96573893D01*
X80521029Y-96566247D01*
X80518800Y-96512352D01*
X80518800Y-90867878D01*
X80538802Y-90799757D01*
X80549576Y-90785365D01*
X80554845Y-90779284D01*
X80582176Y-90747743D01*
X80642919Y-90614734D01*
X80651514Y-90554956D01*
X80663729Y-90470003D01*
X80663729Y-90469996D01*
X80642920Y-90325272D01*
X80642919Y-90325271D01*
X80642919Y-90325266D01*
X80625680Y-90287519D01*
X80615578Y-90217247D01*
X80645071Y-90152667D01*
X80704797Y-90114283D01*
X80775793Y-90114283D01*
X80829390Y-90146084D01*
X80893595Y-90210289D01*
X80927621Y-90272601D01*
X80930500Y-90299384D01*
X80930500Y-90907573D01*
X80927818Y-90933430D01*
X80925580Y-90944099D01*
X80927735Y-90961376D01*
X80930016Y-90979683D01*
X80930500Y-90987473D01*
X80930500Y-90991441D01*
X80934383Y-91014716D01*
X80941247Y-91069781D01*
X80943517Y-91077406D01*
X80946098Y-91084924D01*
X80972497Y-91133705D01*
X80996875Y-91183570D01*
X81001493Y-91190038D01*
X81006376Y-91196312D01*
X81042971Y-91230000D01*
X81047186Y-91233880D01*
X81654584Y-91841278D01*
X81670968Y-91861454D01*
X81676930Y-91870579D01*
X81676932Y-91870582D01*
X81705221Y-91892600D01*
X81711078Y-91897773D01*
X81713875Y-91900570D01*
X81713881Y-91900575D01*
X81713887Y-91900581D01*
X81713893Y-91900585D01*
X81733095Y-91914296D01*
X81765920Y-91939844D01*
X81776881Y-91948375D01*
X81776885Y-91948376D01*
X81783869Y-91952156D01*
X81791023Y-91955654D01*
X81844182Y-91971479D01*
X81896673Y-91989500D01*
X81896677Y-91989500D01*
X81904511Y-91990807D01*
X81912409Y-91991791D01*
X81912410Y-91991792D01*
X81912410Y-91991791D01*
X81912411Y-91991792D01*
X81967836Y-91989500D01*
X82000937Y-91989500D01*
X82069058Y-92009502D01*
X82077641Y-92015538D01*
X82180350Y-92094350D01*
X82180357Y-92094355D01*
X82315246Y-92150228D01*
X82460000Y-92169285D01*
X82604754Y-92150228D01*
X82706481Y-92108090D01*
X82754699Y-92098500D01*
X82895500Y-92098500D01*
X82963621Y-92118502D01*
X83010114Y-92172158D01*
X83021500Y-92224500D01*
X83021500Y-92661214D01*
X83018620Y-92687998D01*
X83018011Y-92690796D01*
X83014249Y-92743373D01*
X83013769Y-92747840D01*
X83011500Y-92763629D01*
X83011500Y-92779587D01*
X83011339Y-92784083D01*
X83007579Y-92836648D01*
X83008620Y-92841429D01*
X83011500Y-92868215D01*
X83011500Y-94031783D01*
X83008622Y-94058562D01*
X83007580Y-94063351D01*
X83011339Y-94115916D01*
X83011500Y-94120412D01*
X83011500Y-94136370D01*
X83013769Y-94152160D01*
X83014249Y-94156627D01*
X83018010Y-94209199D01*
X83018011Y-94209204D01*
X83019726Y-94213801D01*
X83026381Y-94239876D01*
X83027078Y-94244724D01*
X83027082Y-94244738D01*
X83048969Y-94292665D01*
X83050690Y-94296819D01*
X83069110Y-94346202D01*
X83069112Y-94346206D01*
X83072048Y-94350128D01*
X83085788Y-94373286D01*
X83087822Y-94377740D01*
X83087824Y-94377743D01*
X83122329Y-94417564D01*
X83125152Y-94421067D01*
X83134717Y-94433845D01*
X83134719Y-94433847D01*
X83134720Y-94433848D01*
X83146012Y-94445140D01*
X83149065Y-94448418D01*
X83171076Y-94473821D01*
X83183580Y-94488251D01*
X83187691Y-94490893D01*
X83208671Y-94507799D01*
X85648595Y-96947723D01*
X85682621Y-97010035D01*
X85685500Y-97036818D01*
X85685500Y-98245063D01*
X85685501Y-98245073D01*
X85700265Y-98319300D01*
X85756516Y-98403484D01*
X85840697Y-98459733D01*
X85840699Y-98459734D01*
X85914933Y-98474500D01*
X87665066Y-98474499D01*
X87665069Y-98474498D01*
X87665073Y-98474498D01*
X87715489Y-98464470D01*
X87739301Y-98459734D01*
X87823484Y-98403484D01*
X87879734Y-98319301D01*
X87894500Y-98245067D01*
X87894499Y-96494934D01*
X87894498Y-96494931D01*
X87894498Y-96494926D01*
X87879734Y-96420699D01*
X87838766Y-96359387D01*
X87823484Y-96336516D01*
X87822652Y-96335960D01*
X87739302Y-96280266D01*
X87665069Y-96265500D01*
X87665067Y-96265500D01*
X86456818Y-96265500D01*
X86388697Y-96245498D01*
X86367723Y-96228595D01*
X84065405Y-93926277D01*
X84031379Y-93863965D01*
X84028500Y-93837182D01*
X84028500Y-92928780D01*
X84031381Y-92901991D01*
X84031988Y-92899200D01*
X84035748Y-92846633D01*
X84036226Y-92842178D01*
X84038500Y-92826368D01*
X84038500Y-92810407D01*
X84038661Y-92805911D01*
X84042420Y-92753351D01*
X84041378Y-92748562D01*
X84038500Y-92721783D01*
X84038500Y-92553250D01*
X86736251Y-92553250D01*
X86736251Y-92628472D01*
X86750987Y-92702555D01*
X86750987Y-92702557D01*
X86807125Y-92786574D01*
X86891143Y-92842712D01*
X86891144Y-92842713D01*
X86965230Y-92857449D01*
X87490000Y-92857449D01*
X87490000Y-92553250D01*
X86736251Y-92553250D01*
X84038500Y-92553250D01*
X84038500Y-92228108D01*
X84058502Y-92159987D01*
X84066277Y-92153250D01*
X86736250Y-92153250D01*
X87490000Y-92153250D01*
X87490000Y-91849050D01*
X86965236Y-91849050D01*
X86965226Y-91849051D01*
X86891144Y-91863787D01*
X86891142Y-91863787D01*
X86807125Y-91919925D01*
X86750987Y-92003943D01*
X86750986Y-92003944D01*
X86736250Y-92078027D01*
X86736250Y-92153250D01*
X84066277Y-92153250D01*
X84112158Y-92113494D01*
X84164433Y-92104065D01*
X84164362Y-92103063D01*
X84225917Y-92098661D01*
X84230413Y-92098500D01*
X84246366Y-92098500D01*
X84246368Y-92098500D01*
X84262192Y-92096224D01*
X84266615Y-92095749D01*
X84319201Y-92091989D01*
X84323794Y-92090275D01*
X84349891Y-92083615D01*
X84354734Y-92082919D01*
X84362229Y-92079495D01*
X84414569Y-92068111D01*
X85053720Y-92068111D01*
X85053722Y-92068110D01*
X85162084Y-92052530D01*
X85295093Y-91991787D01*
X85405600Y-91896032D01*
X85484654Y-91773022D01*
X85525850Y-91632722D01*
X85525850Y-91486500D01*
X85484654Y-91346200D01*
X85476856Y-91334066D01*
X85460662Y-91287476D01*
X85459007Y-91287806D01*
X85450556Y-91245320D01*
X85448759Y-91236282D01*
X85448759Y-91187122D01*
X85459899Y-91131117D01*
X85459900Y-91131115D01*
X85459900Y-91106100D01*
X85399241Y-91106100D01*
X85331120Y-91086098D01*
X85329238Y-91084864D01*
X85302602Y-91067066D01*
X85246864Y-91055979D01*
X85183954Y-91023071D01*
X85148822Y-90961376D01*
X85152622Y-90890482D01*
X85194148Y-90832896D01*
X85260215Y-90806901D01*
X85271445Y-90806400D01*
X85459899Y-90806400D01*
X85459899Y-90781386D01*
X85459898Y-90781379D01*
X85449804Y-90730631D01*
X85449805Y-90681466D01*
X85459899Y-90630724D01*
X85459900Y-90630715D01*
X85459900Y-90605700D01*
X85274040Y-90605700D01*
X85205919Y-90585698D01*
X85159426Y-90532042D01*
X85149322Y-90461768D01*
X85178816Y-90397188D01*
X85238542Y-90358804D01*
X85249460Y-90356121D01*
X85264559Y-90353117D01*
X85305201Y-90345034D01*
X85305204Y-90345031D01*
X85316670Y-90340284D01*
X85317182Y-90341522D01*
X85372279Y-90324270D01*
X85374529Y-90324250D01*
X85608685Y-90324250D01*
X85634541Y-90326931D01*
X85644553Y-90329031D01*
X85679029Y-90324733D01*
X85686820Y-90324250D01*
X85690566Y-90324250D01*
X85713181Y-90320476D01*
X85719851Y-90319644D01*
X85766691Y-90313806D01*
X85766694Y-90313804D01*
X85774065Y-90311610D01*
X85781399Y-90309092D01*
X85781409Y-90309091D01*
X85828834Y-90283425D01*
X85877268Y-90259748D01*
X85877270Y-90259745D01*
X85883565Y-90255250D01*
X85889653Y-90250512D01*
X85889658Y-90250510D01*
X85926187Y-90210828D01*
X86474499Y-89662515D01*
X86494668Y-89646138D01*
X86503236Y-89640541D01*
X86524583Y-89613112D01*
X86529730Y-89607285D01*
X86532391Y-89604625D01*
X86545713Y-89585965D01*
X86578835Y-89543411D01*
X86578836Y-89543405D01*
X86582519Y-89536602D01*
X86585908Y-89529669D01*
X86594178Y-89501892D01*
X86601295Y-89477984D01*
X86618800Y-89426996D01*
X86618800Y-89426994D01*
X86620075Y-89419352D01*
X86621029Y-89411699D01*
X86618800Y-89357816D01*
X86618800Y-86597268D01*
X86638802Y-86529147D01*
X86692458Y-86482654D01*
X86762732Y-86472550D01*
X86814802Y-86492503D01*
X86891143Y-86543512D01*
X86891144Y-86543513D01*
X86965230Y-86558249D01*
X87490000Y-86558249D01*
X87490000Y-86254050D01*
X86708731Y-86254050D01*
X86640610Y-86234048D01*
X86597919Y-86188022D01*
X86577975Y-86151169D01*
X86554298Y-86102736D01*
X86554296Y-86102734D01*
X86554296Y-86102733D01*
X86549809Y-86096448D01*
X86545058Y-86090344D01*
X86505378Y-86053816D01*
X86305612Y-85854050D01*
X86736250Y-85854050D01*
X87490000Y-85854050D01*
X87490000Y-85549850D01*
X86965236Y-85549850D01*
X86965226Y-85549851D01*
X86891144Y-85564587D01*
X86891142Y-85564587D01*
X86807125Y-85620725D01*
X86750987Y-85704743D01*
X86750986Y-85704744D01*
X86736250Y-85778827D01*
X86736250Y-85854050D01*
X86305612Y-85854050D01*
X83247071Y-82795509D01*
X83230684Y-82775331D01*
X83228366Y-82771783D01*
X83225087Y-82766764D01*
X83197666Y-82745421D01*
X83191821Y-82740259D01*
X83189170Y-82737608D01*
X83189166Y-82737605D01*
X83189164Y-82737603D01*
X83189163Y-82737602D01*
X83170507Y-82724283D01*
X83127961Y-82691167D01*
X83121249Y-82687534D01*
X83121176Y-82687499D01*
X83121103Y-82687459D01*
X83114217Y-82684093D01*
X83114216Y-82684092D01*
X83114213Y-82684091D01*
X83114211Y-82684090D01*
X83062530Y-82668704D01*
X83011542Y-82651199D01*
X83003906Y-82649925D01*
X82996247Y-82648970D01*
X82944335Y-82651117D01*
X82942352Y-82651200D01*
X80733111Y-82651200D01*
X80664990Y-82631198D01*
X80641887Y-82609380D01*
X80641052Y-82610216D01*
X80546795Y-82515959D01*
X80491829Y-82487953D01*
X80436862Y-82459946D01*
X80345653Y-82445500D01*
X80345649Y-82445500D01*
X80014348Y-82445500D01*
X79923139Y-82459945D01*
X79813204Y-82515959D01*
X79813202Y-82515961D01*
X79759095Y-82570069D01*
X79696783Y-82604095D01*
X79625968Y-82599030D01*
X79580905Y-82570069D01*
X79526795Y-82515959D01*
X79471829Y-82487953D01*
X79416862Y-82459946D01*
X79325653Y-82445500D01*
X79325649Y-82445500D01*
X78994348Y-82445500D01*
X78903139Y-82459945D01*
X78793201Y-82515961D01*
X78785017Y-82524145D01*
X78722702Y-82558166D01*
X78659974Y-82555806D01*
X78602531Y-82538704D01*
X78551542Y-82521199D01*
X78543906Y-82519925D01*
X78536247Y-82518970D01*
X78484335Y-82521117D01*
X78482352Y-82521200D01*
X74888785Y-82521200D01*
X74820664Y-82501198D01*
X74774171Y-82447542D01*
X74764067Y-82377268D01*
X74788235Y-82319268D01*
X74843981Y-82245447D01*
X74913088Y-82153935D01*
X74913089Y-82153931D01*
X74913091Y-82153930D01*
X74985439Y-82008637D01*
X75033708Y-81956573D01*
X75098229Y-81938800D01*
X78715774Y-81938800D01*
X78783895Y-81958802D01*
X78804869Y-81975705D01*
X78813204Y-81984040D01*
X78923138Y-82040054D01*
X79014347Y-82054500D01*
X79345652Y-82054499D01*
X79436862Y-82040054D01*
X79546796Y-81984040D01*
X79600905Y-81929931D01*
X79663217Y-81895905D01*
X79734032Y-81900970D01*
X79779095Y-81929931D01*
X79833204Y-81984040D01*
X79943138Y-82040054D01*
X80034347Y-82054500D01*
X80365652Y-82054499D01*
X80456862Y-82040054D01*
X80531090Y-82002232D01*
X80588293Y-81988500D01*
X80795094Y-81988500D01*
X80839128Y-81996444D01*
X80880799Y-82011988D01*
X80885674Y-82012336D01*
X80912191Y-82017120D01*
X80916889Y-82018500D01*
X80969600Y-82018500D01*
X80974096Y-82018661D01*
X80994772Y-82020139D01*
X81026648Y-82022419D01*
X81031429Y-82021379D01*
X81058210Y-82018500D01*
X81063108Y-82018500D01*
X81063111Y-82018500D01*
X81113683Y-82003650D01*
X81118017Y-82002542D01*
X81169529Y-81991338D01*
X81173822Y-81988993D01*
X81198715Y-81978682D01*
X81203411Y-81977304D01*
X81247778Y-81948789D01*
X81251602Y-81946521D01*
X81297866Y-81921261D01*
X81301322Y-81917803D01*
X81322307Y-81900893D01*
X81326421Y-81898250D01*
X81360954Y-81858395D01*
X81363978Y-81855147D01*
X81401261Y-81817866D01*
X81403602Y-81813577D01*
X81418978Y-81791432D01*
X81422176Y-81787743D01*
X81444076Y-81739786D01*
X81446076Y-81735790D01*
X81471338Y-81689529D01*
X81472376Y-81684752D01*
X81480890Y-81659176D01*
X81482919Y-81654734D01*
X81490423Y-81602535D01*
X81491217Y-81598139D01*
X81502419Y-81546648D01*
X81502070Y-81541772D01*
X81503032Y-81514844D01*
X81503729Y-81510000D01*
X81496224Y-81457806D01*
X81495747Y-81453376D01*
X81491988Y-81400799D01*
X81490278Y-81396216D01*
X81483614Y-81370104D01*
X81483050Y-81366180D01*
X81482919Y-81365266D01*
X81461019Y-81317313D01*
X81459303Y-81313170D01*
X81440888Y-81263796D01*
X81437951Y-81259872D01*
X81424212Y-81236716D01*
X81422176Y-81232257D01*
X81410970Y-81219324D01*
X81387664Y-81192427D01*
X81384842Y-81188925D01*
X81375286Y-81176159D01*
X81375276Y-81176148D01*
X81367800Y-81168672D01*
X81350897Y-81147697D01*
X81348251Y-81143580D01*
X81348250Y-81143579D01*
X81343367Y-81139348D01*
X81330651Y-81126632D01*
X81326421Y-81121750D01*
X81322303Y-81119103D01*
X81301328Y-81102200D01*
X81293848Y-81094720D01*
X81293844Y-81094717D01*
X81293845Y-81094717D01*
X81281067Y-81085152D01*
X81277564Y-81082329D01*
X81237743Y-81047824D01*
X81237740Y-81047822D01*
X81233286Y-81045788D01*
X81210128Y-81032048D01*
X81206206Y-81029112D01*
X81206202Y-81029110D01*
X81156819Y-81010690D01*
X81152665Y-81008969D01*
X81104738Y-80987082D01*
X81104724Y-80987078D01*
X81099876Y-80986381D01*
X81073801Y-80979726D01*
X81069204Y-80978011D01*
X81069199Y-80978010D01*
X81016627Y-80974249D01*
X81012160Y-80973769D01*
X80996370Y-80971500D01*
X80996368Y-80971500D01*
X80980413Y-80971500D01*
X80975917Y-80971339D01*
X80923352Y-80967579D01*
X80923351Y-80967580D01*
X80918566Y-80968621D01*
X80891784Y-80971500D01*
X80829362Y-80971500D01*
X80761241Y-80951498D01*
X80714748Y-80897842D01*
X80703683Y-80854488D01*
X80701989Y-80830801D01*
X80701989Y-80830800D01*
X80700277Y-80826211D01*
X80693615Y-80800108D01*
X80692919Y-80795266D01*
X80671018Y-80747311D01*
X80669315Y-80743198D01*
X80650889Y-80693796D01*
X80650887Y-80693794D01*
X80650887Y-80693792D01*
X80650886Y-80693791D01*
X80647956Y-80689877D01*
X80634209Y-80666708D01*
X80632176Y-80662258D01*
X80632175Y-80662256D01*
X80597671Y-80622435D01*
X80594847Y-80618932D01*
X80587858Y-80609596D01*
X80585280Y-80606152D01*
X80573978Y-80594850D01*
X80570925Y-80591570D01*
X80536422Y-80551750D01*
X80536419Y-80551748D01*
X80532300Y-80549101D01*
X80511327Y-80532199D01*
X79737799Y-79758671D01*
X79720893Y-79737691D01*
X79718251Y-79733580D01*
X79678421Y-79699067D01*
X79675140Y-79696012D01*
X79663848Y-79684720D01*
X79663847Y-79684719D01*
X79663845Y-79684717D01*
X79651067Y-79675152D01*
X79647564Y-79672329D01*
X79607743Y-79637824D01*
X79607740Y-79637822D01*
X79603286Y-79635788D01*
X79580128Y-79622048D01*
X79576206Y-79619112D01*
X79576202Y-79619110D01*
X79526819Y-79600690D01*
X79522665Y-79598969D01*
X79474738Y-79577082D01*
X79474724Y-79577078D01*
X79469876Y-79576381D01*
X79443801Y-79569726D01*
X79439204Y-79568011D01*
X79439199Y-79568010D01*
X79386627Y-79564249D01*
X79382160Y-79563769D01*
X79366370Y-79561500D01*
X79366368Y-79561500D01*
X79350413Y-79561500D01*
X79345917Y-79561339D01*
X79293352Y-79557579D01*
X79293351Y-79557580D01*
X79288566Y-79558621D01*
X79261784Y-79561500D01*
X72998215Y-79561500D01*
X72971435Y-79558621D01*
X72966650Y-79557580D01*
X72966646Y-79557580D01*
X72914088Y-79561339D01*
X72909592Y-79561500D01*
X72893631Y-79561500D01*
X72877835Y-79563770D01*
X72873369Y-79564250D01*
X72820800Y-79568011D01*
X72820796Y-79568012D01*
X72816210Y-79569723D01*
X72790116Y-79576383D01*
X72785268Y-79577080D01*
X72737330Y-79598972D01*
X72733175Y-79600692D01*
X72683797Y-79619109D01*
X72679871Y-79622049D01*
X72656715Y-79635788D01*
X72652256Y-79637824D01*
X72612425Y-79672337D01*
X72608925Y-79675158D01*
X72596157Y-79684716D01*
X72596149Y-79684722D01*
X72584857Y-79696013D01*
X72581571Y-79699072D01*
X72541751Y-79733577D01*
X72541747Y-79733581D01*
X72539098Y-79737704D01*
X72522201Y-79758669D01*
X71852275Y-80428595D01*
X71789963Y-80462621D01*
X71763180Y-80465500D01*
X70781753Y-80465500D01*
X70781729Y-80465502D01*
X70721660Y-80471959D01*
X70721658Y-80471959D01*
X70585733Y-80522657D01*
X70469596Y-80609596D01*
X70382657Y-80725734D01*
X70331962Y-80861650D01*
X70331960Y-80861658D01*
X70325500Y-80921737D01*
X70325500Y-80935500D01*
X70305498Y-81003621D01*
X70251842Y-81050114D01*
X70199500Y-81061500D01*
X67738215Y-81061500D01*
X67711435Y-81058621D01*
X67706650Y-81057580D01*
X67706646Y-81057580D01*
X67654088Y-81061339D01*
X67649592Y-81061500D01*
X67633631Y-81061500D01*
X67617835Y-81063770D01*
X67613369Y-81064250D01*
X67560800Y-81068011D01*
X67560796Y-81068012D01*
X67556210Y-81069723D01*
X67530116Y-81076383D01*
X67525268Y-81077080D01*
X67477330Y-81098972D01*
X67473175Y-81100692D01*
X67423797Y-81119109D01*
X67419871Y-81122049D01*
X67396715Y-81135788D01*
X67392256Y-81137824D01*
X67352425Y-81172337D01*
X67348928Y-81175154D01*
X67347597Y-81176152D01*
X67336157Y-81184716D01*
X67336149Y-81184722D01*
X67324857Y-81196013D01*
X67321571Y-81199072D01*
X67281751Y-81233577D01*
X67281747Y-81233581D01*
X67279098Y-81237704D01*
X67262201Y-81258669D01*
X66654676Y-81866194D01*
X66613801Y-81893507D01*
X66560360Y-81915643D01*
X66560359Y-81915644D01*
X66444526Y-82004526D01*
X66355646Y-82120356D01*
X66355642Y-82120363D01*
X66303830Y-82245447D01*
X66276518Y-82286323D01*
X65880000Y-82682842D01*
X65655987Y-82906855D01*
X65735373Y-82939738D01*
X65743353Y-82941877D01*
X65742959Y-82943346D01*
X65799487Y-82968346D01*
X65838586Y-83027607D01*
X65839439Y-83098598D01*
X65807220Y-83153650D01*
X65568669Y-83392201D01*
X65547704Y-83409098D01*
X65543581Y-83411747D01*
X65543577Y-83411751D01*
X65509072Y-83451571D01*
X65506013Y-83454857D01*
X65494722Y-83466149D01*
X65494716Y-83466157D01*
X65485158Y-83478925D01*
X65482337Y-83482425D01*
X65447822Y-83522258D01*
X65447820Y-83522261D01*
X65445783Y-83526722D01*
X65432053Y-83549864D01*
X65429114Y-83553791D01*
X65429109Y-83553799D01*
X65410690Y-83603178D01*
X65408970Y-83607330D01*
X65387080Y-83655266D01*
X65387079Y-83655271D01*
X65386381Y-83660123D01*
X65379726Y-83686197D01*
X65378012Y-83690793D01*
X65378011Y-83690798D01*
X65374249Y-83743373D01*
X65373769Y-83747840D01*
X65371500Y-83763629D01*
X65371500Y-83779587D01*
X65371339Y-83784083D01*
X65367579Y-83836648D01*
X65368620Y-83841429D01*
X65371500Y-83868215D01*
X65371500Y-86433407D01*
X65369949Y-86453117D01*
X65369946Y-86453138D01*
X65357908Y-86529147D01*
X65355500Y-86544348D01*
X65355500Y-86975651D01*
X63674500Y-86975651D01*
X63674500Y-82400000D01*
X65321220Y-82400000D01*
X65340259Y-82544621D01*
X65373144Y-82624012D01*
X65597157Y-82399999D01*
X65373144Y-82175986D01*
X65373143Y-82175986D01*
X65340260Y-82255376D01*
X65321220Y-82399999D01*
X65321220Y-82400000D01*
X63674500Y-82400000D01*
X63674500Y-81893144D01*
X65655986Y-81893144D01*
X65879999Y-82117157D01*
X65880000Y-82117157D01*
X66104012Y-81893144D01*
X66024621Y-81860259D01*
X65880000Y-81841220D01*
X65735376Y-81860260D01*
X65655986Y-81893143D01*
X65655986Y-81893144D01*
X63674500Y-81893144D01*
X63674500Y-79210001D01*
X82670465Y-79210001D01*
X82690584Y-79542622D01*
X82690585Y-79542625D01*
X82750651Y-79870397D01*
X82849792Y-80188552D01*
X82986547Y-80492409D01*
X82986550Y-80492415D01*
X83158946Y-80777594D01*
X83200631Y-80830801D01*
X83354395Y-81027066D01*
X83364459Y-81039911D01*
X83364464Y-81039917D01*
X83600082Y-81275535D01*
X83600088Y-81275540D01*
X83600090Y-81275542D01*
X83862405Y-81481053D01*
X84147580Y-81653447D01*
X84147582Y-81653448D01*
X84147584Y-81653449D01*
X84147590Y-81653452D01*
X84451447Y-81790207D01*
X84451451Y-81790208D01*
X84451455Y-81790210D01*
X84769600Y-81889348D01*
X85097375Y-81949415D01*
X85319125Y-81962828D01*
X85429999Y-81969535D01*
X85430000Y-81969535D01*
X85430001Y-81969535D01*
X85513156Y-81964505D01*
X85762625Y-81949415D01*
X86090400Y-81889348D01*
X86408545Y-81790210D01*
X86414027Y-81787743D01*
X86712409Y-81653452D01*
X86712409Y-81653451D01*
X86712420Y-81653447D01*
X86997595Y-81481053D01*
X87259910Y-81275542D01*
X87495542Y-81039910D01*
X87701053Y-80777595D01*
X87873447Y-80492420D01*
X88010210Y-80188545D01*
X88109348Y-79870400D01*
X88169415Y-79542625D01*
X88189535Y-79210000D01*
X88169415Y-78877375D01*
X88109348Y-78549600D01*
X88010210Y-78231455D01*
X88010208Y-78231451D01*
X88010207Y-78231447D01*
X87873452Y-77927590D01*
X87873449Y-77927584D01*
X87701053Y-77642405D01*
X87495542Y-77380090D01*
X87495540Y-77380088D01*
X87495535Y-77380082D01*
X87259917Y-77144464D01*
X87259911Y-77144459D01*
X87206123Y-77102319D01*
X86997595Y-76938947D01*
X86997596Y-76938947D01*
X86997594Y-76938946D01*
X86712415Y-76766550D01*
X86712409Y-76766547D01*
X86408552Y-76629792D01*
X86090397Y-76530651D01*
X85762625Y-76470585D01*
X85762622Y-76470584D01*
X85430001Y-76450465D01*
X85429999Y-76450465D01*
X85097377Y-76470584D01*
X85097374Y-76470585D01*
X84769602Y-76530651D01*
X84451447Y-76629792D01*
X84147590Y-76766547D01*
X84147584Y-76766550D01*
X83862405Y-76938946D01*
X83600088Y-77144459D01*
X83600082Y-77144464D01*
X83364464Y-77380082D01*
X83364459Y-77380088D01*
X83158946Y-77642405D01*
X82986550Y-77927584D01*
X82986547Y-77927590D01*
X82849792Y-78231447D01*
X82750651Y-78549602D01*
X82690585Y-78877374D01*
X82690584Y-78877377D01*
X82670465Y-79209998D01*
X82670465Y-79210001D01*
X63674500Y-79210001D01*
X63674500Y-77457608D01*
X63694502Y-77389487D01*
X63711405Y-77368513D01*
X64878513Y-76201405D01*
X64940825Y-76167379D01*
X64967608Y-76164500D01*
X65764933Y-76164500D01*
X85844933Y-76164500D01*
X87502392Y-76164500D01*
X87570513Y-76184502D01*
G37*
G04 #@! TD.AperFunction*
M02*
