G04 #@! TF.GenerationSoftware,KiCad,Pcbnew,7.0.9*
G04 #@! TF.CreationDate,2025-01-02T14:54:55+08:00*
G04 #@! TF.ProjectId,RbMotor_ECAT_RevB+,52624d6f-746f-4725-9f45-4341545f5265,rev?*
G04 #@! TF.SameCoordinates,Original*
G04 #@! TF.FileFunction,Soldermask,Top*
G04 #@! TF.FilePolarity,Negative*
%FSLAX46Y46*%
G04 Gerber Fmt 4.6, Leading zero omitted, Abs format (unit mm)*
G04 Created by KiCad (PCBNEW 7.0.9) date 2025-01-02 14:54:55*
%MOMM*%
%LPD*%
G01*
G04 APERTURE LIST*
G04 Aperture macros list*
%AMRoundRect*
0 Rectangle with rounded corners*
0 $1 Rounding radius*
0 $2 $3 $4 $5 $6 $7 $8 $9 X,Y pos of 4 corners*
0 Add a 4 corners polygon primitive as box body*
4,1,4,$2,$3,$4,$5,$6,$7,$8,$9,$2,$3,0*
0 Add four circle primitives for the rounded corners*
1,1,$1+$1,$2,$3*
1,1,$1+$1,$4,$5*
1,1,$1+$1,$6,$7*
1,1,$1+$1,$8,$9*
0 Add four rect primitives between the rounded corners*
20,1,$1+$1,$2,$3,$4,$5,0*
20,1,$1+$1,$4,$5,$6,$7,0*
20,1,$1+$1,$6,$7,$8,$9,0*
20,1,$1+$1,$8,$9,$2,$3,0*%
G04 Aperture macros list end*
%ADD10R,0.762000X2.921000*%
%ADD11RoundRect,0.225000X0.225000X0.250000X-0.225000X0.250000X-0.225000X-0.250000X0.225000X-0.250000X0*%
%ADD12R,1.300000X1.300000*%
%ADD13C,1.300000*%
%ADD14C,0.500000*%
%ADD15RoundRect,0.200000X0.200000X0.275000X-0.200000X0.275000X-0.200000X-0.275000X0.200000X-0.275000X0*%
%ADD16C,0.635000*%
%ADD17RoundRect,0.135000X0.185000X-0.135000X0.185000X0.135000X-0.185000X0.135000X-0.185000X-0.135000X0*%
%ADD18R,2.700000X1.283000*%
%ADD19RoundRect,0.140000X0.140000X0.170000X-0.140000X0.170000X-0.140000X-0.170000X0.140000X-0.170000X0*%
%ADD20RoundRect,0.140000X-0.140000X-0.170000X0.140000X-0.170000X0.140000X0.170000X-0.140000X0.170000X0*%
%ADD21RoundRect,0.050800X0.400050X-0.400050X0.400050X0.400050X-0.400050X0.400050X-0.400050X-0.400050X0*%
%ADD22RoundRect,0.140000X-0.170000X0.140000X-0.170000X-0.140000X0.170000X-0.140000X0.170000X0.140000X0*%
%ADD23RoundRect,0.135000X0.135000X0.185000X-0.135000X0.185000X-0.135000X-0.185000X0.135000X-0.185000X0*%
%ADD24RoundRect,0.250000X0.450000X-0.262500X0.450000X0.262500X-0.450000X0.262500X-0.450000X-0.262500X0*%
%ADD25RoundRect,0.135000X-0.135000X-0.185000X0.135000X-0.185000X0.135000X0.185000X-0.135000X0.185000X0*%
%ADD26C,3.000000*%
%ADD27R,1.150000X0.700000*%
%ADD28R,3.100000X4.200000*%
%ADD29R,1.500000X4.700000*%
%ADD30C,1.100000*%
%ADD31RoundRect,0.225000X-0.250000X0.225000X-0.250000X-0.225000X0.250000X-0.225000X0.250000X0.225000X0*%
%ADD32RoundRect,0.050800X-0.400050X0.400050X-0.400050X-0.400050X0.400050X-0.400050X0.400050X0.400050X0*%
%ADD33RoundRect,0.250000X-0.250000X-0.475000X0.250000X-0.475000X0.250000X0.475000X-0.250000X0.475000X0*%
%ADD34RoundRect,0.225000X-0.225000X-0.250000X0.225000X-0.250000X0.225000X0.250000X-0.225000X0.250000X0*%
%ADD35RoundRect,0.135000X-0.185000X0.135000X-0.185000X-0.135000X0.185000X-0.135000X0.185000X0.135000X0*%
%ADD36RoundRect,0.225000X0.250000X-0.225000X0.250000X0.225000X-0.250000X0.225000X-0.250000X-0.225000X0*%
%ADD37R,3.610000X1.260000*%
%ADD38O,0.574000X2.038000*%
%ADD39C,1.000000*%
%ADD40RoundRect,0.200000X-0.200000X-0.275000X0.200000X-0.275000X0.200000X0.275000X-0.200000X0.275000X0*%
%ADD41RoundRect,0.250000X0.250000X0.475000X-0.250000X0.475000X-0.250000X-0.475000X0.250000X-0.475000X0*%
%ADD42RoundRect,0.050800X0.023392X0.357208X-0.256402X0.249806X-0.023392X-0.357208X0.256402X-0.249806X0*%
%ADD43RoundRect,0.050800X-0.017186X0.742937X-0.484350X0.563609X0.017186X-0.742937X0.484350X-0.563609X0*%
%ADD44RoundRect,0.140000X0.170000X-0.140000X0.170000X0.140000X-0.170000X0.140000X-0.170000X-0.140000X0*%
%ADD45RoundRect,0.250000X0.262500X0.450000X-0.262500X0.450000X-0.262500X-0.450000X0.262500X-0.450000X0*%
%ADD46C,0.400000*%
%ADD47O,0.700000X0.250000*%
%ADD48R,1.650000X2.400000*%
%ADD49RoundRect,0.200000X-0.275000X0.200000X-0.275000X-0.200000X0.275000X-0.200000X0.275000X0.200000X0*%
%ADD50R,1.600000X0.610000*%
%ADD51R,2.620000X3.500000*%
%ADD52R,2.424000X3.620000*%
%ADD53R,1.230000X2.220000*%
%ADD54R,1.200000X1.400000*%
G04 APERTURE END LIST*
D10*
X143881050Y-101455320D03*
X142611050Y-101455320D03*
X141341050Y-101455320D03*
X140071050Y-101455320D03*
X138801050Y-101455320D03*
X137531050Y-101455320D03*
X136261050Y-101455320D03*
X134991050Y-101455320D03*
X134991050Y-108770520D03*
X136261050Y-108770520D03*
X137531050Y-108770520D03*
X138801050Y-108770520D03*
X140071050Y-108770520D03*
X141341050Y-108770520D03*
X142611050Y-108770520D03*
X143881050Y-108770520D03*
X134971050Y-120790520D03*
X136241050Y-120790520D03*
X137511050Y-120790520D03*
X138781050Y-120790520D03*
X140051050Y-120790520D03*
X141321050Y-120790520D03*
X142591050Y-120790520D03*
X143861050Y-120790520D03*
X143861050Y-113475320D03*
X142591050Y-113475320D03*
X141321050Y-113475320D03*
X140051050Y-113475320D03*
X138781050Y-113475320D03*
X137511050Y-113475320D03*
X136241050Y-113475320D03*
X134971050Y-113475320D03*
D11*
X169751121Y-93889414D03*
X168201121Y-93889414D03*
D12*
X129861121Y-113309414D03*
D13*
X129861121Y-114809414D03*
X129861121Y-116309414D03*
X129861121Y-117809414D03*
X129861121Y-119309414D03*
D14*
X156481121Y-118579414D03*
X165401121Y-95719414D03*
X141026050Y-122852920D03*
D15*
X150341121Y-100919414D03*
X148691121Y-100919414D03*
D16*
X150221121Y-93621414D03*
X150221121Y-94637414D03*
D17*
X134071121Y-97649414D03*
X134071121Y-96629414D03*
D18*
X161636050Y-114243920D03*
X161636050Y-109461920D03*
D16*
X156716050Y-113238920D03*
X156716050Y-112222920D03*
D19*
X162921121Y-98899414D03*
X161961121Y-98899414D03*
D20*
X144601121Y-127379414D03*
X145561121Y-127379414D03*
D21*
X169462021Y-86919414D03*
X167760221Y-86919414D03*
D17*
X151266050Y-103052920D03*
X151266050Y-102032920D03*
D22*
X158566192Y-96885908D03*
X158566192Y-97845908D03*
D14*
X167691121Y-98129414D03*
D23*
X164971121Y-98909414D03*
X163951121Y-98909414D03*
D11*
X149876121Y-97859414D03*
X148326121Y-97859414D03*
D24*
X144081121Y-136011914D03*
X144081121Y-134186914D03*
D17*
X156271121Y-97939414D03*
X156271121Y-96919414D03*
D21*
X132256950Y-100222920D03*
X130555150Y-100222920D03*
D17*
X152956050Y-113240920D03*
X152956050Y-112220920D03*
D25*
X131185150Y-99092920D03*
X132205150Y-99092920D03*
D26*
X173196050Y-103962920D03*
D16*
X165907121Y-93769414D03*
X164891121Y-93769414D03*
D22*
X154541121Y-128191414D03*
X154541121Y-129151414D03*
D14*
X137666050Y-99412920D03*
D19*
X150317192Y-126595908D03*
X149357192Y-126595908D03*
D27*
X165091050Y-101757920D03*
X165091050Y-103027920D03*
X165091050Y-104297920D03*
X165091050Y-105567920D03*
D28*
X168266050Y-103662920D03*
D29*
X170566050Y-103662920D03*
D14*
X173306050Y-107932920D03*
D30*
X133561121Y-94549414D03*
D25*
X144627192Y-131735907D03*
X145647192Y-131735907D03*
D30*
X141621121Y-89039414D03*
D26*
X173196050Y-111432920D03*
D21*
X133522021Y-125319414D03*
X131820221Y-125319414D03*
D27*
X175621050Y-116697920D03*
X175621050Y-117967920D03*
X175621050Y-119237920D03*
X175621050Y-120507920D03*
D28*
X178796050Y-118602920D03*
D29*
X181096050Y-118602920D03*
D25*
X163956050Y-96942920D03*
X164976050Y-96942920D03*
D16*
X156006050Y-101984920D03*
X156006050Y-103000920D03*
D17*
X150676050Y-113222920D03*
X150676050Y-112202920D03*
D26*
X153281050Y-136152920D03*
X148281050Y-136152920D03*
D31*
X149091121Y-93754414D03*
X149091121Y-95304414D03*
D18*
X161706050Y-122353920D03*
X161706050Y-117571920D03*
D14*
X164751121Y-95419414D03*
D15*
X176486121Y-121939414D03*
X174836121Y-121939414D03*
D25*
X168951121Y-88059414D03*
X169971121Y-88059414D03*
D32*
X165280221Y-85679414D03*
X166982021Y-85679414D03*
D15*
X176251050Y-114762920D03*
X174601050Y-114762920D03*
D31*
X155618192Y-130395908D03*
X155618192Y-131945908D03*
D14*
X158001121Y-107377192D03*
D27*
X175581050Y-101757920D03*
X175581050Y-103027920D03*
X175581050Y-104297920D03*
X175581050Y-105567920D03*
D28*
X178756050Y-103662920D03*
D29*
X181056050Y-103662920D03*
D33*
X156461121Y-122689414D03*
X158361121Y-122689414D03*
D11*
X149866121Y-96599414D03*
X148316121Y-96599414D03*
D16*
X153886050Y-113218920D03*
X153886050Y-112202920D03*
D14*
X166091121Y-95979414D03*
D26*
X164751050Y-136152920D03*
X159751050Y-136152920D03*
D14*
X158471121Y-104619414D03*
X169171121Y-128869414D03*
D23*
X145647192Y-132559240D03*
X144627192Y-132559240D03*
D30*
X133791121Y-127949414D03*
D17*
X133101121Y-97649414D03*
X133101121Y-96629414D03*
D21*
X133501121Y-123919414D03*
X131799321Y-123919414D03*
D26*
X173196050Y-118902920D03*
D18*
X161656050Y-106123920D03*
X161656050Y-101341920D03*
D16*
X136041121Y-96661414D03*
X136041121Y-97677414D03*
D34*
X177761050Y-96212920D03*
X179311050Y-96212920D03*
D35*
X149296050Y-102032920D03*
X149296050Y-103052920D03*
D27*
X165131050Y-116697921D03*
X165131050Y-117967921D03*
X165131050Y-119237921D03*
X165131050Y-120507921D03*
D28*
X168306050Y-118602921D03*
D29*
X170606050Y-118602921D03*
D19*
X157481121Y-119279414D03*
X156521121Y-119279414D03*
D36*
X157181121Y-129044414D03*
X157181121Y-127494414D03*
D14*
X150581121Y-86499414D03*
D37*
X166806121Y-128359414D03*
X160216121Y-128359414D03*
D25*
X163956050Y-97922920D03*
X164976050Y-97922920D03*
D20*
X144657192Y-129265908D03*
X145617192Y-129265908D03*
D36*
X155761121Y-129034414D03*
X155761121Y-127484414D03*
D35*
X156976050Y-102002920D03*
X156976050Y-103022920D03*
D14*
X172691050Y-115522920D03*
D33*
X156451121Y-120909414D03*
X158351121Y-120909414D03*
D35*
X168141121Y-90289414D03*
X168141121Y-91309414D03*
D14*
X163781121Y-86169414D03*
D20*
X144657192Y-130089241D03*
X145617192Y-130089241D03*
D38*
X148456050Y-110440920D03*
X149726050Y-110440920D03*
X150996050Y-110440920D03*
X152266050Y-110440920D03*
X153536050Y-110440920D03*
X154806050Y-110440920D03*
X156076050Y-110440920D03*
X156076050Y-104902920D03*
X154806050Y-104902920D03*
X153536050Y-104902920D03*
X152266050Y-104902920D03*
X150996050Y-104902920D03*
X149726050Y-104902920D03*
X148456050Y-104902920D03*
D14*
X135036050Y-122772920D03*
D39*
X138621121Y-125519414D03*
X136921121Y-125519414D03*
D31*
X147871121Y-93754414D03*
X147871121Y-95304414D03*
D14*
X152681121Y-101249414D03*
X155096050Y-115632920D03*
D40*
X178046121Y-98309414D03*
X179696121Y-98309414D03*
D14*
X138166050Y-122800920D03*
D35*
X155076050Y-101962920D03*
X155076050Y-102982920D03*
D16*
X152156050Y-115190920D03*
X152156050Y-114174920D03*
D14*
X158001121Y-108084970D03*
D25*
X165611121Y-86829414D03*
X166631121Y-86829414D03*
D15*
X167046050Y-114932920D03*
X165396050Y-114932920D03*
D41*
X180306050Y-107452920D03*
X178406050Y-107452920D03*
D42*
X149176380Y-87193186D03*
X148708285Y-87370086D03*
X148241121Y-87549414D03*
X147773957Y-87728741D03*
X147306887Y-87908033D03*
X146839723Y-88087360D03*
X146375826Y-88268219D03*
X145907823Y-88445083D03*
X145440660Y-88624410D03*
X144973496Y-88803737D03*
D43*
X143124959Y-86504264D03*
X149005769Y-84246832D03*
D17*
X154776050Y-113232920D03*
X154776050Y-112212920D03*
D14*
X164011121Y-94979414D03*
X172386050Y-99102920D03*
D16*
X148756050Y-113180920D03*
X148756050Y-112164920D03*
D20*
X144601121Y-128315908D03*
X145561121Y-128315908D03*
D27*
X165131051Y-109457920D03*
X165131051Y-110727920D03*
X165131051Y-111997920D03*
X165131051Y-113267920D03*
D28*
X168306051Y-111362920D03*
D29*
X170606051Y-111362920D03*
D14*
X141226050Y-99512920D03*
D35*
X135051121Y-96679414D03*
X135051121Y-97699414D03*
D17*
X147726050Y-113182920D03*
X147726050Y-112162920D03*
D44*
X150286050Y-103022920D03*
X150286050Y-102062920D03*
D14*
X158001121Y-108792748D03*
X163761121Y-85359414D03*
D17*
X159541121Y-97899414D03*
X159541121Y-96879414D03*
D14*
X158451121Y-96259414D03*
D45*
X158323621Y-124439414D03*
X156498621Y-124439414D03*
D44*
X152086050Y-113202920D03*
X152086050Y-112242920D03*
D15*
X176581050Y-107098920D03*
X174931050Y-107098920D03*
D35*
X153236050Y-102022920D03*
X153236050Y-103042920D03*
D14*
X154446050Y-116012920D03*
D46*
X151901121Y-84539414D03*
X152701121Y-84539414D03*
X153501121Y-84539414D03*
X154301121Y-84539414D03*
X155101121Y-84539414D03*
X155901121Y-84539414D03*
X156701121Y-84539414D03*
X157501121Y-84539414D03*
X158301121Y-84539414D03*
X159101121Y-84539414D03*
X159901121Y-84539414D03*
X160701121Y-84539414D03*
X161501121Y-84539414D03*
X162301121Y-84539414D03*
X151901121Y-85339414D03*
X152701121Y-85339414D03*
X153501121Y-85339414D03*
X154301121Y-85339414D03*
X155101121Y-85339414D03*
X155901121Y-85339414D03*
X156701121Y-85339414D03*
X157501121Y-85339414D03*
X158301121Y-85339414D03*
X159101121Y-85339414D03*
X159901121Y-85339414D03*
X160701121Y-85339414D03*
X161501121Y-85339414D03*
X162301121Y-85339414D03*
X151901121Y-86139414D03*
X152701121Y-86139414D03*
X153501121Y-86139414D03*
X154301121Y-86139414D03*
X155101121Y-86139414D03*
X155901121Y-86139414D03*
X156701121Y-86139414D03*
X157501121Y-86139414D03*
X158301121Y-86139414D03*
X159101121Y-86139414D03*
X159901121Y-86139414D03*
X160701121Y-86139414D03*
X161501121Y-86139414D03*
X162301121Y-86139414D03*
X151901121Y-86939414D03*
X152701121Y-86939414D03*
X153501121Y-86939414D03*
X154301121Y-86939414D03*
X155101121Y-86939414D03*
X155901121Y-86939414D03*
X156701121Y-86939414D03*
X157501121Y-86939414D03*
X158301121Y-86939414D03*
X159101121Y-86939414D03*
X159901121Y-86939414D03*
X160701121Y-86939414D03*
X161501121Y-86939414D03*
X162301121Y-86939414D03*
X151901121Y-87739414D03*
X152701121Y-87739414D03*
X153501121Y-87739414D03*
X154301121Y-87739414D03*
X155101121Y-87739414D03*
X155901121Y-87739414D03*
X156701121Y-87739414D03*
X157501121Y-87739414D03*
X158301121Y-87739414D03*
X159101121Y-87739414D03*
X159901121Y-87739414D03*
X160701121Y-87739414D03*
X161501121Y-87739414D03*
X162301121Y-87739414D03*
X151901121Y-88539414D03*
X152701121Y-88539414D03*
X153501121Y-88539414D03*
X154301121Y-88539414D03*
X155101121Y-88539414D03*
X155901121Y-88539414D03*
X156701121Y-88539414D03*
X157501121Y-88539414D03*
X158301121Y-88539414D03*
X159101121Y-88539414D03*
X159901121Y-88539414D03*
X160701121Y-88539414D03*
X161501121Y-88539414D03*
X162301121Y-88539414D03*
X151901121Y-89339414D03*
X152701121Y-89339414D03*
X153501121Y-89339414D03*
X154301121Y-89339414D03*
X155101121Y-89339414D03*
X155901121Y-89339414D03*
X156701121Y-89339414D03*
X157501121Y-89339414D03*
X158301121Y-89339414D03*
X159101121Y-89339414D03*
X159901121Y-89339414D03*
X160701121Y-89339414D03*
X161501121Y-89339414D03*
X162301121Y-89339414D03*
X151901121Y-90139414D03*
X152701121Y-90139414D03*
X153501121Y-90139414D03*
X154301121Y-90139414D03*
X155101121Y-90139414D03*
X155901121Y-90139414D03*
X156701121Y-90139414D03*
X157501121Y-90139414D03*
X158301121Y-90139414D03*
X159101121Y-90139414D03*
X159901121Y-90139414D03*
X160701121Y-90139414D03*
X161501121Y-90139414D03*
X162301121Y-90139414D03*
X151901121Y-90939414D03*
X152701121Y-90939414D03*
X153501121Y-90939414D03*
X154301121Y-90939414D03*
X155101121Y-90939414D03*
X155901121Y-90939414D03*
X156701121Y-90939414D03*
X157501121Y-90939414D03*
X158301121Y-90939414D03*
X159101121Y-90939414D03*
X159901121Y-90939414D03*
X160701121Y-90939414D03*
X161501121Y-90939414D03*
X162301121Y-90939414D03*
X151901121Y-91739414D03*
X152701121Y-91739414D03*
X153501121Y-91739414D03*
X154301121Y-91739414D03*
X155101121Y-91739414D03*
X155901121Y-91739414D03*
X156701121Y-91739414D03*
X157501121Y-91739414D03*
X158301121Y-91739414D03*
X159101121Y-91739414D03*
X159901121Y-91739414D03*
X160701121Y-91739414D03*
X161501121Y-91739414D03*
X162301121Y-91739414D03*
X151901121Y-92539414D03*
X152701121Y-92539414D03*
X153501121Y-92539414D03*
X154301121Y-92539414D03*
X155101121Y-92539414D03*
X155901121Y-92539414D03*
X156701121Y-92539414D03*
X157501121Y-92539414D03*
X158301121Y-92539414D03*
X159101121Y-92539414D03*
X159901121Y-92539414D03*
X160701121Y-92539414D03*
X161501121Y-92539414D03*
X162301121Y-92539414D03*
X151901121Y-93339414D03*
X152701121Y-93339414D03*
X153501121Y-93339414D03*
X154301121Y-93339414D03*
X155101121Y-93339414D03*
X155901121Y-93339414D03*
X156701121Y-93339414D03*
X157501121Y-93339414D03*
X158301121Y-93339414D03*
X159101121Y-93339414D03*
X159901121Y-93339414D03*
X160701121Y-93339414D03*
X161501121Y-93339414D03*
X162301121Y-93339414D03*
X151901121Y-94139414D03*
X152701121Y-94139414D03*
X153501121Y-94139414D03*
X154301121Y-94139414D03*
X155101121Y-94139414D03*
X155901121Y-94139414D03*
X156701121Y-94139414D03*
X157501121Y-94139414D03*
X158301121Y-94139414D03*
X159101121Y-94139414D03*
X159901121Y-94139414D03*
X160701121Y-94139414D03*
X161501121Y-94139414D03*
X162301121Y-94139414D03*
X151901121Y-94939414D03*
X152701121Y-94939414D03*
X153501121Y-94939414D03*
X154301121Y-94939414D03*
X155101121Y-94939414D03*
X155901121Y-94939414D03*
X156701121Y-94939414D03*
X157501121Y-94939414D03*
X158301121Y-94939414D03*
X159101121Y-94939414D03*
X159901121Y-94939414D03*
X160701121Y-94939414D03*
X161501121Y-94939414D03*
X162301121Y-94939414D03*
D35*
X154156050Y-101972920D03*
X154156050Y-102992920D03*
D17*
X151206050Y-115232920D03*
X151206050Y-114212920D03*
X149726050Y-113212920D03*
X149726050Y-112192920D03*
D14*
X155781121Y-96499414D03*
D23*
X175271121Y-95909414D03*
X174251121Y-95909414D03*
D30*
X141641121Y-91149414D03*
D22*
X155341121Y-96929414D03*
X155341121Y-97889414D03*
D47*
X176804050Y-99302930D03*
X176804050Y-98802930D03*
X176804050Y-98302920D03*
X176804050Y-97802930D03*
X176804050Y-97302920D03*
X173654050Y-97302920D03*
X173654050Y-97802930D03*
X173654050Y-98302920D03*
X173654050Y-98802930D03*
X173654050Y-99302930D03*
D48*
X175229050Y-98302920D03*
D17*
X155706050Y-113222920D03*
X155706050Y-112202920D03*
X157626050Y-113260920D03*
X157626050Y-112240920D03*
D44*
X148386050Y-103000920D03*
X148386050Y-102040920D03*
D14*
X143866050Y-122832920D03*
D44*
X154181121Y-131549414D03*
X154181121Y-130589414D03*
D14*
X134906050Y-99422920D03*
D49*
X157141121Y-130354414D03*
X157141121Y-132004414D03*
D50*
X147238192Y-127980908D03*
X147238192Y-129250908D03*
X147238192Y-130520908D03*
X147238192Y-131790908D03*
X152638192Y-131790908D03*
X152638192Y-130520908D03*
X152638192Y-129250908D03*
X152638192Y-127980908D03*
D51*
X149727192Y-129885908D03*
D12*
X129871121Y-103689414D03*
D13*
X129871121Y-105189414D03*
X129871121Y-106689414D03*
X129871121Y-108189414D03*
X129871121Y-109689414D03*
D15*
X173481050Y-100592920D03*
X171831050Y-100592920D03*
D27*
X175621050Y-109457920D03*
X175621050Y-110727920D03*
X175621050Y-111997920D03*
X175621050Y-113267920D03*
D28*
X178796050Y-111362920D03*
D29*
X181096050Y-111362920D03*
D16*
X152306050Y-102034920D03*
X152306050Y-103050920D03*
D19*
X145617192Y-130912574D03*
X144657192Y-130912574D03*
D52*
X148133121Y-122359414D03*
X154389121Y-122359414D03*
D53*
X151406121Y-97759414D03*
X153576122Y-97759414D03*
D14*
X158001121Y-106669414D03*
D11*
X149896121Y-99109414D03*
X148346121Y-99109414D03*
D14*
X143956050Y-99492920D03*
D16*
X166409121Y-88359414D03*
X165393121Y-88359414D03*
D41*
X180346050Y-114942920D03*
X178446050Y-114942920D03*
D30*
X143261121Y-95159414D03*
D34*
X178036121Y-99669414D03*
X179586121Y-99669414D03*
D54*
X164829121Y-89959414D03*
X164829121Y-92159414D03*
X166529121Y-92159414D03*
X166529121Y-89959414D03*
M02*
