M48
; DRILL file {KiCad 7.0.9} date Thu Jan  2 14:55:03 2025
; FORMAT={-:-/ absolute / metric / decimal}
; #@! TF.CreationDate,2025-01-02T14:55:03+08:00
; #@! TF.GenerationSoftware,Kicad,Pcbnew,7.0.9
; #@! TF.FileFunction,Plated,1,4,PTH
FMAT,2
METRIC
; #@! TA.AperFunction,Plated,PTH,ViaDrill
T1C0.254
; #@! TA.AperFunction,Plated,PTH,ViaDrill
T2C0.300
; #@! TA.AperFunction,Plated,PTH,ComponentDrill
T3C0.550
; #@! TA.AperFunction,Plated,PTH,ComponentDrill
T4C0.800
; #@! TA.AperFunction,Plated,PTH,ComponentDrill
T5C2.000
%
G90
G05
T1
X129.911Y-101.259
X130.581Y-121.249
X130.591Y-122.869
X131.766Y-97.713
X131.971Y-122.509
X132.061Y-96.379
X132.066Y-102.813
X132.136Y-101.573
X132.161Y-121.219
X132.371Y-125.889
X132.431Y-123.909
X132.671Y-127.079
X132.681Y-124.619
X132.851Y-95.089
X132.951Y-98.459
X133.006Y-99.113
X133.066Y-100.273
X133.301Y-121.249
X133.436Y-101.263
X133.601Y-119.649
X133.801Y-122.939
X133.851Y-126.489
X134.161Y-98.509
X134.351Y-118.589
X134.671Y-92.829
X134.711Y-129.859
X135.091Y-96.199
X135.331Y-94.509
X135.936Y-118.693
X135.971Y-123.329
X136.006Y-127.333
X136.326Y-122.543
X136.371Y-96.239
X136.546Y-118.693
X137.386Y-122.703
X137.501Y-132.799
X138.096Y-103.473
X138.121Y-127.069
X138.131Y-89.819
X138.171Y-96.403
X138.211Y-110.619
X138.391Y-111.489
X138.436Y-99.353
X138.781Y-96.403
X139.066Y-103.433
X139.231Y-90.779
X139.481Y-89.029
X139.516Y-125.943
X139.571Y-132.689
X139.651Y-97.819
X140.281Y-98.789
X140.576Y-127.823
X140.591Y-129.009
X140.801Y-118.789
X140.836Y-103.533
X141.411Y-133.529
X141.421Y-130.429
X141.616Y-122.663
X141.716Y-99.864
X142.001Y-127.819
X142.286Y-118.84
X142.541Y-89.569
X142.586Y-103.223
X142.636Y-110.523
X142.646Y-122.553
X142.726Y-111.663
X142.741Y-127.159
X142.896Y-118.84
X142.971Y-128.609
X143.021Y-88.029
X143.051Y-133.459
X143.181Y-127.169
X143.371Y-130.819
X143.471Y-99.769
X143.521Y-133.459
X143.671Y-125.159
X143.786Y-103.533
X143.801Y-97.949
X143.801Y-98.649
X143.831Y-87.599
X143.851Y-89.499
X143.911Y-132.529
X144.016Y-133.459
X144.073Y-136.783
X144.101Y-124.559
X144.181Y-126.669
X144.251Y-94.229
X144.271Y-95.149
X144.271Y-95.829
X144.391Y-93.499
X144.421Y-88.219
X144.431Y-97.929
X144.431Y-99.069
X144.441Y-98.469
X144.451Y-126.279
X144.511Y-133.459
X144.519Y-136.783
X144.681Y-126.669
X144.751Y-117.039
X144.951Y-121.109
X144.965Y-136.783
X145.181Y-120.349
X145.291Y-118.47
X145.411Y-85.279
X145.411Y-136.783
X145.901Y-118.47
X146.231Y-119.014
X146.581Y-87.489
X146.771Y-84.819
X146.841Y-119.014
X147.191Y-126.049
X147.576Y-110.883
X147.601Y-94.249
X147.616Y-109.393
X147.671Y-87.009
X147.791Y-93.809
X147.791Y-114.209
X147.961Y-96.059
X148.031Y-94.249
X148.081Y-100.389
X148.081Y-100.829
X148.081Y-101.269
X148.121Y-97.061
X148.121Y-97.529
X148.121Y-97.998
X148.121Y-98.467
X148.121Y-98.936
X148.421Y-123.909
X148.541Y-127.574
X148.741Y-128.859
X148.741Y-129.299
X148.801Y-103.769
X148.851Y-123.899
X148.891Y-123.399
X148.921Y-115.459
X148.971Y-106.839
X148.976Y-86.654
X149.001Y-108.669
X149.051Y-132.459
X149.141Y-119.359
X149.311Y-108.979
X149.541Y-88.469
X149.551Y-132.459
X149.661Y-117.349
X149.761Y-95.069
X149.911Y-107.719
X149.971Y-84.959
X150.051Y-132.459
X150.326Y-111.443
X150.376Y-110.533
X150.381Y-121.949
X150.391Y-96.349
X150.391Y-96.779
X150.551Y-129.849
X150.551Y-130.449
X150.571Y-129.359
X150.721Y-94.219
X150.751Y-96.559
X150.971Y-101.109
X150.981Y-100.659
X151.341Y-99.369
X151.341Y-123.529
X151.341Y-124.299
X151.431Y-100.799
X151.501Y-94.966
X151.501Y-95.389
X151.646Y-113.203
X151.681Y-115.233
X151.781Y-117.889
X151.981Y-84.129
X152.021Y-122.169
X152.031Y-125.029
X152.061Y-119.989
X152.266Y-103.723
X152.276Y-106.223
X152.276Y-107.883
X152.301Y-85.739
X152.826Y-101.983
X152.846Y-126.054
X152.871Y-98.049
X152.931Y-125.039
X153.041Y-117.889
X153.101Y-85.739
X153.101Y-86.539
X153.101Y-87.339
X153.101Y-88.139
X153.101Y-88.939
X153.101Y-91.339
X153.101Y-92.139
X153.101Y-93.739
X153.306Y-116.363
X153.596Y-115.343
X153.731Y-101.259
X153.731Y-107.049
X153.731Y-107.489
X153.781Y-125.029
X153.901Y-87.339
X153.901Y-88.139
X153.901Y-88.939
X153.901Y-90.539
X153.901Y-91.339
X153.901Y-92.139
X153.901Y-93.739
X153.901Y-94.539
X153.976Y-114.803
X154.301Y-117.889
X154.701Y-87.339
X154.701Y-88.139
X154.701Y-90.539
X154.701Y-91.339
X154.701Y-92.139
X154.701Y-127.449
X154.736Y-106.863
X154.831Y-96.349
X154.941Y-128.199
X155.101Y-98.319
X155.166Y-108.413
X155.241Y-98.889
X155.297Y-131.624
X155.416Y-103.593
X155.501Y-87.339
X155.501Y-88.139
X155.501Y-88.939
X155.501Y-90.539
X155.501Y-91.339
X155.561Y-117.889
X155.711Y-125.109
X155.801Y-83.719
X156.066Y-116.323
X156.171Y-123.919
X156.191Y-123.499
X156.238Y-114.286
X156.238Y-114.896
X156.301Y-87.339
X156.301Y-91.339
X156.301Y-92.939
X156.301Y-95.339
X156.351Y-99.099
X156.481Y-108.069
X156.541Y-127.389
X156.541Y-127.839
X156.631Y-123.909
X156.641Y-117.909
X156.651Y-123.489
X156.871Y-108.839
X156.941Y-127.609
X157.071Y-99.114
X157.101Y-84.939
X157.101Y-87.339
X157.101Y-89.739
X157.101Y-90.539
X157.101Y-91.339
X157.101Y-92.939
X157.281Y-83.719
X157.311Y-106.659
X157.321Y-118.719
X157.366Y-113.973
X157.466Y-115.423
X157.501Y-97.819
X157.561Y-119.759
X157.631Y-121.379
X157.631Y-126.149
X157.641Y-122.259
X157.661Y-123.099
X157.671Y-120.739
X157.701Y-98.559
X157.751Y-107.379
X157.801Y-126.549
X157.876Y-116.793
X157.901Y-84.939
X157.901Y-87.339
X157.901Y-90.539
X158.101Y-126.159
X158.102Y-138.153
X158.291Y-98.579
X158.406Y-83.744
X158.516Y-104.123
X158.675Y-138.163
X158.701Y-88.139
X158.701Y-88.939
X158.701Y-90.539
X158.701Y-92.139
X158.746Y-105.643
X158.747Y-115.145
X158.771Y-107.089
X159.178Y-114.714
X159.248Y-138.163
X159.501Y-84.939
X159.501Y-85.739
X159.501Y-88.139
X159.679Y-128.443
X159.696Y-129.413
X159.706Y-128.943
X159.781Y-83.159
X159.82Y-138.183
X159.946Y-105.929
X159.946Y-106.443
X159.946Y-107.043
X159.946Y-107.557
X159.976Y-115.183
X159.976Y-115.693
X160.066Y-122.013
X160.066Y-122.473
X160.066Y-122.933
X160.066Y-123.393
X160.066Y-123.853
X160.191Y-96.389
X160.271Y-95.459
X160.301Y-84.139
X160.301Y-84.939
X160.301Y-92.939
X160.339Y-128.443
X160.356Y-129.413
X160.366Y-128.943
X160.393Y-138.193
X160.446Y-107.053
X160.456Y-115.173
X160.456Y-115.683
X160.466Y-107.543
X160.516Y-100.413
X160.594Y-123.823
X160.614Y-123.293
X160.959Y-107.053
X160.966Y-138.193
X160.97Y-115.173
X160.97Y-115.683
X160.971Y-107.543
X160.999Y-128.443
X161.016Y-129.413
X161.019Y-100.413
X161.021Y-97.759
X161.026Y-128.943
X161.101Y-84.139
X161.101Y-89.739
X161.101Y-92.939
X161.108Y-123.823
X161.128Y-123.293
X161.161Y-98.679
X161.391Y-96.869
X161.473Y-107.053
X161.476Y-107.543
X161.484Y-115.173
X161.484Y-115.683
X161.523Y-100.413
X161.622Y-123.823
X161.642Y-123.293
X161.901Y-89.739
X161.901Y-92.939
X161.981Y-107.543
X161.986Y-107.053
X161.998Y-115.173
X161.998Y-115.683
X162.026Y-100.413
X162.136Y-123.823
X162.156Y-123.293
X162.486Y-107.543
X162.499Y-107.053
X162.512Y-115.173
X162.512Y-115.683
X162.529Y-100.413
X162.631Y-84.189
X162.65Y-123.823
X162.67Y-123.293
X162.701Y-95.339
X162.991Y-107.543
X163.013Y-107.053
X163.026Y-115.173
X163.026Y-115.683
X163.033Y-100.413
X163.191Y-84.749
X163.211Y-92.349
X163.222Y-123.033
X163.222Y-123.543
X163.246Y-109.113
X163.246Y-109.593
X163.246Y-110.073
X163.246Y-110.554
X163.246Y-111.034
X163.246Y-111.514
X163.246Y-111.994
X163.286Y-113.803
X163.286Y-114.703
X163.296Y-114.253
X163.306Y-121.963
X163.306Y-122.477
X163.331Y-87.479
X163.346Y-103.08
X163.346Y-103.583
X163.346Y-104.086
X163.356Y-106.533
X163.366Y-101.533
X163.366Y-102.036
X163.366Y-102.54
X163.366Y-106.083
X163.383Y-101.033
X163.436Y-116.566
X163.436Y-117.085
X163.436Y-117.613
X163.436Y-118.141
X163.436Y-118.628
X163.436Y-119.141
X163.496Y-107.543
X163.506Y-115.173
X163.506Y-115.687
X163.526Y-100.553
X163.526Y-107.053
X163.606Y-105.683
X163.736Y-109.123
X163.736Y-109.603
X163.736Y-110.083
X163.736Y-110.564
X163.736Y-111.044
X163.736Y-111.524
X163.736Y-112.004
X163.736Y-123.033
X163.796Y-113.813
X163.796Y-114.713
X163.806Y-114.263
X163.816Y-121.963
X163.816Y-122.477
X163.856Y-106.553
X163.866Y-106.103
X163.886Y-101.033
X163.886Y-101.543
X163.886Y-102.046
X163.886Y-102.55
X163.886Y-103.09
X163.886Y-103.593
X163.886Y-104.096
X163.916Y-116.566
X163.916Y-117.085
X163.916Y-117.613
X163.916Y-118.141
X163.916Y-118.628
X163.916Y-119.143
X163.936Y-115.173
X164.006Y-95.014
X164.266Y-109.123
X164.266Y-109.603
X164.266Y-110.083
X164.266Y-110.564
X164.266Y-111.044
X164.266Y-111.524
X164.266Y-112.004
X164.376Y-116.566
X164.376Y-117.085
X164.376Y-117.613
X164.376Y-118.141
X164.376Y-118.628
X164.376Y-119.143
X164.421Y-93.399
X164.811Y-84.479
X164.841Y-95.409
X165.111Y-86.879
X165.401Y-95.719
X165.641Y-94.429
X166.081Y-84.779
X166.111Y-96.463
X166.746Y-115.923
X166.991Y-88.999
X167.152Y-133.803
X167.192Y-128.943
X167.212Y-128.453
X167.226Y-129.433
X167.251Y-93.869
X167.262Y-131.483
X167.286Y-107.393
X167.286Y-108.683
X167.291Y-95.379
X167.616Y-125.507
X167.626Y-124.473
X167.626Y-125.003
X167.656Y-133.813
X167.696Y-128.943
X167.729Y-128.453
X167.73Y-129.443
X167.766Y-131.493
X167.891Y-99.629
X167.921Y-88.609
X168.056Y-114.933
X168.186Y-133.813
X168.221Y-88.079
X168.226Y-128.943
X168.246Y-128.453
X168.26Y-129.443
X168.303Y-118.643
X168.341Y-85.959
X168.349Y-120.613
X168.351Y-119.303
X168.359Y-119.973
X168.523Y-112.923
X168.533Y-112.223
X168.543Y-111.553
X168.552Y-110.823
X168.975Y-118.643
X169.021Y-120.613
X169.022Y-119.303
X169.031Y-119.973
X169.031Y-95.189
X169.284Y-112.923
X169.294Y-112.223
X169.304Y-111.553
X169.313Y-110.823
X169.332Y-102.173
X169.338Y-102.893
X169.378Y-103.603
X169.378Y-104.343
X169.546Y-115.863
X169.556Y-115.323
X169.647Y-118.643
X169.692Y-120.613
X169.694Y-119.303
X169.702Y-119.973
X169.706Y-92.999
X169.826Y-114.253
X169.876Y-106.563
X170.016Y-115.863
X170.026Y-115.323
X170.045Y-112.923
X170.053Y-102.173
X170.055Y-112.223
X170.059Y-102.893
X170.065Y-111.553
X170.074Y-110.823
X170.099Y-103.603
X170.099Y-104.343
X170.316Y-107.623
X170.316Y-108.093
X170.316Y-108.573
X170.319Y-118.643
X170.364Y-120.613
X170.366Y-119.303
X170.374Y-119.973
X170.476Y-122.263
X170.496Y-115.863
X170.506Y-115.323
X170.571Y-95.139
X170.774Y-102.173
X170.78Y-102.893
X170.806Y-112.923
X170.816Y-112.223
X170.82Y-103.603
X170.82Y-104.343
X170.826Y-111.553
X170.835Y-110.853
X170.856Y-107.633
X170.856Y-108.103
X170.856Y-108.583
X170.956Y-122.263
X170.991Y-118.643
X171.036Y-120.613
X171.038Y-119.303
X171.046Y-119.973
X171.322Y-127.653
X171.456Y-122.263
X171.461Y-92.609
X171.492Y-132.733
X171.495Y-102.153
X171.502Y-102.873
X171.542Y-103.583
X171.542Y-104.323
X171.567Y-112.923
X171.571Y-91.159
X171.577Y-112.223
X171.587Y-111.553
X171.596Y-110.853
X171.611Y-87.609
X171.662Y-118.643
X171.708Y-120.613
X171.71Y-119.303
X171.718Y-119.973
X171.826Y-127.663
X171.866Y-114.013
X171.866Y-114.453
X171.996Y-132.743
X172.216Y-102.153
X172.216Y-117.243
X172.223Y-102.873
X172.263Y-103.583
X172.263Y-104.323
X172.328Y-112.923
X172.334Y-118.643
X172.338Y-112.223
X172.348Y-111.553
X172.356Y-127.663
X172.357Y-110.853
X172.38Y-120.613
X172.382Y-119.303
X172.39Y-119.973
X172.486Y-106.443
X172.486Y-106.883
X172.526Y-132.743
X172.691Y-115.523
X172.937Y-102.153
X172.944Y-102.873
X172.984Y-103.583
X172.984Y-104.323
X173.006Y-118.643
X173.052Y-120.613
X173.053Y-119.303
X173.062Y-119.973
X173.089Y-112.923
X173.099Y-112.223
X173.109Y-111.553
X173.118Y-110.853
X173.331Y-107.893
X173.536Y-115.933
X173.658Y-102.153
X173.665Y-102.873
X173.678Y-118.643
X173.705Y-103.583
X173.705Y-104.323
X173.725Y-119.303
X173.733Y-119.973
X173.85Y-112.923
X173.86Y-112.223
X173.87Y-111.553
X173.879Y-110.853
X173.891Y-89.269
X174.066Y-108.763
X174.379Y-102.153
X174.386Y-102.873
X174.426Y-103.583
X174.426Y-104.323
X174.666Y-98.113
X174.666Y-98.583
X174.666Y-99.063
X174.727Y-127.089
X174.731Y-90.289
X175.206Y-98.123
X175.206Y-98.593
X175.206Y-99.073
X175.306Y-124.129
X175.375Y-127.089
X175.726Y-106.553
X175.856Y-100.393
X176.022Y-127.089
X176.071Y-124.129
X176.156Y-95.843
X176.356Y-96.223
X176.596Y-95.843
X176.67Y-127.089
X177.318Y-127.089
X177.446Y-100.673
X177.966Y-127.089
X178.336Y-122.703
X178.336Y-123.148
X178.346Y-123.608
X178.406Y-106.893
X178.406Y-107.338
X178.416Y-107.798
X178.426Y-114.398
X178.426Y-114.843
X178.436Y-115.303
X178.613Y-127.089
X178.906Y-101.103
X179.236Y-100.793
X179.261Y-127.089
X179.468Y-100.395
X179.971Y-119.728
X179.971Y-120.193
X179.971Y-120.738
X180.036Y-106.448
X180.046Y-107.538
X180.056Y-106.988
X180.066Y-116.723
X180.066Y-117.228
X180.066Y-117.733
X180.076Y-108.073
X180.096Y-102.028
X180.096Y-102.618
X180.096Y-103.668
X180.096Y-104.173
X180.096Y-104.678
X180.156Y-111.983
X180.156Y-112.573
X180.186Y-109.328
X180.186Y-109.833
X180.186Y-110.338
X180.226Y-123.153
X180.226Y-123.683
X180.236Y-122.649
X180.296Y-114.743
X180.296Y-115.273
X180.306Y-114.239
X180.446Y-119.728
X180.446Y-120.233
X180.446Y-120.738
X180.606Y-106.468
X180.616Y-102.033
X180.616Y-102.623
X180.616Y-107.558
X180.626Y-107.008
X180.636Y-116.723
X180.636Y-117.228
X180.636Y-117.733
X180.646Y-108.093
X180.666Y-103.668
X180.666Y-104.173
X180.666Y-104.678
X180.726Y-111.983
X180.726Y-112.573
X180.736Y-122.643
X180.736Y-123.148
X180.736Y-123.653
X180.756Y-109.328
X180.756Y-109.833
X180.756Y-110.338
X180.816Y-114.238
X180.816Y-114.743
X180.816Y-115.248
X180.936Y-119.728
X180.936Y-120.223
X180.936Y-120.738
X181.146Y-102.043
X181.146Y-102.633
X181.146Y-103.683
X181.146Y-104.188
X181.146Y-104.693
X182.206Y-102.003
T2
X173.646Y-114.803
X177.731Y-95.429
T3
X136.921Y-125.519
X138.621Y-125.519
T4
X129.861Y-113.309
X129.861Y-114.809
X129.861Y-116.309
X129.861Y-117.809
X129.861Y-119.309
X129.871Y-103.689
X129.871Y-105.189
X129.871Y-106.689
X129.871Y-108.189
X129.871Y-109.689
X133.561Y-94.549
X133.791Y-127.949
X141.621Y-89.039
X141.641Y-91.149
X143.261Y-95.159
T5
X148.281Y-136.153
X153.281Y-136.153
X159.751Y-136.153
X164.751Y-136.153
T0
M30
