G04 #@! TF.GenerationSoftware,KiCad,Pcbnew,7.0.9*
G04 #@! TF.CreationDate,2024-10-31T17:05:38+08:00*
G04 #@! TF.ProjectId,ECAT_Adapter board,45434154-5f41-4646-9170-74657220626f,rev?*
G04 #@! TF.SameCoordinates,Original*
G04 #@! TF.FileFunction,Soldermask,Top*
G04 #@! TF.FilePolarity,Negative*
%FSLAX46Y46*%
G04 Gerber Fmt 4.6, Leading zero omitted, Abs format (unit mm)*
G04 Created by KiCad (PCBNEW 7.0.9) date 2024-10-31 17:05:38*
%MOMM*%
%LPD*%
G01*
G04 APERTURE LIST*
G04 Aperture macros list*
%AMRoundRect*
0 Rectangle with rounded corners*
0 $1 Rounding radius*
0 $2 $3 $4 $5 $6 $7 $8 $9 X,Y pos of 4 corners*
0 Add a 4 corners polygon primitive as box body*
4,1,4,$2,$3,$4,$5,$6,$7,$8,$9,$2,$3,0*
0 Add four circle primitives for the rounded corners*
1,1,$1+$1,$2,$3*
1,1,$1+$1,$4,$5*
1,1,$1+$1,$6,$7*
1,1,$1+$1,$8,$9*
0 Add four rect primitives between the rounded corners*
20,1,$1+$1,$2,$3,$4,$5,0*
20,1,$1+$1,$4,$5,$6,$7,0*
20,1,$1+$1,$6,$7,$8,$9,0*
20,1,$1+$1,$8,$9,$2,$3,0*%
G04 Aperture macros list end*
%ADD10C,3.250000*%
%ADD11C,2.642000*%
%ADD12R,1.499000X1.499000*%
%ADD13C,1.499000*%
%ADD14RoundRect,0.200000X-0.200000X-0.275000X0.200000X-0.275000X0.200000X0.275000X-0.200000X0.275000X0*%
%ADD15RoundRect,0.250000X0.450000X-0.262500X0.450000X0.262500X-0.450000X0.262500X-0.450000X-0.262500X0*%
%ADD16C,1.600000*%
%ADD17C,3.000000*%
%ADD18C,4.000000*%
%ADD19RoundRect,0.250000X-0.650000X0.325000X-0.650000X-0.325000X0.650000X-0.325000X0.650000X0.325000X0*%
%ADD20R,1.300000X1.300000*%
%ADD21C,1.300000*%
%ADD22O,1.800000X4.200000*%
%ADD23O,4.200000X1.800000*%
%ADD24RoundRect,0.050800X-0.400050X0.400050X-0.400050X-0.400050X0.400050X-0.400050X0.400050X0.400050X0*%
%ADD25RoundRect,0.250000X0.650000X-0.325000X0.650000X0.325000X-0.650000X0.325000X-0.650000X-0.325000X0*%
%ADD26RoundRect,0.250000X-0.625000X0.312500X-0.625000X-0.312500X0.625000X-0.312500X0.625000X0.312500X0*%
G04 APERTURE END LIST*
D10*
X129535000Y-96095000D03*
X129535000Y-83395000D03*
D11*
X125975000Y-97875000D03*
X125975000Y-81615000D03*
D12*
X126995000Y-86189000D03*
D13*
X125215000Y-87205000D03*
X126995000Y-88221000D03*
X125215000Y-89237000D03*
X126995000Y-90253000D03*
X125215000Y-91269000D03*
X126995000Y-92285000D03*
X125215000Y-93301000D03*
X120397000Y-82884000D03*
X120397000Y-85176000D03*
X120397000Y-94314000D03*
X120397000Y-96606000D03*
D14*
X117483000Y-105730000D03*
X119133000Y-105730000D03*
D15*
X127615000Y-102535000D03*
X127615000Y-100710000D03*
D16*
X112683000Y-110920000D03*
X112683000Y-115920000D03*
D17*
X103793000Y-115730000D03*
X103793000Y-110730000D03*
D18*
X97815000Y-76725000D03*
D15*
X124935000Y-102547500D03*
X124935000Y-100722500D03*
D19*
X133975000Y-100750000D03*
X133975000Y-103700000D03*
D20*
X107995000Y-93651386D03*
D21*
X107995000Y-95151386D03*
X107995000Y-96651386D03*
X107995000Y-98151386D03*
D18*
X97815000Y-135715000D03*
D22*
X121041500Y-111661500D03*
X127041500Y-111661500D03*
D23*
X124041500Y-106961500D03*
D18*
X132815000Y-135725000D03*
D24*
X113911200Y-105680000D03*
X115613000Y-105680000D03*
D18*
X132815000Y-76725000D03*
D25*
X129735000Y-103700000D03*
X129735000Y-100750000D03*
D26*
X131855000Y-100782500D03*
X131855000Y-103707500D03*
M02*
