M48
; DRILL file {KiCad 7.0.9} date Thu Oct 31 17:05:42 2024
; FORMAT={-:-/ absolute / metric / decimal}
; #@! TF.CreationDate,2024-10-31T17:05:42+08:00
; #@! TF.GenerationSoftware,Kicad,Pcbnew,7.0.9
; #@! TF.FileFunction,Plated,1,4,PTH
FMAT,2
METRIC
; #@! TA.AperFunction,Plated,PTH,ViaDrill
T1C0.254
; #@! TA.AperFunction,Plated,PTH,ViaDrill
T2C0.305
; #@! TA.AperFunction,Plated,PTH,ComponentDrill
T3C0.800
; #@! TA.AperFunction,Plated,PTH,ComponentDrill
T4C0.914
; #@! TA.AperFunction,Plated,PTH,ComponentDrill
T5C1.000
; #@! TA.AperFunction,Plated,PTH,ComponentDrill
T6C1.200
; #@! TA.AperFunction,Plated,PTH,ComponentDrill
T7C1.900
; #@! TA.AperFunction,Plated,PTH,ComponentDrill
T8C2.000
; #@! TA.AperFunction,Plated,PTH,ComponentDrill
T9C3.000
%
G90
G05
T1
X105.443Y-108.09
X105.484Y-110.72
X105.484Y-112.13
X105.504Y-113.39
X105.534Y-109.16
X107.457Y-108.09
X107.519Y-113.39
X107.549Y-109.16
X109.472Y-108.09
X109.513Y-110.72
X109.513Y-112.13
X109.533Y-113.39
X109.563Y-109.16
X111.486Y-108.09
X111.527Y-110.72
X111.527Y-112.13
X111.547Y-113.39
X111.577Y-109.16
X112.873Y-112.11
X113.5Y-108.09
X113.562Y-113.39
X113.592Y-109.16
X115.514Y-108.09
X115.576Y-113.39
X115.606Y-109.16
X115.607Y-110.68
X115.699Y-111.75
X117.529Y-108.09
X117.59Y-113.39
X117.62Y-109.16
X117.622Y-110.68
X117.713Y-111.75
X119.543Y-108.09
X119.584Y-110.72
X119.584Y-112.13
X119.604Y-113.39
X119.634Y-109.16
T2
X96.773Y-117.97
X97.696Y-112.86
X97.766Y-109.04
X97.89Y-114.65
X98.243Y-117.97
X99.166Y-112.86
X99.236Y-109.04
X99.283Y-114.65
X99.803Y-117.97
X100.726Y-112.86
X101.113Y-117.97
X101.313Y-120.68
X101.313Y-122.59
X101.636Y-129.17
X101.666Y-133.497
X101.706Y-125.35
X101.706Y-127.26
X101.896Y-131.36
X102.706Y-122.59
X102.783Y-120.68
X103.1Y-127.26
X103.106Y-129.17
X103.136Y-133.497
X103.176Y-125.35
X103.29Y-131.36
X103.896Y-104.68
X103.896Y-106.59
X104.1Y-122.59
X104.343Y-120.68
X104.493Y-127.26
X104.666Y-129.17
X104.683Y-131.36
X104.696Y-133.497
X104.736Y-125.35
X105.29Y-106.59
X105.366Y-104.68
X105.493Y-122.59
X105.653Y-120.68
X105.886Y-127.26
X105.976Y-129.17
X106.006Y-133.497
X106.046Y-125.35
X106.076Y-131.36
X106.683Y-106.59
X106.886Y-122.59
X106.926Y-104.68
X107.123Y-120.68
X107.28Y-127.26
X107.446Y-129.17
X107.47Y-131.36
X107.476Y-133.497
X107.516Y-125.35
X107.676Y-115.38
X107.676Y-117.29
X108.076Y-106.59
X108.236Y-104.68
X108.28Y-122.59
X108.473Y-120.68
X108.673Y-127.26
X108.796Y-129.17
X108.826Y-133.497
X108.863Y-131.36
X108.866Y-125.35
X109.07Y-117.29
X109.146Y-115.38
X109.47Y-106.59
X109.673Y-120.68
X109.673Y-122.59
X109.706Y-104.68
X109.996Y-129.17
X110.026Y-133.497
X110.066Y-125.35
X110.066Y-127.26
X110.256Y-131.36
X110.463Y-117.29
X110.706Y-115.38
X110.863Y-106.59
X111.056Y-104.68
X112.256Y-104.68
X112.283Y-106.64
X113.013Y-120.68
X113.013Y-122.59
X113.336Y-129.17
X113.366Y-133.497
X113.406Y-125.35
X113.406Y-127.26
X113.596Y-131.36
X114.406Y-122.59
X114.483Y-120.68
X114.8Y-127.26
X114.806Y-129.17
X114.836Y-133.497
X114.876Y-125.35
X114.99Y-131.36
X115.053Y-115.41
X115.053Y-117.32
X115.8Y-122.59
X116.043Y-120.68
X116.193Y-127.26
X116.366Y-129.17
X116.383Y-131.36
X116.396Y-133.497
X116.436Y-125.35
X116.446Y-117.32
X116.523Y-115.41
X117.193Y-122.59
X117.353Y-120.68
X117.586Y-127.26
X117.676Y-129.17
X117.706Y-133.497
X117.746Y-125.35
X117.776Y-131.36
X117.84Y-117.32
X118.083Y-115.41
X118.586Y-122.59
X118.823Y-120.68
X118.98Y-127.26
X119.146Y-129.17
X119.17Y-131.36
X119.176Y-133.497
X119.216Y-125.35
X119.233Y-117.32
X119.393Y-115.41
X120.173Y-120.68
X120.373Y-127.26
X120.496Y-129.17
X120.526Y-133.497
X120.563Y-131.36
X120.566Y-125.35
X120.626Y-117.32
X120.863Y-115.41
X121.335Y-105.375
X121.373Y-120.68
X121.373Y-122.59
X121.415Y-103.985
X121.696Y-129.17
X121.726Y-133.497
X121.766Y-125.35
X121.766Y-127.26
X121.956Y-131.36
X122.213Y-115.41
X122.645Y-105.375
X122.725Y-103.985
X123.413Y-115.41
X123.413Y-117.32
X123.645Y-100.015
X124.115Y-105.375
X124.195Y-103.985
X125.295Y-109.514
X125.295Y-111.425
X125.295Y-113.335
X125.465Y-105.375
X125.545Y-103.985
X125.705Y-128.915
X125.735Y-118.737
X125.735Y-133.242
X125.765Y-114.925
X125.765Y-116.835
X125.775Y-125.095
X125.775Y-127.005
X125.965Y-131.105
X126.355Y-109.514
X126.665Y-105.375
X126.745Y-103.985
X127.075Y-114.925
X127.075Y-116.835
X127.168Y-127.005
X127.175Y-128.915
X127.205Y-118.737
X127.205Y-120.647
X127.205Y-133.242
X127.245Y-125.095
X127.358Y-131.105
X127.615Y-99.815
X127.665Y-109.514
X128.562Y-127.005
X128.735Y-128.915
X128.752Y-131.105
X128.765Y-105.375
X128.765Y-107.275
X128.765Y-109.514
X128.765Y-111.425
X128.765Y-113.335
X128.765Y-114.925
X128.765Y-116.835
X128.765Y-118.737
X128.765Y-120.647
X128.765Y-133.242
X128.805Y-125.095
X128.885Y-122.455
X129.955Y-127.005
X130.045Y-128.915
X130.075Y-105.375
X130.075Y-107.275
X130.075Y-109.514
X130.075Y-111.425
X130.075Y-113.335
X130.075Y-114.925
X130.075Y-116.835
X130.075Y-118.737
X130.075Y-120.647
X130.075Y-133.242
X130.115Y-125.095
X130.145Y-131.105
X130.195Y-122.455
X131.348Y-127.005
X131.515Y-128.915
X131.538Y-131.105
X131.545Y-105.375
X131.545Y-107.275
X131.545Y-109.514
X131.545Y-111.425
X131.545Y-113.335
X131.545Y-114.925
X131.545Y-116.835
X131.545Y-118.737
X131.545Y-120.647
X131.545Y-133.242
X131.585Y-125.095
X131.665Y-122.455
X132.742Y-127.005
X132.865Y-128.915
X132.895Y-105.375
X132.895Y-107.275
X132.895Y-109.514
X132.895Y-111.425
X132.895Y-113.335
X132.895Y-114.925
X132.895Y-116.835
X132.895Y-118.737
X132.895Y-120.647
X132.895Y-133.242
X132.932Y-131.105
X132.935Y-125.095
X133.015Y-122.455
X134.065Y-128.915
X134.095Y-105.375
X134.095Y-107.275
X134.095Y-109.514
X134.095Y-111.425
X134.095Y-113.335
X134.095Y-114.925
X134.095Y-116.835
X134.095Y-118.737
X134.095Y-120.647
X134.095Y-133.242
X134.135Y-125.095
X134.135Y-127.005
X134.215Y-122.455
X134.325Y-131.105
T3
X107.995Y-93.651
X107.995Y-95.151
X107.995Y-96.651
X107.995Y-98.151
T4
X120.397Y-82.884
X120.397Y-85.176
X120.397Y-94.314
X120.397Y-96.606
X125.215Y-87.205
X125.215Y-89.237
X125.215Y-91.269
X125.215Y-93.301
X126.995Y-86.189
X126.995Y-88.221
X126.995Y-90.253
X126.995Y-92.285
T5
X112.683Y-110.92
X112.683Y-115.92
T7
X125.975Y-81.615
X125.975Y-97.875
T8
X103.793Y-110.73
X103.793Y-115.73
T9
X97.815Y-76.725
X97.815Y-135.715
X132.815Y-76.725
X132.815Y-135.725
T6
G00X121.041Y-112.911
M15
G01X121.041Y-110.411
M16
G05
G00X122.791Y-106.962
M15
G01X125.291Y-106.962
M16
G05
G00X127.041Y-110.411
M15
G01X127.041Y-112.911
M16
G05
T0
M30
